<mxfile host="app.diagrams.net" modified="2022-09-28T15:29:11.836Z" agent="5.0 (Windows NT 10.0; Win64; x64) AppleWebKit/537.36 (KHTML, like Gecko) Chrome/105.0.0.0 Safari/537.36" etag="QebfEeXyFnVusW7HObDz" version="20.3.6" type="github">
  <diagram id="OCAAd6209RfacaWSgA_w" name="第 1 页">
    <mxGraphModel dx="1086" dy="887" grid="1" gridSize="10" guides="1" tooltips="1" connect="1" arrows="1" fold="1" page="1" pageScale="1" pageWidth="827" pageHeight="1169" math="0" shadow="0">
      <root>
        <mxCell id="0" />
        <mxCell id="1" parent="0" />
        <mxCell id="8nYDqPeVYNA1PBUkEucR-10" value="" style="shape=image;verticalLabelPosition=bottom;labelBackgroundColor=default;verticalAlign=top;aspect=fixed;imageAspect=0;image=data:image/png,iVBORw0KGgoAAAANSUhEUgAAAM4AAADWCAYAAACZmr0yAAAAAXNSR0IArs4c6QAAAARnQU1BAACxjwv8YQUAAAAJcEhZcwAADsMAAA7DAcdvqGQAAO7qSURBVHhe7P0HkKXZdd8Jnuf9y5c+K8tXdXW1BdoABEBYghBJiCBFUTQSRcrManZHu9qZndDMbszGxs5EaDQmYna0ETsjKTQSJYoaSAJFiQYiKVIE4dgkgAbQ3lVXdZev9Pm8f29//3PfV/mqOsuCAglRp+rm973P3nvu+R9z3RcbQ19+86r9B/qDp3FMKe77sfFeSky2Eem6ka5lf8Tl+n0rio1Hk71AMb9rj6afG+gWDxuHfN14PjrGO2JD8jGc/L5XinsZ3pmXO1Pg2Y1l/HZSVEd7FPFkQmTwQw8cuPnof6A/eApCEATCdwNIJvvTtN+xf/ckKYmSgCLAjD2Po1jivtK3XI5x4g8lxa4rkzvTfwDOt4GmFZgDiG0EHqXI2ogioQu/R1TmjSmid2rGQNEzPd3K2oik1W+VeK8s5ViW476S3huec++JLCDAfxgpMF+QmE4Tipg6oakz/4H+XVDEa8l4xHtP/B6yVZoGkWgfPNw7RQ+7JXmOSMHK3JDkprE3MizIfSSB534pKIQY+MUCfLvTdfDcme66hFHF/mGm70RyqzClyZXkw98q+TXa+j4bxHC/dJ32Y5TShPasgPZ1ajxJ2r91HvQECcf9pJiXM2TjfhJ//f3f7qS/Xl/7Z+oGUjn/A30bKaqD29TJdXKQUJH7pW+dgnA7CSxTaRwXcIa850Y38W7THwzpOd/uJLpZDUTpRnrnkdvQeEzQSGV6Zcf5M0mRAAxh2n5J90T3Tafo+K3OT6c/quQ8GVHGm1JECWKFQa9PYcN1ul5JFIvtFWz6OB6336etjXGdJkmaPAJNXPdO7gn3hQr22GSSuJp3Djg+sng8VHWUB1F079h9xSlRYF/vl+Nlw77FebdSjGdpO+x1rh/bL7lFnMjFzfUqebj5nH5rfzAaBt6pNe8WiatsOOp50n4MkEfHlW6+/p4ST2AHnrDnLFLmlETw1DMb6J6AowKqAhKJvRSfHBNdr4jw1htIQhKuv3XSNfeb/jBJ5VWFD4cIFSkSTuVL236354Io8ETHlcS76F5tdV4pAIfz2k5SnFNKus9Bxb37Eac9iaJni5LJhPNY+Qt5SPjxIAKT5D4+z+Z96VTC+M/+0JK8ODZGKEd9SyfJ87Dnx2+dxpaIJ6dyH5IAqqR9vSfaj8eS/hvcUHzJjvIsQb51GpOfGNYx4cUIx/R7+pp7TTG0UpS367xw2Yx4tUd33Y8TaYybhdQrfLKNzt28FWk3+h3dI4p2p4/tSwjUrVyU6Xd/u2m6TFG6TmS41+shgEnLZDJBoyJUqowIaBHpmMjLOLFOyQQCPA0uRNKvQygFnP4wAM7fOKncmAAKjaXZedtQVoJ7UskUz0AnDwaACKEm24NBeP9+9ZVGyY3Ie0S6L5VKWTKVtCH3RYDcjwYq39Szpvmid0y/R/vTPFNeB/3OLes6AVKU+n0sIdfqfu1ns1l/jvann3cvBNwBThYuR3mclNEBKQrP/dADy/cGHDezkB4aVbQoymi0vZkxN9N0wab3b0di5K2YKdrvPd8OCpWncsBmCfdUeSTDY4RbwGm325ZMp7iB6GHCR10rIYj296xN4G1C7sdQrhbnOaYyxgQa3QNQ+r2BA1F36bm8MWhMEZUdT4xc4PXsZCJ1PZ/B0kngwrMD724UaLlcI1wylSmdTvszHICUodVsOfhuRT09e1I2PVP3RvfL6xCAI09lCH+kQHSdzikLIxRM1MBwM+k65UkAiZ6v38qPUmRR74eGA4E2gYWVdQ51IgWkvCZkaf2543sHjiopRuEil0uZVkaluVRBkRDoeETRfsjEXoGi/Wir5yndityVvQ0/pp/97aTAB5g+EQCR+OCuUTJu/UbbCvm89ajoPucFmjjnEvhBElzn2cTCaJtyN4zEQ8e4Rg4cBwXEObk3DhYqRDEMFeJ1w02TaybA4WwyNUYY+uQrWGS3NBJJvUppYvCC2xbul4MIN20w7Foum7ImIJGlqdVq7Dfs+IkT1ut2b8tvD5km5fDfvGy6nqP9SOgFJMlUJPyDwZ6lu5l0j+7v4v5GsqV719fXrVAo2sxM+bZ5uy3JlQQ84n3IG/GU12mIEWPyle8HOP1JJapwQTuEggs4ekEQolCYm7fThdlvXwKkZ96Khl182tvwI3rPt5v0XpVBfJgGThrNrPKkEcQe1iaVSeG29W1AIYZcKx46WCA9Q0lDcQSeMcdlqYSXOMLvZRNA9B5EG2MAAFWdk+MquoRUfvl1fxyXLB3yJKWmc3qn2N3p9LBWei7XqsdcFo7ze3EP1/RaNjNXtmq15uW5du2qbW1u2lNPP+3PlKK4JVFG5TWKyVK4d3p3BBodkwsr4ffL+R0dT6QBjj97//oUT5Uf8TLin57/2muvO2iWl5e9jPdD4r8UtOpAeUmm9K5QN2M1eijWI1v35ap5JU1IjAhgCfvTWkB08/70bzEqIu1Hz7kVjXpk/DYMmX72t5OmyyHSbyWvVPgVQ0DOvnHGHjh1yjK5rKXzWdtFe6uwEiZpc7+H62MD+DsBjRJhiVccv9zSCEmJZDok7mu1u9Qxlaqiw7+bgRNPyhWTYuMJvCMRT7E/tt2dmjWwhEP2Y5PAnBvZF5AQbp7XweKksDhyiZTHarWKxWnaysoK9dx19+1WhMMTLCVl0XUzMxUXaj0nAvLW1pbt7Oz4MaVOp+MKWO5sLK5nK0/vJNWzZEX8VdK+3nH58mXLY9mLxeJ1QN0roVYMj8yGeAJJvIVSuWylUoH84TRjBaVfxOZ7Bo7cNAW4jVbL2q0O7kfQGJEFGuAWBAEOhQ77oRBUufvmqsBwLDLZ4bx8SWnQvX6AGxmX4V6qdvLrRpIGmimXKPbeecTJt37sZsS5pN2Gbro+JqG96Vj0iNF1NygErSMEQ0IgIet1WvYv/sn/bp1a0/7T/+w/tTQBbLqQQ9gFBbPd3V0Xnp3dHbt25aqtX7lmO9vb1m13gsUhRomhBmURFPyWZ2ZtaWnJllYO2Mzsoh08fARLRlAsXqlGRZEFiiG4sZ4LloRVAIsTH3XafdtY33Wrk8vkKIhilQAaFVFb8awbG1qLGEeCI1KZJOACksqrst6K4mqBI8AXwBKpjM3NzdvC3IzLiZ4zpN6vXr1q2xs7VqbeZipl63OtZCubLVi3F+RDtF9VSQ6UhwEAjMATkY4Hubsz3fxsAScGQBSPStYrlRlS2eObro5hcRJYoQ+fvFfgkCEN4jtzZdfWdts2gjljKiUuzQnX472mX9uJF1FcCStm05ZGoASO8VDmLgBjOEDbUYk9tWL0G5jItnUsY10qMTWmQqmUzghXJ12gEmAMhamUcvifxAmY0STClBjhZ6OBW9TR0mzZjiyXPW+DWMqS+KZJnjNSTKBgOdZ3IYqExAf16fhE04pkir3nXNpS4NX+mAAUjZxNFYJFoIyyutp2qDQF6kgDrhf3cz5J+Yq4ZEkE55Xnvmn/+l/9S/valz9nh5YX7H/6//zPVkAIc7m8vfLqK/b1r3/dzp07Z5ubW9bttK1er1ur0bRuC97AUwnxOKbWJfJNOVLJjGWyaFT8+EK+bJl8wRYAUWVhGQAdt2MPnHIgFRDEAXlpo9TkzvW9zhAJrFSM1Gr2bW1tAws+sGOrh2y+VLI41kF5Vr/N2AIweuIlvMnnMjairH1AlML6BSsCgIbwFAEeAAK1oEWWj9pyAeu1G/b2pabVullbPVCi/nDVuN5bvdIxu4zrt3u1aaePnbBDSznquc2zFPshF70uefBqYRsUgQObg+JLOM571So4aUiQhZCyoZB+bUS6VxSpY/E2Oiaa3tezByiUc2tNu9ZI2AHle5Yqpvxx8jSSJYxn7MMPLHDtXQJnUpP43Dn76pvb9vZGG4HvW0a2jQeOenUrDLbRkhmrJ5d5W9pKKa6nQqSpEryw01A/gPRj13qJlDUQ5Hhv09Kjqu2OcjZMIhCjlg1h+jA1b9n8gqWphAzvjvdq3oeAv2PpBOa+sa6Wd2vH0nbi0KIdqkhAMPmANjVqW27Ic2CiwGSxLnnskH+5JUr4QJ4EJO5DGDQMxTV8PASDApqEyEZYumHGW1oEqt6gSxZgIGXqUlE93J1Of2Qpzqep2CLCFW/X7J/9g79vv/7Ln7FhcwcFErf/4X/4H/G04vb5L3zeXnrhRQ+wr6B1ZXUlUGq5kWBIeyZJQWu2AGQLHso6S2gE+rCP+rAmrnG+XLHCzLwVZufs8PET9tT73mePPv64zcwvWGtILAAPmrhq2sbR5v1BzDbWtm1A0P/wseN2eA7lhvJJjHHNAKpRp64YxkRnqbzXn0CTIJ8J6iLOuQR5RYWQsGb8HlIuB48rKs7BgwZ1+PyZjm3USnb0cNHKBfX9SM4JuHMxu3T1itUu9e3p04/biaWxpaxpfcot6AJH1QpXkx2/C164kmMjL0VJ51Figrd7KYpBOJxG2cZwSXVJ5M4NOKfc6l8S/1d3iyLQRFuNkeu1B/bNSz17fStjR44WrDKHSm+3kCf4YCUbJnL2kZNzlvhvoAvbjXDn7YiHj9AyKUzYTqNL8AggpNX7LRt0YWwfILV30FBZhAoNAiNzCKLANcISSatJsBKAJpuikDynzX3pMecGNbQk2ggNkkXoM65l8cfRTpVCFm2IAPcaCKcEGsYO8TcHLXcPRwB0rpy3MlpsLC0JkBICK/eEHnQBR5UgQEgTiUs6pi0sVLnEdAm8gj/qR6cixo+xfHFApubcFJYwJQujlqo+VYG2k1CPFI+gldLclOx37eLrr9qvfOafWb9RpSJ5DRbwzTfftN/6zd+082+/jau0blXiHNegJOQwbCeAiVp1gnAi1S485Fk1ruNoZglqGdB0CJKr9artEMTLgn39G9+w19943bZx+Q5iUXLURwJhkXuk1rwkAGrjRqLWbQHXbyaPm+1skH2BR5M+i4EsO9p/zHaoYJl7wZ9t855qo0GsVnTAiL/is54QyuO3o1CwbNsDa3UzVplJWyYtNSe+wlMUaq1Rt25tZKtYzFm8wQRi6X0/JIefpFnllZJQaxfvVueozsrlj/NeKSLFaM43FEkcwAzhzXAo9xSLxPVkXU/jvTyP56gzM3q2OCywRUnHdN+12tC22klcyLRlc1hjypIiAyO8ojHvODqHfKuQd0vuAyK0aZysQ0szmNllm0d7JPt1K6XHtjpfspMH562cxeQOO7gBGXv4xEFbnkVz4ZKlRg0EfGyLMxnjFIDo2nwxY6cOr9gsWjnJNZlxx5ZLWXv64ZNWROh6jS3eVbGHThy12WLW+q06QtuyxfmiHTl0wIq4Ev0u/udEQ0UVH5H4IcGLYV1iI23FZDFMFSlBkcul6CpoOa8CmJvBN89lSpZDS8dgWKczwKVCG8N0NVQMca+SACafSNp8AeBigbIwN05evvL537GtKxctS21kqNRcLudCLb++g7KQBc5k0gSyuKKgRhUfgUYkrRqSBEkaUgIqrS6NzL6sE9saAizXI0uck8smLY1Adtt1e/WlF+yXfuEz9l//V/93+/K//S1LYCXn4F0CcHfrO/47Aw6DMzYRGr2XpOf7ZDr4424QykmNEfjNVm0RH+22bLcNmNC8I9zHISnGuZiEmftj3MPN/rz7Ikk6VRiEOaovhJ06ictVkhchYJDJEeeGgGGAVyDAyNWTRUWn8Vu1rIYGeQsZeI6nks6TN57DuQT3JnjGdIqTQg3cme7J4mRxs5BSu3ht2/LFkj10fMkWiD1SCOs8Uv6Bdz9ghw8dtCtbdatXd/HtK/bu07MI/Izl0OYS8pNHD9jRA3PWo8I3tnbs8HIRkBy3+UX8Rl5zdKFgTz/2IP56wc6eveY95wuVoj1+umj5NLETwrk0V7bTx1dtaXnG6h1iJoA0W0ghWDAP5iaodGkwtzhUp1gYh2ESNomcv0gAI+mcgj/3mbEwEkTXVtJyXmlZS2E2ErigakId4B5lUgkrAAZZkj4uT4Y85rFYeYSxsXbFfvUzn7ba+iW0FNoqg6vUwuVCmObm56zFfgKQCDxbxDeZLIKnfxPQuNb2PR5Pnsb8dqvpIAr+uzSoCpEmnsoqH1zTbjU9/4VCzs82a1XbXlu3rz/7VTt39k2bnanY0WNHsZgJ29nYxJdv2+IsFgeL7sNpZNlQIPonYEZaWk3nA7b1rkADUOHDPJYsls4ig1hjNDCBYMjRBGyKA3ts78viiHinyqf6wl901ysBQAXeMTxQKKOYSiDXnWEfvggUyRyWMs89gEyJa4LXEcqjepi8BdI7BPIAdKrcy3v1LizOPQEnMewigEO7sr7tGXnw8IIdnM/ZfGXeDi5W7OAsqMa8v3FhzTvODsyV7PhK2QowaoGgdXm+bAvzCVw1w7Vo2+X1DaxPyh5YnbMZNOJBrNXh+YrNyX1A6F9+45I1dre5r2InVws2k4t7s+bqShEwAgT4cWUDV7HXArgCDkyNZTyPcu8i4MidkpZxhpFvsVnjmoLFwd1yEAVFKRYKNCO0z9C1FxFZX24B4VUq61pdodbGtSv21pnX7U3cslee/6ade+Vlu3bhLXvpq8/YW6++YIbml2tZxy0qlMve4qjm+nyeWA7N3253rARPRJFrpjRdsRIfJJM/HFdZlD+2XhKu9f6MAe4ylZ3JAm4y2W4DIACeJlgupDOWBfRvv/WWfe1rX7F6vWZLC/PEpQCQ+xYqJSuTH48RvBUOhaGXS14lcOIGPJVd2thtE6/UYULJsjMz1ugTAcq46HJdBg/lIkuZiFnd+wYOL+caLyNlV+NOsLbaCiRq2Q1gEFj01FDv0W8SFojQk33xTlZa8Jjw0XOsfAfr4m6bdvij16th5Q8cOEio+/lb9S6VlrTDi/O4aMQymbiVcBVGBIRquXn17Q1rdzo2hz92aGXOYnA4m44jeIHJTWKkK5vbdm2nYUuVnB1aRIDQXmokyVNNueTQ2oOkvfbmRdycgs3NFG2lXDSUI1pWTdOEUWSnQyh0YX0Li9O2+TJug+KifYATmXxnjhjnfgAvk2iyVUuPypfm4Wk1Pqg1j2eNCK5HxEwZKlZCIhkedFp27cp5++V/+c/t5/7hP7CvfeV37aVvPmvP/v7v2svPf91efe5Z3LgqMXbbAVmam7UuBZOQyx0TpbE26rSTwLub5gIzRUKINhz2ljsJDb+lgf0Mx3WuBY8LhYIV8gW3OO1WG5cNtwT3qsd+nPin22rwbvnufWKf1+zlF5/30QkHqLuFSsVKeSyOrI0E2lmEaLGNBpmmsjlrU/ZLGztWAyyDRNa2am2rtfvWBqBqTVRsmOb+JOVFhLk/YR1i2vsBjtSG+KGtWgV78KLHTpsKaBFXN1A+tVbXG0YalK+phDVs4EY32Da1JXVVdsrc430aN+21LaXkvFNOgmISH8VUvU8AU53cDXBCTd4lpRCqOCZ6QEEkCBnAQJ3gvU18ZZIEwTu0KKR3nnEiT8wDr9w7Uut0OpWWRbdGs+3jnlQq3V9ARvKy/BQVufJjbWIGmX68PGIkzpGk1CihpXmWWvVSaNc9EjtuJlkcgkeXjAhEU4SGlLZXuTrtnq0BxtffOGdfe/YF++KXv2pf+L0z9ttfeta+8OVn7OyF83aQ2OqJJ95tB4i9xr02+qRpORTIoFNHkDrW55iazNPwZ2d3y7a3tn2Qp94hd099GbIs4pOO7Uc67xxQXkmhWZZ9hDICkoL33dqubW1veMxUKuasg4UbwLOl2QpWvohFL2KpialQEKNm3S4Cns/+y39qX/nS51AuPdIgWAopE54qi+OABXzKg0C/haVZ3625GxzLlW2r1bPLuNkb1ZZtNdq4yxpOhGBxYxjndRN/74Hc8oaeX94Hv6iTJhqyioXexc3VtoNibJO3DjLQISZqsdVvpdaAffJcB2g18rWDjG3Vm+S1ZuvVKooVi6W6llL1BEDJrzd0wO9gme5M91TCLm5LZ4gbBXgUEIok1Hn8eImr/G1t+4h+koBVlazqiMj5qYqBIeoWzxZmLE1FKAAWACVCwr1u0qUqVCzJcxAUGQj50Horr/NmahVTGkLpZnL3QYl9DbJUK4y371O5MseKY5JYmBjnpNUVbPax72nMS65QsqvXNtFsHXz5NP5920b48SncmhTmrgswVg8u2OJChef3ib0kLCgPUJ3G+qq5Og5oNAQzBWBmKjMOFlHoLIYvVPIAl015DyAJJMGR4OmaG0A1BXbXkvBQrWRZWRgA1FdnNMJbQMNk4W0fC9TnnaNeF+vXQ+H0DfxYlnx2a1v2O7/xWfuF//0fW21nw/naxcVTn1yX6/tqPoPUjNvjmdV6y3K4yEmsTxWeJLMFyxSpN+qm2e6iaDa8X0uti6oK74dS3U2SKCrKDWXah1Q28brLg+qAZLtRQ/hrgLOF5SM/yJsA00V7on4AC799i/tLGhB/DjUOkKruIQRdytDCU2phNZq9jl1YW7O1nS2vU3wSG0uTc73itHtBw11f6qYMwZPWUSejWnhEYkPEimBqtQ39J+pruC4Sk4v025N8Z54j0CC5fk5/fawQzNDlgob8VvXPOMEExxy7Ak140j7kMYsbXoQC5pC8YZfn+p2oVQGlh+vR6QosRYBewFvM2khgVzAqly2XRzDzgIA3wtv+sI1Aj20BwAwBT79dRUpwiagCuTtqYFAGeTRBNO9QIdifFpZpYbqZonPTaZrUusTBkHiPn5/sRyQeRrftKQ/cKcquCCCJBkqOiIuIC3/jV/+l/f2/879afXvL5mdnnL8asiLQtjR6AU4nsygugNjpDxDeDgLbl2PnMYSa8LsIs/bbuElSQgrc9cZpispxc3n2I2+QQKlJufXJs5rR5eQ5oFTfeBdxuSMIuzdLsx/D69BWaQyLxtRRlCQsCTRtXOPONJyH32N1Y5B31ZOUuNeX9id5uBsSn++aBIY+QiW/X0wVTU+VlaC7L8l13lsNo/bLTFigQlZK1wlgIRtiq98x0cAqzJCCyZQGUpPxPk+cuDMRRQITSC6ERrlq5iDHsS5xrGUyleMcPus4g8bEFVlv2LW1ql25tmub23XcA41MSFiCoLuCts0Sw8kFS1FJ65fP2+d/6zfs3OsvEVwTlJOvhIM98EJKRZ2vmpdyt6Z/P4os5q3ILc8tyJXOxP2IyNXQxDWTW1nbWrNf/sV/bp/+J//Itq5dxdUrobiknCSIKBHizhauZVOWi2epV1+ZarTqLsQ++lsdgzC2C3DGKLgh9fCtlFnkvfuUXB6CrK/cP5+RSnmDIgRK8Ns7qIllpbS0VRoONOatS113sX6RC6o4jPIDqiTegUamuztJOfUUKdbb8XI/uqcSoqt4kayIXiptHipDD4nz8ujdnompnOg84n+DEEzuCj8gnaNc3Cfh27vWr9tHU0W40Hm9KnqdxwFOnHFhljsnp4nKkCUSEKnc0UiNERqJm7bLV3fs4uUNu3h1wy5f27DNnV337SUYCZLynofZcncuvXXGfvHTP2+f+/VfsXhfHb9dSyE8Ao5SIBdR3qwS7ZXxfkgCEsoh1GsbyFu/oKgBRMnjE39f9HvPdxc5EB2MIT6slPMeI/7jv/8P7Jd+8V9YfWfHO3b7gCWZUlCZ8VERHdwcueS62Ye2YLEkrBI4b8aXoPOe0Nmo1i1l5P7LLeCq8yALcHOEBUoF3MQ8Sf1iMdxCpTjBfwygxHFFr6dhF+Z0qSu1r2kYkQKHoXeZaCZrlvg6g3uWQg40CkK8iPhyL3TPpYsEVBUq5mlkgDImjz7SuE6TnHg1ysVCy+Ec+W89QqIl0r6Si5huUWuYtKKOeWW5gZ4IioQgeoueIFhoG9IedKPn6go9AyDyQOVdDQA7VazLRs2urtdsaweXq48VHaNhh8QGA3LJyxLEPykNysRNG6mJt9MgNe23P/sr9mu/+BnLUuYcKYGQpVRJuBZhYAMl9KE8UjAhDrxfUqnEg1BSVbBKHngiEk8cLFHSlRGQJqDZA08gPUdAjHKXx33JEY995p9+2r74O5+zTrPh9eDNuVhn1aoUl0YHt9oNb9wpFjQyRCOgZYHlMgljOQNjuEEadKrauz/yljx4mMViF5NpKxMrV3Ik6mKGeLGkRhAsX5FU4t1lbVMxK1MGpRk8g0o2ZWW22p/h+hliziIBXpl4sKDy4uKlKVYS4CcoaByZUKPT3biSEd0TcCLQRPGDACOzLx9fwFCQKZa59XFgBcuhrcATOiYFiFCBEgK/jl1lRLoq9FhHrXS6T3CYVPtUuYJwhKfvWZlpCs93bc1lCZgq8HTRSuvrm3bx0jW7dGnNNjbqPCKHCS9aLF2YWCMJjnxs/HksSgYtO2w07JVvfN1e+NpXLMkz0mjhDIBJahgSNyS5R73RocWO5GPiJvv3Sa4JxaOoHJMyRSSuRIojAkv0Tj+O8MlldKvkKdzjd/HwAcGyGgVyCNPO+rp95p992i5fuEj4oLFecYLznm3v1r2BwIf78yZZGw3Sle8xUjMtFkADV9VI4e/U+8Xo+yXMlqxNimepySiH+1dIZiwPiAvEUGWNts7nbT6ftXkAPJfPsS2w5TcAWyzkbaGYs4VC1s/NOugAD6ArkwqgPEeeffgXrBSPpfCidLd0T7UamTMJuwb9CSwu6AKPtkE/+XmvcF3nd8gH1bWT85NzvoXd2gpMCfmkXKN2OUSV43ouJ7jWiUqJKl9HPDt6IBTAM1UcTk5OBTcDNapWKN3XaHet3mhbrx/DJSkCjtDROR6F1jUFpAKOhrkLOMN2yy6dPWPP/M5vo9VSaL0UCOygFWOWpqKTFF3AEeM1dCP0GwWr8624LCIHz1RZAgUr/A5y/gQgRZZG28gKTdNILWfiC6DvwY8sQvXqSy/br/3rX7Vaddfavb7tVuu2tbsLT0Y+rEcubwegtRs1S1DYUEcjmymVLa3pDQBGted9T/dJLh9ykwGr+k7ULCTLoAmBKXidRehliUqkYhyLBJjc8mibivsIjlxyDDhw9XhYmvy5YuN5CVxKTU/JkD8BUwNhppO/e1/GvpPuqVY1lD+NT5nBj4z1tGBDHtahpcmeOh/7CJ7eK02cxm5rcKQYOYxxXVzXZRFQrytv2cn3Mf08S5UaVrXUmCc0f3wWdwkXgIJmrUMMoeAU+Cn41PNIhIIOjsSEIUG41GIURjeo1U4OiZK3MvAAWaiOxzs9SyRgYg5mL5RsANcELgWeITBOuoZVR2Jm3Lb629+wZ37tn1pxWLfkoOn+cj5fIK8Zrs17v4A61zzI1LtJ2Cvf6rl9+eMKRjmqCV481gUuKAyYMaHIMiiWHKhxwUsUkvZ96P4kxREiVfSeKzd5pj8vJI/p5B2INyQfi+WADs41tWgJNHKypG4EeQQ9+/yvfdbOvvQiLmzdNlpqzs3YIJ7B6pAvXBqN6tZg30EPPpOrLMFSscgzeAGG2d8bykqS2+2NxdzjZ5QnYiIAPhqTB7l7iTZVQ52QTylFuQdEVJ4fHfN79E/uNmDd4wgl0DHO+7JVOoZguUKWgEjISN5dgYyowWFAcuIdSpIH5SvI3uQUKYQMk30dFOkYJD6Krh+/E8kyJActS3W3LafgsK25MQhiLGNdBL4Lc+sDVXYATqLTAcWKBMxwhqwN0rvxlHU4oEF6OZhaHGyjDWAuuehxTYdtO1GwdrJsLZCh3ujiGOD0a16wBn8EGL0D3KomLKVeeZKKIoulaQkCjkZJAw2ELEtFYvSpqD7Hr2xfhoG4GjGCyixCnKdcBYnAgMAY8VSEi7ZSivG7v3PZzn/1N2y09pLnt5zg7Xo+7+7Gsj5cn1Da570MqbFhTMIiZYCwxNjKeqFEtFV/UozKk9ulMXhqwVLVhUoIVkFKKDT5o2TY9rhOvPGYgyR5kBJQBcrSRS5GZMHD0BkE0pPf6cdTlD81ylAngN3klpYslq9YL5myFtckMzE08diqVy7YFz77r+zilU2rDjLWGOdsqzmyRndk5ZklwIGuhkf9VsNyqYQdWKzgAqHwVCvUqVodnYgXvYIScoVVY8qb+KO60pgzLFQcUCUabOHTBDhqJtZkMS4x9LCNUxxXzzf77gGSRzVQe2OPpMu9GDhH+fVqxSma+BcDvEoCcVjjIWkJtj2NJkBOJAuaxu7N0pMkMAk0Sg6QydZ5rC2HIprevy2pUMTNaGcqkqd1eNJ6y2yNdKnatbe2tm0d9+XSLn5xq2VdMqIxyzq/3jG7qmvbZhtdEtJfl2BnirZD3Z7fHdrlqtkF0tuTdLlOZXENNslaWJ+NWp8K7NkG53ZIGiVU1aADV1PKoLS1dlQBoRKipDYa4GF90Nbp9pyZ0kQ+IJLKkCsiJenzy2GQtJP4KIDsbGzYpbfPIHiINNfKddPiEj6wkORiyc2Ri+T8nrxXlMYFyqLVNc05kUIakkmrNsg4L253BLKoCribylfMKGusXn23RpRL+Q8CwR7v0RElkf5G6QaCB9FWZYpSRD5U35kTnit+qCGkRF6/9nvP2Pa1y5bHEhcxIxUsc5H99KhDjDCylUrBji7M24GZklW4JxMfuALUqOs4HolhYXlweBEUeLEnauJ/AoUbdfJKqXjfjYb09LFmAiZJrnLo0wn7nqgbNYF7S560iBQQz9O0Bz1PL9NhJd3rW+73pLpVmvyevsb3p/gT0TTPpunuZ4AClJ7EhCD7zOtXbHe7ZYViwVL8Ho2bxAtNMo4rNUpZdRdtN0rb7NwCiRgC8R+Tq8RY88HFpDC9WNOGVejiZLCjYgtff0zNjTB0c3sLDZayuXLOKqnQJDzo45um0PSYrhSV1u22cKvMVlfn4Zm0LRyQCVNFTSaseX8A2v5KbcvevHDWxgS9o87ADj/0iGVm5u3suUv4vFlLAGgBo5fV0Jsa1qtv57/yb+yrv/C/WBZBVgCsOfuqaC24p3doIhdvdJKAhBQdkfiE6cYql1s0+Kgya1yZ5vakKV8kUsHNCqQK07PVZumg4T7fclzvF9D8Ov87TeG4AKm8KN7yxphJ7OWuIMcV9/S51l1KNLfc3RTP1ci19e26/ZX/7m/b+37wJ3nX0NrEeIOhFvhQZy/xQzZpi7NlH0RaQJvIilIhPFTNvrhgBPC71M/z566iXMd25OCKlfMAHr4M4OkAd1xN//X1S/behx+wE4s53o8Hg4fgw3Zc/QRSPkV7CkaEkoER4peUjWI1WR3xR+2xmmIgkm3yrfPrnaTrfTvhotTrGLn85qWOvaKJbMcKNj+LxxNNZIvj1sdz9uEH5m7IzR1JRha1SUoacmdX1nfs0rVN26o2fbzS5Y1tu0Ia4fun8zPWRciubm7ZxlbVtmtt2252bA3fWanGA8bpPNYk7mOermzX2DZtp9W1qzs1u7S5E1wWULHV0DHONTX2qIOl6dk6ZufK+pb3Zg9hgEYtSPMrFpoWYCWwiqsTt1oTSwiA1SudUUtQLlicMaZb/REOBTTYGEGXgAy9Be5aOKeWNXxlcUxzQ9wx4iVuZahcT+9gp8727PDKoo80aNR2fG6OXqq2Iw2Tj4J4J/LqFgeXR0lP9zfo/bwzGgcWKlz37Fd9Nx/fA5ieFfJEXSLAGvipkdpK0ta+WpHAk0rZDi5bMd6zg5W8HZor2AGU15H5GTu2PGursyWbyxKcwzAJfExTnQGPN8lLiOG3IjDxJCixvUqJWh2lzCJLqmtkAfoEwD2US7u3lzRRL2x7ntrEWE0UX5NQoYUMaUSDJkD2J9aoxzO6lMeT9vVM/Opof99jk+ujBRrvhqY5fEfy1hIqO54uWFLz39HWmUKFQCNH/J2xYmXRcsU55AK9JTMAyBKZPAE0mppXtZRhMRFN1UMABqosRcpo43ShCJDSxApx308i2EM08giNPOL6THnWRy10FKtIxDPELpnc9SA66qUPQqw6QkhUgwIOZzo9XL8mbpaEnaShJVpcT4Io0mxOaa20fqNl1bSuKcO7W1u4dHkXLAmarlfSM+UmBBDsB5pAi5WSfeJjH7BHTh1HZoc+H0cWKFcs+5gwjYqQPgziLRHjSYAHb9zzIMGK3qk8KEV5vjMF4E03GETgkWum56gnnQKbVnJR0vEUxy6fO2PW2LYiMdsMcV0lNbblYtqWS3mroESy5E2dv3GEWVMU1JAjS6HBvMGNFB+VT6XJb23hfQKeeayEfGgBEVkEeSIS4nanByC6ewkXt+XHQtLQHoGpAw975LWP+VSpfOgWz9Qz/B5PnbtM4fouz7xbutsa8AJnyFhmnMaXpTL7CB8B5ghTvLNWtfWLG2gegn5M2Zg4ZtxBu/QSXJ+xbrVtm1eu2tW337Res2albMqw3PjD+P0IY4mKGnabVl2/altXL3Gsh3+NCHVa3D+0ck7D/bNYmbqb+POXr2E9NAAT0w5wNMZMGk4TvyZZnSIqhQMtGK4mVvmxqqxSqeQDLmNYEVka1C5y3TetmSwsq/Wr32lbtbrrrWvuAkIS5CB+gMctT3jnnugHQVWrjzqHHzlxwD729EP2F3/8k/buU6vWq21bBkFMERfosRIugd0tDzkZ8Ex1PHr/ixeEZ1EuxV+aACfM+Jg43YrARaCdTpF7M8ml511OjO9Pkp7BqxyIGmWtcmmwqEiA0go83srIbzji/3y1H5Ryn1hEg75GY/JLGsU1ni2PklMLIy4p7qnbNVdibCMrw1Zp2MdlI94cq8VDxyhvsD5cR6bkCShl8mzz8gzyls4VPaWyhAekNApZoxuSKFuNpvYBvAIk7nQmX7yvpEG/d0sq0V2TWlPiWsiONGyjXYYp6zVAfkOjbzPWqXfxeUuWBTwpAGY99XMkrFtvW3enYYNWHS3VsTJAyVFOtb6pIVT7cWKVcadpMQCUiw0BDC4A+2kCZc061QDC3VbH6miG7VrDO+cEGq2yEifoDq7SnvjuEdqVcwrENc1W3pbipnSaPFJJctNcgQ94H2Bx4PAkrZgi091qNDwekyb2ofZcqhU5ta90Azm4JKTB/1aA/6H3PGqHZ5P20KE5+6kf/QF76pEj1q1VubSL1g0Il5CFhUUCeDQpayBLJkWqsxJy9qOt7vL+M87pmhsSz/LEfsiHUmi9C3kLSVmXBdU0BymQgdyVLtYDACl2FUmY1SKoef3if9S8r3F+iUSeY7idSgBmLOAkClR51iEaiK0ywvb6tHUSfyeJvxNXTUpArpbeJ6viiTpTamlL3vZSONYFfF3cOLld6qRVg4Jcteh+TW1pd2+fwjXheq0/d7d0U81LAwW3QMkLBQVTOkKAMGdaKwsTq5YixQoFNHcBNyqP65MnrglzddACup+k9Y012aoyW7FKsWJFXDwtwTOU9sc0qvl3jIBqPNJsecZmcGGGXdwkGJPhPWpU0PJEYuhMZdY1Qw5XbnZuHuuBHpWvio9NZvk/8ZmvU2CEyqIK0BRm+dBq6crjo0sQfZ1mockFjF3ypf2IB5msyql+IT0IQQIQ2o94ItLWAQjgE4BnPEAJ9Bv2iQ9/wJ44eQBlsW3j+mV736PH7C/9+KfsqYcO2qC+bf32rl/bQWFocQtLZhDAnHVROu0xSklAJ86SJk6qKZuyScB7uJBaPtctziQpD1pgUC1Ouka/VxYXbRZXUWsyaIERAUarzIR8T4QEUOl+3aeRwnEUh4SxCy/OE2de3m3YOtZ9pz2wzVrP1raJR3c6dnG7aVeqHbtaJf4kXa727NJu1y5pu1W39Y0t6h4LjkXQ8wVOt/A8160c++KvE/yUrPg1uM+aW5QmZfAyUtSTfqtxRUnPCyuDymVVnSsFN1Y80io2mucUvU/XKeme6RQdj67TPRqbeLf0jhmg0xUR7TtJcMik+kR2dlpWw7poPeQUJjWVTXrMoABPPuZgKLMZJrRpuaVUeuxz9Gdn5iyDOdRq93pgAkGk2NYDkJovUwBU6qHWMfm8WllGK5kk4giS4oJ8yZlZLJStWCoD4jb13rdyqYDrpbn7exrVtS16Qe5Of5i0a+tV20ZYKZkdAMSz5ZK8DuugCGrVOtYU6yiNiOLoxXDTCJ5HvHPzwhs23LmgJ02eCnO9wtmHNao4aW+5ZuqIiw3a1qoN7X24Zz/xp77fDuZlObfcJc2k4rZ67KgdPrDqq3leu7bmfJLQKLdqsdOQn7gWwECRqF8inRz5jFG9UePFulgI8SaKdXSfKFgakawWFYuEHjmybA8cP2Znz7wJH0N+XbuzkcvKq7lQfygZJ9MSPg42W10rHn7Qlh54FBd3YGubu7a+VbXNnapdvrYNeGq2jfst13lDwCJt7DZtvcqWpMl7teq21ToANZm1HMJcyCCgcckTfCIerjXa1mlWbWUeZZqBe0OUstxA8qWmZv6TsPpkVK2w6jLQNpLL0JJGaaX8AJCW1FJfTV/XT3TC3VCkaLX1TlyU5LXawDYmM0DzOVxqDS3ifSPcUE1xeccMUGXIM0mKQBMQLcCofWhgrVjXmgQxbX41EbAmLhX6zPe3+03b7gGqQccauCItruviy/eSaDkKNU4VrDMEBAO06Ri/OFXGPy74NOnWIE7gn7IWQq6kCXOeRmkfRSAtKu2oab9ypQYI/LBLnEO+5fIkqXTJgJSGD0Mnv8qzLEqPALAHyDLuoiUBTcXyAFgzR/UpDVkLkVbYdHOtURDyv9lW5hb3Wr0mQhp89kBDhFnrEGghk/iwbf3W0J54ZN4+9YmP2pGVMNGN2sabwX+GR8PtNTt9bNX+4k/8kP3ED3/CFopx4j00M0G41mJQLKImdll28V3N1YpHpusj0pRR3UT1o9hNTBCoRHXilKeffNIeOHEcC658AjY9C6AEt5INv3W/KHqHRjusHj1mucqcxVB4I83YlTuczlufd6SIOdSwM5QF5rd31KLtdU5bLX6YAiiFIqDBM4mjAeQWChCeM1lllUWAVd2hUDQr2BcfgQluIbjHy8m5PesRUrA6Kcq55xWp7tQ6OK3wlUTTv6fTzed4iB+7G7oBOMpElDkxP9JqSpKdhCb7awAQMtBPqG8c/xCANIfEHmhaX1SANM5wcRrNloY1aMxRAneKgjUJV8aaz5/DHQO99e7ICJH82MCygCcBSBBazvUJOIf4zZbkenzqUnHGmzoFlqGECs2gWEWjc9URJpdmhLVTX4kYKKBpX0BotYG23EIqKo0VE3gEGA3R0OqUCv4lVJE7pBmumlui0dHLq6vsK6ymPBTdg93rhPCNeQd5igt8vP9dDy3ZT/7ID9m7Th/C0mDJYdlYnYLkPSbe9BoWH9Tt5NEV+5Hv+4j9lZ/+UXvo2LKNmzVixW3y1IHvY5spaeX9kucV2ca6A36sjeYVqZIjgdFWsQim0i2X1odWa5WOb22uUe6u/eCf/KQV8hyDZwKKhtRr7r8E2O/3PiJ/nAue+HfywQdtAcu4uHrQlg8dtpXDR2zpIPurh7Cax2zxwEo4T1ry61ZtgXOLBw6xPWArBw7Y6iGtRLSAd5Dz9/p60uID5VFdBGGlngCV+olC56bqNYBF27S7X+xTR0rqmNbgUs2x8vULxAtUQeADnOC8lKfqNSjRG/f3Oxbty/W7W+LyPdLLQ4xDFthXpmR9JIRqQlWsoY4yOKtgQLaUUqgHl9+4X9wakgoiUaNwPmqa8/pkxUBjzmCSGNXnfglDf9Dl2bhqaO0MgqVOTZneoGVlmiX8XItgjTWwEvDmc2gbaRZ8fQ0I1NK4Mfke0hjkWYF9LPTy8W7893aL44o/YjZT1ko8oQJktQb487rPBUYCCtDUCudhj6WJ4TQzUqBR9dzArglpkGTTF/k7eWTefvgHPmGPnjpk+ZTC/K5wBWDmuA6Njc+fyKJ1BKbWjuWtY+9/9IT95//xT9v/4Sd/0A5VUjaq7VoRq54eaYZpjdiOAB4+SQmIF3Kp1GihVXIi1wVOhHKr3id1J6Wn+tPqNo89+rB97yc+4es7yEJy2t0ykd8ixagdSG6gBHh5ZZH4Tnzo8LtNPUrrqSFBLYJD3Gq51jFPGCViRqUR+yN0J/lBYSbdaujZ4mmoS2+sUH7JtRpQQh1LzjSESwF6z2o1LS9WDdta1RqkWj38bjSa1mk1rQu/NQVCywd34EUf2Rj02x7vqpFjOoXY/M7Hou8F3Q3dIAmqBN0ckgoRNHeUkhQUQ2J50FFAC6gnP4MGlhCr5UbLEmmOOyVAq3I90qdR1BrCnUKLag4HUYWnBO5JKintgoD5+C8JQjOkkdYIa09SC7BxPUASILO8WyNcpT1lgTL8lmaKwCptRlV5eVyz8e5Go2FNYooRVqmA66B7pGFc6wn45FHDcVR+fWJC+mCM2yEAyV2LWuz0M9o6IRDS6NKkD55YtR/9Uz9oj50+bjO5pA1buwAU3YI/H5tZRq3hkjbhqawGvr11qpYvJqyEwK2WE/YnP/oe+3/953/V/i//0Y/aux88DHDqNmhhhbhe3xAVSOR2TgfGGi6iBgFXbvBC+XctPiGV95WXn7dqdcc+8b3fYx/72Ees3dIIADWmwC8JsbbwSEkkN20IT3KUQesojPAkUtRVLov2p64qiiUBkpbMVcLBRkG0kQ1+oyh0DPUzkRmULWAJ+VLLnionKERXtrJ41ENKrprWSsgopsj6jFsteD6rIT0zYTtXnrE5tguzM7a4MGfzcxWbI1XKWOZiHouqRRnDhLci+wVc42JB8fCdk1+r+3EB75ZuaBwQ01VIkRgpTSRfUotse0uHfnPN9tUdq27W0Yga3qgQHEbLzQFwwkCKmCWFdKlVXMvkJoYtLAMaiMrOooVSGuznS+c2MFxNXky8wrYv18bHOnXMl1ciPpB2y+DqlSmgljxqo3HUUqemcQXP4NfHkIkBVDvSEoAAJtjKasbQWh00EUCDL3PzM1ZKEd/Iz+ZmuWDb21WEE7dNLiLA6fE89URrNmRz84JdfPkZhEI+pbR00DUSMwlCFkt54uhB+4kf+ZQ99fhDroEzCXUIthEwwJidtQ4xnfqR9GWBTKngFnhIHKN4RkNVElScPuJUyKbt5LHj9uS7HrdTJ48RI+DS8mbFBhqio1ZBtXgJ3CqXNHVY5jXo8D2LyBYXutNoIRBxq+3s2kc/+nGEcda6AP3a+gaxJcDjJjWG+BfeeJaSFjJXr/yH/+SnrLK6DFhkSfACyGujuuVDbUbUT0wDfZ0nAoS6oLH6k32ta5DRjQmt4ZBFRkLnKFERgKFicCerbjF2bXluxvIZ3P5eG9edPJP66ozsdIJV0NYtQti2tWgHrneHpJHasshR5zUMsTpWVa657rtT0v3T+xTMB9/eTeMASmc8/tK5K4HfME5C58M7UMnedEccoaBaHXBjhL2QycD4JloMkSOgi5EaHbQjL/XF9pDd2CDj2lEhUTyOiR81fDSqev6vx0x6Hu9yGZdW8qqHAKzAKy0qjeTBIIKeQerrVazRAPeA4FRN4rI6OBaWTI9tfrbo+y6MCI6eHfNpDhoRS6AMHmuAM19OW0lWEgHJsK+hQ7U6MRhBvb40gEK2HhjscnzQ7Ni5b/xb+0f//V/zPhmCMRJ5J2lZJX0V4eiBiv3kn/5+e+rho6YlfnMayTsm3vMhLWPrpBYpdw5eEFuQt2F7F1B1HLgCOcyQxFNmbGZSgTjx3hgnbxgHwBnrUIZqtW4bGxvexHv56hW7cOGiryyzJcCPuF/89IYBracg3iLosR7hKEKGEBxYzNlP//mfsScef8IuXFmzX/rXv2Zf+uqzFssSPxLP+RK3WLaY3HGEdX23Y//Pn/05e/BDn0CQUBkIsj5Dcu3iJXv/d323K1WNo1ONgVloomzZupWfWJXWuGCdWNGy4767nhpdMO5Tt5mcXVzbsNraVXvqsRN2eD4D/oiT4etoiCejuvUnytKHvWk3WVYStJAEyEncQrnlnnZ5fk88ga7LFCR5mKbIwooiD0XdtqDohrFqc3MdS6Owbh6rNgUc3CruV7OlOgJni0WbRTtKx6p+PXNxdcaF5uZuB5RTQJGPLibjUjIilUuk5ylLOBMgVZ18e5md5NVJVaBrAqkSQkVoS274p1zI78G6qWKm7nXSe5T0XglkRJPWrx4bxP76U3VUaZqV/kgO6E1qElUcobnprz73jP0Xf+3PYyHQOIM8eUhar9b3+OSp00ftp374A/YEjDQNnx9rCL0yoqeTX7RtJwYYvH9J7whg03g0HwbjAjB5uVesGKh4Cl7JiiC0Q7cGEyUjiwCvVR+yFuubO/j9TdvcrdqlaxuA4opduXINQBELoCjIssdY8p4eOmX21/9v/7EdOHTCV1H97Od+337l3zxjjaYscR7FpHYf3tGpoWQG9jN/69O28NTHLY0rOKgDwO0db3wp4jplSyUbUdl9Xa++K8qU0ohu3LM0MauODXA9mgOsa27FDiykuQZXuaPRJxmL4+5dRAHsXt2wJ04DnDlChN6uNfua92POdyePLcmYeOEVJL7K2kZN0DG3EGro8S88IBy1RtfaqkBIYAuKGm+I6wQWfcktGATsIHI+IM8CvDyrvIScGOu5ix17VcA5XrDZCXCyXDuMlaw/+VrBDcARvhU36MsCc6WizeNnyusbwTxwQQZU2RONrsAbgfBa12FtJrKgLO8JsLYUFgaopeo6+fkoQf5bNwssStoPDJAz6IKIVr5nIl/qlVebWkR7e3v72vpUYJinxgX/MgMV+NLzX7X/6Gd+dPLuLBoTa4xGe+TIkv3YD3zI3v/wshXS+i6QQMNWw080CiBRRLCy3vwbSIoJnsHfoDHDMWeaKNKIAvtkf0yMMcZVFUlh+DmRtg5O8sRWVgc4AiZiNa6TgtKo6g7ncvixnd2roKhtxw4tuyuKx2ONUc7eXmval77ygv3+V17yGDCnISy4YRfXt+2H/uv/1UqPfLcl5GJS5VneKU9Ew1t6PL85xE1CHrQEUxrNn8bCZuV1yFPAh1Zr6nY3Z/HcATt6uEAsRzwEMLLwZZAbAfQLVrtatadB9LFFeDIkDh1qsUs8BDybqJxRK+Z1yzPhzR5wsOTUWWhQilmjpRED4qkkSPdrV4orKC/drgYwtcipoUTxo+pIoYj6mjRHSsB5ZTtjR7E408DpA5zoMx83AMdbOSi8Ans1hy7OzhFjcArGpagjzYvwwIJ8KQNSDOITFt4DYXkdoqAdlPU9UlEmInIDTW5xCteLMdHVEbt0ToI7ffXdk0zxdfm9iaLjKk8HK6pWO8lyYLDZ6y89b3/1Zz4FX7r465QVd69cStvHP/Be+5kf/2ErIyCpTpN3hDz3cCn7WOKuj3w2K/SbllELJKSKvZ4P1SL/XRAkIGyDdt3bH8dbuG9q0Qr5FC+i+x1I4gfXy8OX06p71P2kUz54FCHXYhzJNrDSu4iTvPEGSswtWBuX7qvPvWb/+DO/bG+drVOHRZRABeDU7P/xD/43O/jkE5hqtS3GiU3z4qJ3enewKimCeE1K88G0ACcO03xlGVlDgRaX6cLWwDrjGTuymrWZPJpdLvyIWDUzwOKct8Za3d772EN2conwAAve1jeSUJDKa0Q3A0cuvJJg4cOa4LkUrXjv/JFyBiR+H1s/I4tF0jatgBgGqfWuP2mtVHN0Vo0ugE/xzj0DR0lNuwJPAT+0ovk2qkAyqg5FrbOlPgK3LOQSBUTAqrWg22QIRnKd+6Iw0+v1utXRk1XJkS8X3hWOhm2GAvnX27BoQSuH64Kg8DwKHYTl3imMkdqrjb09UWCwNPHOriyGzLrC2YRp4tmVl37P/uf/4i/D4C2LZQBGv22Ly3H705/6pH30u99jaYL1tASGWETvUSegBmpqq/znO9uW8X4c3kPFhFdKCfiOv09bb8GDHDByzfg5Jj4cJ9DUlFtnxRcUvFe8Jwff5Jl+gXa4n62SVrscE6ylwG2qOE9FKfaSxyB/CJDB82u1rv2dn/u0ffVrW9yvVX2W7SoC/fd/7Rfs0Q++F8vLi6QBSN56h1JVZ6NGgkTTNiTUXr+Q1z/lazQG9srb27bdydjB5ZSVc8RPXYS6j1JJ993i1K/V7Lsef9hOLCsSJUgfFrCa6mPzR3kZvDz+K/BErpdkEYFALtXNQeG0JentUrDuoYiv5ENuMlXrSTKkOMjlCT6MsJKyMAJqSHLlBJzevQNHZksolN+YQXC80xGGwS0CZh48ngBnYgG2dqq2s03ASyCrvgVnomsJMZVNRNKkk0p2MKCteDlPCD7mwYPLNjc7wz7aiwu0lUvjYFHloNVUf/dDeoQEUoInih7jlUySdtQcj4vXttDYVG4q5yMHpCjar3/NPvf//a8s1rlmqZJ4MLZjD8TtL/3Mn7NTRw7gxuCiIFwYHoqsCiW5ttMbOCjQKChxIdcxzrlpVtKxqf3oXgkFx7y8cjEogK7wKtKfUAykQa1abP3ZHIxAJIAKYfB4SNCQwP1xNxMQadVLf1iW5wKebQzQ3/5H/8R+50tvWzZ/gFvn7MLVXfu5X/y0Pf6+J+GDgML1PNstpn7IwmiEhR+mphBG8UqjCAbSF7xCy+a+dHbDNlspO3wgZ/Na6RiLEx8BnFQfi3PRXbX3PnraXTUbaonbHF6Nvk3kpXX5CXUUQBNRsNwBruqGcJurPDpvSCo6Fl9TYMgpShHXleMajqMYUV0bUtJaUy6NnPuiM1ggAUufUbwb4IQcTkgZ8l5n/DKZ/E6/Z20Y1+ahDcyavn6meTJaHjaVL+C/oiFiae/xb0sjaV4OgaaPlMXsj1LaThLHR0mO4eNqRIBG0moc0zCR98wMiQ18SLqa/DDXYZvhmBbo0Bx8rVcSRufeSwqjjtW6JkFki2AK2PodHctqWHmRAD9dtK7yQD4HuCydhBby0IqfnEKAk0OsCgqulFy02ewCPrumDcMTBIngh0oTSLgAMFFTJL8Tn1aVmEFgSVoLm/KGrSJISRrVINA4SSDldqgRQRZGY43RpgK9wCGKwKbPKFAfmptkKVJ84i9LtqmPAVZQPPDr8aFiRc7ri14ltghNo0sgj7AvrBy0XFHCj8+PaxjL9ngUvEKJKG4ickIuyE+C8unziljdfEZuYBr8ZeRcOaBGinsmIxwGyI6anpW8QUP78Eny7QE7YNNWJFnTQFrNT+oNwohnjcmLtpJDrRSq1Gx2vPugqs5QLGgbQVfrpYClZ/oHriTDxDGyMlpYstrp+hcWNncatrFdt61qyydEar1rrczj6xFoXOUUOO9EIecRyYVQkAUzNVI2+MlcwkOVMDjes+4D8bhGzZ8SPKFaro3806GYTWawWST8/RuSju2lIcAIQ+h5h1pbqHwNcNRWHxLyRMCqZm9NhtPQm3tNCQQ/lchaBjckB/iybLO+DfsZtt5x0x1br0mlNRU0UoY+QB0gjGPN+VDzfBqByVqeew7NPm4L2RO4QDMEz9zvsg541HYnAdfugOODIuDJ4N6F1OV53Z4mW2kEctJ6qGf1c4x4pvipGawyPNdJKCXOsRgpQdJ3TNVRpoSJ6/Ua1u4qIUB9DX1CwZGPBnmok4cOz+1S9iagGeWwNrkGQrplrc6aNdXJnIU3pQIW9CGbWSpaY7BlnfhVixeqttnZsS31n6CdhylctHgNXbBD0XZ9ZZp6e5fUsAauTUfDZQCUxRuIUA1e6atzcR97phHNCt4d9AKhLIUUNGWVkKuxQcF6EiXii2pwLKwvEDp2NdBzbxsUh7oodK0DZSLtem4AqIA49kmTNW9ab9qVtW176/I1e/PiFTt/bcPeurLmzfKX13Zss1qzXX01g7JqasLdUugA3dE6NGQAJmmIto9jcvMIiCiU5utLa/li5So4/3xIB4VrNBveMSdNom/maLxUAJ+Yo/vDNnyvUVtSwGdQhGyVtDqkTLTWXoNDHle5H0phwmhZGCetdh/J0DrUBPtoPZlrGQiSn8eMxwCojP7WTo1yEGtlNElKwSLlaW/bS1/9Nz5IVB+cKhfK9tGn32vveuRBS6F5Y2oBUp41wgClUe/mbL2esiu7KbtUjduZtU07t75r5zcaPhz/0lYrDLvfbtt2q4e1zVoKy6EYQc3P4r+yrB78EeLoU7/Fe1cw6obVKjgZH3n89vqOvX1t185c3rA3Lm/aa+ev2fNnzts33zhvL53bsPNbMVur9m2n0Q+tbfBRbor6PNQ3Nka4tIZDrdqzb770hq3tAsxMEUubs9Pv/QEs00HTt2w0WBMnBhb24E2BbdJefutaeDZhk3+cF4ams3HLFwSQhLVaQ9vcVdNw0kpYs4yW5MENi6Ncx9RztVG1bqNrB5cWrZKX8OMKjVFO8F99iMqj5M7BhCXVYhxxgUwtaH4sxDq+eInkS/LKvzhWUF+4GMMjNavX2kPbqMnC9K3a7KGcNGgYPdnru6ymAaG+iufjM/UM5CzqAK1U0pZTB2hfU9lVD/CMvLyzA5Sq2vMlw74gFB1LIhg+f4UK1BfL1MNc3dUwcjQPTNBsPF/xRULAPdqKvOVF+1rfjIpT3KQny0f1WIbfh1dXbH4ODU4FhONqJAh+bPSsKEa6V9IoA18x5iYKLlsCzS8jkbTXz11E68gfVmekKgCfe/uc/fP/339pjUtvWhngPX5g0f7qj/+QPfrwEQzMDhmT0sF9aI/t1Sub9o3zLXvlSgew6OOxDUu1Ltm4uebvy+bUsUeZyEuxkLbFuYo9dOqYfexD77NjB5eslFXzKhWEu6Pv7shFwuugsjS/Sf468SUWaqfWs8//7lfs97/6nL2FFt2tA4aCOj+TKLIOvjx1lZ3BslV89uxiaWhH8ETfdaxo7z51wB5YKdvc3DxeJAKWqNiV6tD+p7//L+ybF3asi5taGxftp/6z/97KqydtLte2D77nuFXSTQR9xwr5WUB23i5fGyD8OILZspUQ/FK+b6dOVOzQEo4lsUytGbcXz27bRiNpxw7py29wmBhmiJXtYsEurV22ulrVHn3YjiyiIHpNq2GN1SFtg9DyJ4pkKMTNEUkB4j6yp9YwfVJew6ikmMeKa1BiaqB54y14A3AuXKOeAJNGHmjemPqJatvrNl9K+/dpj1CncwW8HVxNfZb9blrV3OJcxO+TSMqShL9sXUaD1SFHvu/NAQiziqNWDA36lA+rYF5GSSbXR7GyL/OsJuwULoVaANVRpQ7SKOkaHdfoAs05KRe1qDaVD3Dk+IVGVoeLMyj8jXJ4b0nhw5BgWbiV+6kPFukrCANMnfd5SKvHxzC2gaWhLOp1TyHcubHtXHzB3n7+c3hLazZq1+2hBxbsEx//AHF338vasZy99vam/eJvftk+89nfsd9/7g3b2L2A8Gzhpm0YytoKmpAFM+Se6B4NMlWfUXO3ZhfPXbL69nl735OP+gqUqVELAWtZijxI/8rqJbF0fSQqRWyYIZ15/W37Z//0F+3s2V0KmLBypWK5bAmLp3fggmIx8xIofcGbZ0kYttZ27fkXLtorr5633Q5x3cyylWeXXEmo8+/NN8/atfMXjSJbJTdjD33XJyxRWiagb9mC5juhleO41p1e1s5erOGYzeHGVWyQCotHynpnKVfZpwXkcCNHblVbvbhVZvTNHmoQxTtG4aouas269Vt9W13G4hSpGGJEOEoZkr6KjoZ5Ken7q0mfwKZ9jmVUviwywz751jSEjJrcKa/md2kWqJShrI3mCym26aB5FRak8mVXKmoojMXc5cCDyPsSwEWeo2+hanTD3Vicm4AzId/hjxCszeSfL6DnQ09wcXB/dBly4AXIw9jZmbLN6NPpGhJfzNtMKRu2gKJczk2OsS3tbSuTrUY8uyvs1kaOSwBOsDoK/vQ2GeSQvbtPACZBXAZAB55gItu+tgiy7/O+pCpWo36J2+fKKSoTvrbW7Znf+CfWOf9VKxMYU5/2+GMH7InvetwGmZxVx1n73Zcv2r/67efs2VfPAcK0HVpN2fJMx5YyXTux1LNyBkFAixcAjj5ApeULY8QjWrNsvhS3E4fK9sipQ3bq0LyVU1QSUIz1dsk3Wlc9lWqmAjwpuRYUIIHmRKwsEwdEVHgurdEM0gj6OHHR5irzNleaseXM2B4obNuJBSwOAMnlAEHuqNXHs1jGrl3EGs4dPmSlWa29QAC+s2mbZ1+z+E7TMrz32rBosdKqHVqctdW5WR8GA+ThVwIXc8Y2WliPZMWHBQ2GCHw/tHCViJvKhRIAI77gWa1ezD9lKEUUlys2BZwOXsqBhTkrZgY2wMJquFO3SzzmfSxoeE9akUar14TfUbzT64cpFrwSMeUPDoXG7SlOUePAbquNqxhWRlKjk0ZVpgFOo9X1MMKnkBAKaDF2LTqvLfC/a+C4q/a7b15lBymbUHCNJttJ0pGYt3urn0eAwhagaeSTuy2auGgS7nB95BqFrbdm+XldsXdO7w0A4ayDQ/tssALT/TZRw+M9E8/Rsqt6QsgD7JFCmOTV+0YAaZJyjdpVywGeciZu/eaOvfTNr9p/+zf/W9tAc80VY3Z0KWs//kPfa5/44JPeqFDd3rXPff7r9jYWZ25x2XIogUJhaAvzVEShS/yEFh2sWp2Yp9PWCjtjqzdq/hHbfCFjqyuLdnRlwebRyDNytQZNqhfAqMlYCkqRrniLlfGmp1EaU10k/1lih5hd264R+GoMGy4WApPNY7XzKCEUF7oKIdjEfy9zrmI7dX3ePWbV2pbtbF6wVuOcPfHYgr336cdxs5L25lvb9vf+t39qL72CkMZztpks2Cd+7M/an/2xH7HHHyaewwXSCkO9RJHYzeyrr1wBODnilayNujXLDGpWTnft0SMLdvL4in/1+oWzm7ZRx1U7XOId6usquKvWSQ7cVWtsNO29jz1sRxeliJtW72fgF0WkzlxZ8hdR83qK6l6xtYRe38BR/41mlWrhdylwNRBocK4+zb7Z7NpZ4r414rcmcVYbDakVmer1OgpMA3G1vHIbNzZph+ZLtjSD5YHVIPLuXbVLW+HTDsqj51N0fWdCCJtbHETPkaHfCKIXBG2q5V01n12CGqxGuDZ83Vlb3C+BQf03OuZJ7IA9vFyYiV7pW85NAze4jOH4PSWen0YAMwSwWhA9iXZOAXjtp7HWWjQ9h5YpUhELiYGVu1WLb7xl6a23bcnUkpS212tF2+kGX/qxU4ft4cNlKyTblmhcscViyp5+5AF718PHbXVpzvIZlQ/rgDYbqjm1prk1Y6xAzmbLBbe6iwtlO37kEAJ1AEsta50mdlCfGfyTfCAAnnfNa1EM1W8gJAiKhjxR4d2B4p8u1mdA4B0HqFmsityNHkJX45IdgvUdq8XbttNrWR8gzszncYvyduJgzJ54MGdPPZS2kwfaeAK43NxzDvB98cWz9lYLfM4s2Z/4wIr9wFMVypolvkFAqTcBX4N6Y2jn81ffApC8K4lrqRTXaO+Oew76upumNKzttK67avp4bnDVNP4OBYLFUePA6uKilfAPB4OOWxyNQgFFoTGIRLVN9tXKhtZHBtXIo2kvakASwLwhAfmQPLnVYBvHbWvirmnsmz68a1gKdXJjbHy963Qca4MeKsDjA3MFLDhAQpYlw9dqw7uzOM+cuer9ZdOknwrIhPgguAKMOispHbULZPitgEwwdUfOC+aka/0JIvb57RpDzWm3IGmL4IjtT8rD/ZEAgytG8qZz8qvgEXa7bEpYUyM0fa9mM9awbHfThsQcmf6O5WMde2snaf/LLz9nn//iMz76+cFjB+xjH3zCFpcXbButqvn31XrHNVkPF6dfW7fu9ppZU5rTrCVdQpyjhhMZjTYujb6PWpytWKlcRqhKdvTIQV+t9METR+zIwUUHSVpWh0pUn0gqnUNoE3Ztq4p1qfoSWfpG6cb6hjXbbWu3GsRALYRS464QOgRvjMSJZZLDmNZyKB+wZGHe/fk8qrVciPun8jWnRSvHfOWb5+yrz5+zaj9njz38mP03f+Exe3iuaW1cu1jphOUPPGHxygNWS87YOiLw/Jvn7PLGBmUB8FKeCO64P7aVuWV716llSw5utDjlvLwVWZz0XuPAesOefvQRO7JI3fQaVuulUfhjj3sj+QnegShYHDUAKEnA1cikeDFHfKMp1n4lbrC8CA19WqsP7OyVXZSepDZrjTYAIKzQtJY8SmeGtIjiObE66yu1ppJY1bYGed7lyIEIOK6gJ+RgERi0jZIhBSTvwBJw+KshGVEHl5oHo3Z1xSYBQCH5/Q6cwIA9mvp9C3T4YQVz90UTi+caAxOvDtUIOJxNaF5JZ9eKgKbQ37b47lnLt6/ZbKZn4+1LCM68/fyvnbFf/teft2MnTtu13ZZd3sQKVGZtl4y1hj0bqb8CDTZD5a2CllWCtSWKhWxalRDlcr3qnxYplOasMDeHZh3i/+/aribYNTVAdIjlyNqDp07Yux592A7hwl28cM52tmoUPmnLKwdxuXL22utv2dk3z9vmDq5ZZ4iywS0hVpurlElFBLdrzfqm94YfINZcSvR9sY2NQcrWcFc2+mncobh10PqYUtzSJC5iFre05cF3hbxdxvX76Psftr/5w1kE8g3Yd8gs85AlDn7IEkffZzWe9cqlLRvh3r342ss2QnCSCX1MGVDw/NnKAXv3aVxWq9qLb66HVrWJqxaAE1rVLq5ftcZaw97z2KMOnHFfrWppLAmyJTfV5Ya/KO8glhO5EpCoS61EqjPZJJ6ANw5IJsmLWsY0F4l4rA1YvnnmsvVTJSywPvwLcLh+1G0Ynpllhk07uVK2w/NFruzy3AT1pEGedwmcm2OciAJYpveDeyUKwOEY5fP+EYASxgEFivRExAAXftnJdwAnkO6/FXCc9svgXZAspcaQ+b4zn5zDdDV3C0gay6Qe6nKqZ6X2BUusvWDF1ltWzmn4Ba7WMG+/9tvfsF/97L+1v/Z//k8QdsP6PG/Pn3nRVh5Ysccffxh3JwtoCjafQ4DLcrkI/tHuGvr2y7+vhoOzNu4Sg+AWfPxD77H3vOdB63Wu2u7ONZ8W/MprF+3cuW177c0NK84tWalSsVY/tKxpbk8cLd1Ge3Z2q7ZYKdgjDx+2E0eXbHZh3grFipVnj9rLPOMLv/cNawBK6t8ePFKxn/j+J20ZALU1kQ+3pU3gvdNCQHGjtBzwpbUr9vJzL+K6FOyTn/xTtrh0wH725/+JPf3Uu+z/+MkHbT6xi3TNoPBmbVDArXz4g7bRTNpLa7iK84ftG6++ZfFMwYcbJQno072uHQTA7374KDwHOFicNYBz9EgEHDVHY1WyweLUrtXsPQ+fRnBRyMQ4DVmcgXpTpKAjioCzR5IVKUMp8DTWRn0xwV1Tq2SHZzVQeFkbZyv2+y+ds7q+tEdsliCv8oq6zV0rpQa47017/OSKrVay/pUL7LztAtxX8FffXovZ4eN5q8zDf7VoIpvDMcoplrcPnypNOkC3GwEYN6Vp0k9vW5N7JkFUaSYlkhZQIW6kcEcAyiT5g9ndJ2kQZnTHvknn7yOFdyNJ+NcxJCqhZlNcsyyM0lmd68VRP5Qh092wbOeKzQz0CfO+9ZJltLOu0DdxNuyT3/uUnTy0akeXDlmvfgamZ+wvfPIp+67jCPPynB3PpwxjYcuz3FQq26999Zv2r7/2kl2oDmx7t22N3R3bWX/TnnywYo8eG9kjRxL28JGcnT6yajtrxBlnNu3kSVykx99t7/ngB+2jH3uvPf30STt+4LAt5Oct2dqxh1Zm7M996mn7+HsP2qMnZuyBQxUb4Ir8wi/+mr3x9oZVeynbxU04v34et37XPvD0w3bqwBwWKGZH5mN2+kDS3nU0aY8cBewFXNPBun38/Y/ZD3zkKUCWsstvf9OOH56zEycfsWF8zuK4ifqOjT5Zkl6esXq7ZVUUziZCdKket352CTcySRzQswJ8PYJLdmCxhCcyIsZR3JLAHc3ibqoe0yhZ6oPgvEqM02u2iXFmbVagGncQD3WQaqxamC8TUhj8GyXNu1GNalUjxdXaqoEqAExxuKayd92riKVyvib5LpZGlkQdnxp718O91ZRwfQ9odWHGSlm8D2KsNu+vYYW3d3vWqY5sbiZuBeJG7AJ5y/BHsU3ajiyohfGPC8ltVKwFWtR3E3rjw/ZGCpUg0jixNEJz9OCKff8nfgDwwDBAfvTYqh0/fhINTjxh6tXOcTE+mYL7jlYMTVq9WrMvfO7XrbpzmacBUlzCVLxgF8/U7ZnPnbNY8xgx1OOWah60mRFaL10ChO+1v/4XP2p/+VMn7E9/IGEfe1fSPvhY2X744w/af/LTH7M//6MfxKJ1rJjvWb6Mm5ygUtNj+/LXv2gvvHHGYgUtz0SchYumxcg/j6W8emndhh20MDGcGSmGm5kYWK40Yy0C4OWlh+zpJz6OQKo/I24f/57vsqeeOGLFTN9yxABqRfWPSeHaqtlbX6/LA6ba1ralNXKisW2JTtX7ngpq1i0hXHgWHhvzxmgbeR6iYDFEUsL+13/J1ggEnSb5b2Jh90k9ADAiD0qarTHoEkAo9ZQ0HAwvIollwD3Two4drI06jTU/qdbAg+hr9IWGhGHFOdfChW2ppY9rsStk7u4g8e89cOQyKr5RHKEq9EYOKkeCELlqAlMIOrFMgMOZR4WmCLLFzrlKzg4szSP8qiwF4GhVwJRI520Ta92iovHrcGsQLp7RaaHdui2r7XZwTTT/vWHlIoJa55pR0S6+1SS+OGrDWolcLFu8hebe2baPPPWAPX44YQfSF2w+9ooVe69apnPBisN1Wyx07MPfddoG7Q2ehwsV5x343VLgF69dMTwMfHAEA7FotBvuNitU6KBtm1ohSINPk+QTN3JEEdVjdO1a3TqdFCBZhEfEaWj6dz/+gB07OkOA3gZMXa4foqVhBnGMDZPWRkAzmt7daNqMWgPhRZ74Lpcg4C6oM7aMDtFgWm6dgOYd+wDHXXOsfxBB2RnBRn8T/rW7Ym7/5ItWpjLXUyYZUjqRRjFp3Fs+LDcGWNS9NYqlqc6sJchzintV3/Fk3pKZkg/N6cLANjFffzIAV/m7G1Ku//0n1Jqax72BgX1ZGV9Mz1vZAMyEDQKTGjS1OgBc5FL8YAQxjlD4slgIl0ZExLAgKweWCUgL9talNQJPKkmCoDYsnhnX2tlcVypwS6/Ic5YR8KKVFxesnWrbHL5zNXvVepUt2xqftWuktf6bNnOkgHsIsKn4/oCKHZRtNrlgmXHehq2YJWMzDrxBv2Ltdhn35yDWbd6OHHpMrdSW6MWsQF4WMhXrV0OHbSGTtlw+bzFflgrBIM+ambqmtbzJ8tLiIsIWt2yC52Nd9F0Jw5JoqSWxpY9QdlNl6wGuXqxCHCLhK1in0cNwYZG6bazyyBs3ZmbnLV3i3YBWlkYNSwJ21DLrVh8uO3CoDwcP/6kCeCa+ARvu1ZCYNPHgfoni+Io7WX1BTv0xpJRGXHhSxyYPU/PzQBbTiFVTKCniXMqTHOrT7i2UHB4ASd5EHitZSKdRFCn4e/dw+OMBHLkJMMm3kFbm1OqTWrHEXRDI2x7c+nDM/VnVOgexGMPmFnAa2UgdDfgHqVTfygTdXVyEa2tVAuQZlLE78a610gBntli27/ue7yZoTljB8tavN21n+ypC3LdP/pmPWmFxbNvDS5ZZHtr5nVctDiYK8zlcBw2MxBUZlRGAHDEzsB5Km+YQioI99vh328WLNWsSdHfauBucf/ejT9p73v0uS3Z71tteN9vdtlmQ9D0ffNLm5ko+bCWW4XmCBS7ZGLdQo4P7WOITDxy3BPGLrzLUqtpIK56qHCiNISZLzcEjYoVuomTNIWUGmDG0ehF3Lcd1coLmQOjK4pwtyioj2R3iG/E4As114EzIpxe4ohFogqXXwu4amaBYWRO/XQndIsWoy5D0mzohjbGkSpraIA8jA0izciB6bf9CRLLftKVSxk4emLdZgAfyOV7lfAc1OQTTQ7yDXpCDu6DrjQP/3pJXmDrK0EL8DS4sWypLTdPa6rfa9tP9uvvrGt+ltcSoBZICTTRruozWynvnTEw9p7gFV7fqBJI1m1tcstlSHhdF6hM3AUCligk7fvKIHV1ctQwCOZdo2QcfP2Z/6Sf+pD14cB5t3cLVydv2tV37xlees4dOPWHHDp4iq3E0LsKJ1HmjCxpRUw58GV40cSKXsd//2pfsyMljgBBNiRAsr1Ts1NElrNuWLRT6dmQpZX/iw4/Yj//oR2xOI5u7WExZG01vAMSNQcy+8uzXidGa9t4nHjbCErxXfTpRg0pRESgMzTFSH9cgBmiARy85Z4n8gtUxRHOVCkH9gh1erNghdawu5O3AbJ4gG0uOS+gfrcKUrG93rIESqJQ1nkx1gEWnXEMsQK1esy5W69DSss2p3Z47NP/KZ/rGO+RHQ2MAxz6JiuDpAGYCHAeNtiR9PNm/Vk216vP5Vy5dxNHo2YGFip08csCOH0jhXsYsPWpaqt+wlZmslYgT41gkWcg2AN7Z6VqzNsaCaq4W7rD0rhQscZC2ahz4YwKc0JejfWk+gUUdoerLkdFVHKRvfCYGDYt16ph09QAE0EjDaZVRDA/bBUWjWJpthDlrycKCvfjiSz6e6sGThx18o45ad/SNGI3/a9nR+Tn7yJMP28c/8Kg9+dBhe/KREz7VWp8jVzPzhXOX7ZkvfM1+5FM/aVpMXi2WWuxdAy81p6WHBZL7qG+3NDtUNhr9jbOvISxDO3r8ENZiaGAJf39g73viQXvX6YP2fR9+jz3xCAF+WWvFyQVTn5UWwsDiJHP25oUrdvbtM/bwIyft9MmDFlfDgUYm4HqZGjrEKvl+WBw5q82RVusp4UEuEVzHbHZmBl71bJ6wZ7mU8qZdLUQYxjGKXykfAnRNLYkCzvWxamHkwIA8a+SAPg9zaGnJZlAywIl/WEP+xRMARx6C1P8+STrEvarot29Vx6pRtj2tl6YYDUuG1B8/fNBWl+exkkm3phqFfqBSQHERYc4Vic/Uj4R7SmzWRknt7PTuCBzXv3+cSDx2GAk4zn0cmLh39SIsOUsUF21UWETzFH1mstZx6yjK1GxN+c7crXlD+s6/3JOHH37QXnnlFfvas8+6po7jsqXLBfZ5y6hj5WLNKqU1my/telO1wKTORk1yO3921z7z6d+xP/n9f9HmZ4lX9D587wSaFNGjMjsEvfj8WB2NMs/n0gTgWfvoR77XvvTlL9prr7xhfbV44YZoqE8m2bOjB3GZ0KK49tZt1T3WUrAuTKTSedvY2rEvfOmLbs20NO5IC/GpNVAKJrQZw4cUVlWWGEeWci4vztuq3DC0x2IZDU1eKsmO5Ya7lmpfs3Rv03KjHUsPayigJuVWK1zof9EKqRouMyADWmBQa+hpqWN9klBxYbevJZpw7bg2gVTHOaf5PoORtvsnfX1CSftDhFkjnzV+T1+yHuHuaX5VMpvj+NgWFuZ8qJRUpFpJxQhKRx2mbJFyxcUbfvskSrwIuYoaZe2d/JMulqifcpr+vbc4cs2CtSG5dAg0imPEShgm4UBTUiWASqia+N+Yd32efsB9WqkfVmOJUO3ShHLjYsRIgOnIkaNWrzXs13/1V+z1F5/hhVkrpNRC08XNIvjEr9ZMzUa7zjvVHNq3V189Y//iX37Wfv03ftN++E/9qD2KAGsYTJ/ANQ5gNA1Za9tJdDU8racRveRJfSO97gANvmDzcwfs05/+Z3bhwjlfxTSfywGivvU6uFsxjZwmPiIY3t3exZiMbW1ty37pV37ZfvPzv2FHHzxpn/j4R60IEDMIRQLB9l5TWTsApXXopLU14HKojs/Fk5aZO2pD3NUE8U5aX3ogY1plVa0San72zm+EUDGeJot1ed52fUC8FkcpAOQMfIbvGcDbwyqtbW6AKjT/4rLNyFXDgnaxbG1wrP6bsFqN+H2vSZnHssXDuDKfsq5nAQZ1wCuv3u9D0rdc/RMryIKu1fdmO/BgGxeztoslL2LrUx332JM8RzKgkRyyOD5y4G6+Ov2dSvpatjSnkqyNXLUBmklTABREakXOFJYhRWUKMPqeZaJbs2z7os00znFbHYaOLTuIW7YjXSWfDUWDdWonivCRY8QP9c2r9tZrL9mzv/+snTuzoS+Y4OKY1SUIeD/CUoPbpPnxHOx93/VRe9fj77ZDK7hKAHfY1VfaiLOwhLGhKoYbAJF6wTXvKY4GtXjOWi0DjIto06y9felte+XV5+1r3/gdu3gB64TrND9bwlKVrNbYoLIBuHQA98xUzN77gffa0x/5oC9tq9GUWnAjg0VIaiQkggtqrYNL1dHwFU0ZiBcsXjpipYOP2bh00NSarksLMkyUQwMfFReJt4rBNOVALZUa2t/otOzspYatN+J2mLiilG2jb7LEHgCc+89ceMuG9bE9dPS4rc7hKgPCYbLsk3UVxpCV+6LQCKH6VtHDU8IxZ4XT5KfLg28n12v6SZu6uHKxbZvXYrZ4AF6X6+51JOB9bFzi0Rn70OnJIM9/34ETMSzMPEVmNJsS4IQBnn1cDGIbBEcLpGsFzRhxTKZ9xeabZy0h4KBds6jfbKvj8Y+NkUQAM8Bn7miOTLbEc2JUfrBineoWYOsgNNuWmzlGlIRLMdwiAx3cqRjaN8e2iNDhLspV0jMJVjNqqJCJVCOEgbxhnceRVP9qStf0Alm9uJqjcd+wZmM0fru3a/XWLjEQMdaASo3N+cTBfK7pwCvzvjwuljR9k7LFcV20yMa4PbB0G2XRwxVBeAYITjM9shbuUjN+0KrDWVxWgJhfsH6SfdwjuaxZfRysVYN/GjWsVi0BJ/SLKX7Ugvppjm+iKJrjMsohhVXpEhdlXQDHWJizFy/a9pWaFdHyufgW7iYWLqGvOmDRcKxc390j6ZYhABzJTEORooz2p2n6+B6wUGAxtS4WqJsVO3IiZzPzxFvBubNBD3dwmP7jBBw1BKA1AIqsjD4Dr5VztLp+Cn882UcIuKKdqoRmajiZ66zZXOtNAusavwn3uw3Lt7YtQ9CpVhpf3hL3Y4ggqPfDulikeB6vAEFuAByEMD87a7VtuQK4KJkWAq0VYqgIzQ2Jz+BD8y7ikDhunSUBD+4ZZo8tQXK/AEDqFsuh0eM9G/XYJ3CPJdF6GjvWBWQpTfNukee6xwepnD5kVcGqYV4GlLtf9X4Kdc72AGcqi++eBxRYgyE+UQ5FoVdroRLFJD2UQQuhrucKtjE6bhu9Rat1UQTkv0tgrx53xQ+KUQadpisiLUIYSH1gITxPjxpWsJr1YmWL4eodXEnabFEgy/GWDBZtaFe2tmx3rY47TO0M1yl6B89tgbLlEVMsXpD9eyIBQOEozgE5UWNE2AoSARsRepTPaCv3VGc0lIe6Jd/x4ZxlEods+WDcSrMamqVGDZRfH9D/sQGOM0WtaEm3LnGqX0tN6bc+TaHFwJP9XWdkM7NsvVTJLUSuvwVw3sBFa5jWxtZ0g0LjqmXwleK4OZZC4jJtglQN38hZLrmEFlYTw65WmeIdPK89JI5YQbhUObxjXAO8VKQmpA25SNNP1ZqlpXMTNY7LR6HWM4tYnRLC1MCakTNJN0H3eBhztyFugC4hABFYI6SD+A7uIgoB/7vXpXJHiwg3QprsAR6EQQPu1LSdTNgoiWVN9LxlLy03S8BBDwwR2F6maO1i2ZqFBXhxyqqxFdPnBfUpfA2LVYMywYxnUfIoYRR4fPwi0hcG0yKAUkT9HaxUxcZptZq14U8NS54jXiCKQ8+0VBf9jM8szSZRHljULpZyTLCvpnDFdPdD/hUG3EbxWdbEc619B5CSSGpSCk1bNRJRft0DcOIot35L36nNE6PC/8wW9waLMx6izP7YuGowxRsD1OsPUBTTaK6GGJUaExeoPb+7A8PRtNlVa2fmPDjO4zrMt9+wTL+BIAKc9lWAc86yDZiLho6lcKGyTbYFNDyCVS+gpeYtltc0gR2qQHNLEDLcE33PJ53Fb5HFwarE0F6WWCQwJYBvN3ChECqe5R/mTVBN2RUqhnx0VKOae4+1SLWth6s4aHcAohZJJ/7IaJzWBlZn3TJ4cYkUFY6lGvTmbMRzhsltS6d4P+7SGJdSwf5I/SNpgCMXEOHWjEcBZ5TEHcsdsG75kLXzK/CBfWIO5x888+kl6pUH685XnUD4BJY4ikHfUFXSUZ+gyHVd3E3p67ia+cebaHIs6Qj3FndwqGnkoxxlQU+gVEajHvFFBSWlj1W5HfD33CvpCxUOXgdOAIzvs9VvUQCMlNkegHzMIu7lONaxUVdxYoEyVwHPJrGiVvkB7SPNp79H4DifIoIxez7jHoq1pJH0oXONjGj2njf5ou10u4z5rYhsTPbeSWo6vd35O5FAM3bXrAcTh1iD0BTtH0OCWbGuxn7FrJdDWLVgIufTuDal3hWf4GRd4pv2Jcs13sTi7FpWgya1rmxGgbGaRDOWwIxbnLgkUfWV92NFhABgxLE6KWU9CaBi6qTDLQI4sTiVAID9Y7iIVzI3cAFt8uw455I8a9RPWoxIWgsBjnAZ+943ESdGmpFDBHDgaq/KE3Hj1HyslrGeKhhXTdYlUzX/mjXPiZNH9aMMiOrHyZGl5BpqtmiX8hOR91MrNswdtkblhDVLR7hGlhcFQ54G6kviVVoFVMs0idTE7ISVk0sUl9Vh6ynBflIL3WeJi9II4TaxjTqV82xx+4SWFHIxwFXtarYsForH9q3IvQj+EIWkoT8TknBHpFa/myk+JZwOYM9HyJ/8Acmo52siqwEs2pOHIKBxTDKG1YvBmzj5SFiJc4ovNThWHbfcMM7yqLR9+BQu8f0DJ6B4mto9ra2FViGAHMBIrTTS4ZgWFlSFp+TD34K0CEMEjjAM48akb0TeL8nUulBN0B6VRWPRVEFqGNBaXqUS7oqWZgLxCQRMDQGlDNpGn45vXrB08w1LtK9YeoD5VlMngh+DkVo3Wp+48FU81SSEYLSl/eNJyxN4JzQYk3dokcdELmcdBHVARSQyCI76CBAZX8uBwF1LQ+ljSVoMBVtDlanfogs/1SSNwEtTZ+An98Z6RBSabI+QjtnXp0iScuHSMxQOH2uMtcQtG2pUgEYikDRIRvFdP621BYi3iHfSel/moFnxqG3MnbZq8SCWUfyJBEx0Y10H2hNo0YS9TrovRBYCmpy8yUlO+LnrdUCanIsiEblXEQXroCvCu64Dx91CKBZimUA4XqpLubwTClfvl3eRnr1HPihUwRXKIJSNfTUfivx94Z0fPnGIfH+LwImYpfNJ/GrExFpU4tZu065t71qtqY4u+Zxc2KPyw+XvoAggomjxQv30Y378VoW/M/lYqOuaxTeQnqcq0RpnGZ/zv7I4b2n1mCPoYqkC1nwKa4KfkmldtjQWJ43lyfSvcV6+Ps+EyXIPvHVJwNHz4W8P5eFxFEDQYhJSqfqSmj4/HqY0hDIKOPqYrVcVykFjxbrtpvVx4To+Kjntq2FmsmmUUoqfAFb84J6+plVrCdw+AXynZ0mteEN+xtwngGkktKwc6FCB+a2KD8BR44W+NjCkTjT7t4ebOiofs53ycWsUDgEcBPL+WX7/NJEtkYNG/ORPBCCRlL/KcrM75/ACOFHr6b2SRNl1yx3o/oEDKZPTVkcaQRq0R6U1CEYvXl23a5s71iC6FHD0GcQMlT2tlaYpAk0ADOaW630/YparwPusSayNBN13r5dDzwrAkdXRdyBPHjti5YKAAPM51+s2fXah3It066rlsDq55mUrdNYcKPLlVaGKl8SLqCKlqXVMCIqps1SWFhckDpC0/vEQi5bkmZrfo0440KOs4Lrgyg0R8g4Cj0D3AGbXh85rliPuZhp4YRnjAhSC3QFDyWIBdy6stzzKpaw3AphYv3yKPONiBUDzfJWbtJdf5VOdjtK0GWsBlg4uWrdISi07oP9QyAVE7w4SHIFF+Y5IV1yvxhsogD2yYPdKko2b5Xw/+vCJ1Unu7oluviUIiEhDTpTkcmmRCfnB+ia9NGZarTxam+sWCeeW4kpcb04OUc7rHdLL957iPNvvl8BwJKQJKAGnYjOtmqKt3qm1i1UGAZeIAAEm4W4OiDu08mUsVuJO8oyF8M+rE6OMEgN8dy12GARTC4TIRYujznv6p68WAHw15WY1LAdQ+OcHVVPyTBB+rU1GlI5RAAwzc5YuFK2USvrwkJg+egSAVJYh8UEnxztyGeu2mgj+wHIAvrNx2XbPvGSJ7auWHzTJ15SlcVWqIBgQ46LpnL6DpHk4A9y7boZAPlsi73I/70/w/iAoCC71zjYCjciV9CRFgX+wLtMp5Dt0P9x7koKNje6cREHi/wBJwxn0VWQBSOTr/ipT/JWbosW090uKNaX7tb0hcaeOx3FZfC3h+0rqlJsk7XvCkvhxBDOdQYiDhRMNECiHEFpeblVPbhHg1lTqQUItTZoXQxCO1jeAo9EEYwSSGNyB4y000tgAS/02cQRdS2B1uy3ng8Zjkalwv1q1VFCqQn0ksTSgSROnIMT+qQp1pStekSNPTIY2shZu1k5azc84XYA1U8ItHFRt640XLH31bauMAQzxmaZ/E9WyT34Ajwsl4PXRD8RUGsag1qI+5WqnSOky+CJm41V7IvttJjLpgAkIuk7h6F4SUKbBFCVRCPTvPekt+02/vzmJ7hE4t79cX4PWtzMFFPc+0ADhs3ESDAhhRRr3T7IKk31vWZFguaUIx4IjdH/pRjMvK6Y0XTdoHH54ywmkxd1F191Fzo1iOV8tpZupWIfgW58o4aQKiRBiWdiqWTZYueh9hP3dARaDOEllkBbATes1Wv71bJWrRxl7lLfDNa1s3uq5nO0Sz+ykcHtzMxYrELQnVqw9XrB66gAxyFEbz5y2QuXdZouPW/b0B7nmlF0617PNrZTNLDzC7xM2rvIyFUPu7YSv4oXyqW92UkrOYR0BZw/QDEmjZMHdNnX4/mGSxzOTJKJmwnYaJJTm5vQHRcGNvXUS3R4JtyRuc6mbvn1SSIRJQ+IFGO1L+NRipo/63Kgzbkxqutb3UfwbKbgsvo9G9s+nqxWK+/ezVHeThsQE+na/J/KylwiQ9Y4+rhQxhR8jNwK6iucWyJs3VYkIWLJobdyaBhah64MHA9CECE3c1HV7rS8cwFKo/GM0vlI2neN4wi5cvGSXrly1WLFk2SPHLXvoENhYseHigrUW5q29uGzNlWXrrD5gw8OP2+jQuy17+D0We+D9Fgco5WMfsvnDH7b80fdZPXnQXvnmhr3+ct1K849ZcfExG7dlEZV4nSqaPAgkypdXvIADX2Ra+omsfweol9B04zC12A0Ul/1hUSQT0xRZkzuCxAv4LaZplOyXIHHzHunGArmguLCofoKb5sLiWgsXR71uUPT7ZvMYJbUSha2ENLBGw86jpPOKCaJ0c4w0fe7GRN4AcXRd5Kr5VF2ERH0OskACqIMFwda3cNxichxRszhA1go541TehvkZaxcQ7vysDeVSIXimzjHOZ4YoDVcokEYOw+SElogdqh+Ad6aKphGf40HSNjdqdvXtSxZbWLH4ylHLHTxpswdP2cGDp+3wwQft2OGHAcdJyxw9Ypnjxy199LjNzh6xheSiJdu4kFeqtvOll+3ML/y2vfrFZ2HW0A6trFosn8XV61usrDx5gdyF1NrZZArAkAa4imqSzhStm6/YKDeHspsh7xnKrPmXI/4FAfl2U8Q+7zYJu9dJUqFpCW7h2Vfjhhox/DOQEy+F2pL/cF/J5/XgEvswrX3SCOutJLr7aQVeIP0JJUPMSfo3IXZ8gCQCqYJcXd80rRCp/pyEBFumV9fdoj6k3WWl/FsnAgm/p1NYVzpcd/0YoNBWdN0dfAfBFN7t93tSPtgK634r8OB9qpCVpSXLZAEUx9QylUjwDvKvhjG5OkNAoPFhI2KM+KiBy1O3FNZGk6V8khOBPY/ibvKizk6YrDkiSVwgCeyox338zuKG6fMob791xdJNhLyu5fOIZ9JFPFOs0hD3rTOyTn/oXw1r4tZV17et98ZF63zzLTv/3Mukl6z6zdet9erb3DO0IycO2urKHOAcWyfbR4Z6CFaXfMe8ZU59SN45iIKQVhrgdrYAfyu/av3CITzMChlHMRBHafqaeDvdsfjtIrln6tJQ5ejtQc7YqnOSreomKD72qM8R9aMQUR7KgHqQorvfXEuCpFdU7FslKZRjc8SfCNw9NEfrqYo7hHYVKGzDedwtyQvaWl13z730um3XWt4J6J2FKlC49JYUgWA/Cutn7YFGFO0LNLduPlU1xK4vxDANMGwZf4P20lyYxx95yL+2oO92av65PugbH/AODYJE2PvqDI21cbtqVqift1LzvJWbm1ZsbwWOi9ioE03jwaS9RsM0zynZENB0m03LAqI48dHGhcv2+mvnuCHpH5bKZGcsnStYDKvWoywuCNZAwzUsb1mL98h3fWBDQBZr902Lh2jlGnSSVVZLtnoaa7NI3q3u71YH6VhrJBDDNNRZSv4yKGu5lDKnTUCzU5i1du6o9fJHMcozcCNj3ViXuEtjBvAeJjHft5M09GnowBEr1VIGGNQQQB2JIisjRaYv9Wl1WC2bq24QfY5Qo1PUnXA/JMmQm3on+viJ5XsFDgWSW3YDcPy0n5d1UUuQhqxcB46aNxH6ABzuuQ14IkDsR/5ZBgRRFAFm+vrb9TtICyVjsFQAm9yiqcfc5aBROQa9lj326ENWKWNVBsQ7mlqQxr1D2BIAZ0Cl9NIEzpif4bjly+Tmm9dsprFmxfoGQtlBm7e5GHtDGmQw6zI/AyqX2sABZJ93DjSbM2ejVtsuY3GuXlijtpKWjumTfwW0adYbKXpdgNa7zO8Nm8/M2IxcPnigTtRMs2sJXODNWBP3bsHKR6jIOficJ7NpwKK1D9Tqp9GUKK06CsCBw3MTwDBGnWwW5myrsGj99LINsisAJYNFShPDEe/9oQIHdqhRCFKn+fXWswlwRF7X8EJjEFtdrLJiYo5phIr6wuIaZnQfJNDcTZF//MkTkuV/F8CJLE7jBuDoy2i3o9sBR26TfNCbQaOtAKF0K5LY6p9IwX8gjC6VIuBo6dTI4twMHG8JVosxbuQQ9a6FJoZjBKtft0yvZvnGVSs2r1q+u2XZbpWLqThdox7+JGChJjqNjrsXahwYdjSzk+PwaFxr27WLazbuUIY+gg14sskiINdIXCx4e5t4qLo3xIYiaLDlgAz1iaE6o44tHl6w5JKmEbSsN2zh7XGd1kjQe8bEU/Cll5B1ksUmdkvpY1ALVs0t2k5+PrSmJbS+Gxoc1vT5o2UWUVPcf+v6+HdF7ipN6kpu2s3AUXm8oYi8beDunr981ech9eGzomlKz923l7NbkYp7uyLr3ZK3//anv+9bBA75i96jrCrjNwJHFocqkLXQ9c4Iv3x/moBhPxL2dDq6ZBo8IhXqVqTOygRJi3WPJkiftjjTwJkBOFpCddzvu6uGDMmz4V2UGwuiBgP5ufqMh1KhddUKXYHnElboCspB05+5KYVVgRfyyXvtpmtJt3y4FvGsFlzj2Y2ejUjDFhavgYD0yCVxkpZZVUfouI/10BQGdedgxYZEH0N8rW6Ze2dSVihkLEeSYekB9HgPFw2A+xIv1JMUhqZgxwGU4DrG0vWIaRq5I9bMLuDCLXMZ7yFxB7nDDSK/ao72b7Wqrr/NJDlTy55oP+CE/PErnrG3L6/bS6+9aW1NxMOyqoxy5SZVfM90t/f9nf/rD8Pb+yFn6K2F/FYUxhDdX4JdDo798HE70EQUPggcaPr6d957I0ukAQdJVRSViBAmcLeSuFtxjZRNoK01O7K4aMNi0YY5CaGeJ7RxjWx/j8A/gzVJAI4+AFLQjhsXSxGCp3DtZoHTPNfN4avn+lZPtK1pNevG65zv2zgHUNVAppHQRdynmYQVigkr8fqc5urHAUy3RRQ0wNUDHCqPRiEA9AGui7ZxfqcAroSyS1zQyhVx0Sq4vhoMyoMos8atyZJJSJNceL/C9++agj1JIA2UnbIpHpKn0xvjumm6SAKrfr8JxTLWFOnYrVM8rjhSIIPur3HAb76uCaSJ32lxIlctWByNXL0tTVmQm8n7Q/XPLY0uDddqe7Pw32zVEAWuC1pM1/ppyqD+F9kPKel+v4PFOe2fVtSidhqprCVhBVnNKEwQW6RJmkvjyz/pE37cmI3XLD3atmLjdcvVzli6tWuZfpvnhmkDI1y4uD71Ne5Zp9nE2qQJYql4CSd5Gvexh1pkQsPvO2PrVntsAWgf53KMu4cL0sMNU1SfwsokZ9X6prITi5DPpOIwlc2BQUYzSeuPB9YSuLNzlup2LNfawQXLWKM0b7vlE1adeZA6mSOPZZWOvHQoY5hynCHITvNODRvabwh/REEe7kTkZ1+aKLGb0clD9VzJkkiypQ7bYHF0nGMe25A/eLu+XbfXz7ztn2XXJD4N6/KPOyNn0TP0lCiv4XXhndGrw7lwAcVHadyUpymKZO///We/S/I8Hn/pTPTV6XByPwov2GNEKMwEOCD+eqsawe07Gwfu7Kq5QOuaqfdH+wrYXDa4P2oEEIP0PR51tsoF0jD8iG6uLnfIrj+Wq5WHKeDoG04DLMNjj542fTlNoFGMoy8ah6kHCLMqlaR1xuSCuSuW0mS4nqWGbcvgrmU7GzbcvmZZzYDs4SIBxpKmTGuiHNYqpVXxAU6f4FUdr1owL6mpog5qnknlD7FUCcA07qoUAIdjFsMyJbFUWcCSl7sWBDuLKUp2Od8cICvkMz2wQX6ERRlY28jf4BBGKmuJxo49v92zi6UjWLQlm1l9wk4fmrPyuBFWxlFKzxDvZCwO8GPdGjEVlshbQ6O6DyTWqZ76vC9X4B0SNmK53SoKJK25Q3HrdIgB0+QNWeh2e9aowx9itFw+4y73CJ4JsG6ZVQ/uwZCklEWTUECyEhS0H/R8qB7dC1D16Sk+ZAmlQp2UCwUrJFAmuMtSllrIUS26bnVJcAq+azS4P9Ap9BmiyHSNyqJhTXegBw4tvUPG7kA8OUpeGu1DKryzNNrfjyix18Ct0oR5N6ToHG+S4HLM/VuSQKotPPPk2ja6TxVB8qm8JH/tFEW/gwbZOxlpoVBZMJILxWR9ChHbEfoOFGskYtaPIWwDBLQ3tDY12YpV7Gorb7/+zGv2hecu2u6oaKNc2boE5X3eoeWFPG7hen25TI0OPIrM8EdliWusG+5bhrhGHZgZpY6DJZZnHzdulJWA887UAJeL65Esfc5PM1SdT0ksEnlTM7UUST5dtHo/aV86t2H/+HNft1//xgW73M3aFYD25oXLVqtumz456FoWd06zIjTESc28soYS3CC8e7yMeKy+OQ3iVQe3YiKBRzNYJdi+4CMgGFDOdmvoi9J3wP5wgIXVIFZ/BuSysp+8BIXsytnzoDqaer/nRw0YIythfSu4vnOZoS3Bs4OZrh3Jte0ICuZIfmAr2YEtw9OFRMsq8YYtJRq2mKjbcqJqi8kqx/W7afOJjs0n25PE79sk0aQEfzToVtYuImm6iMRQOV0SkCA4t6YIEDeT6iNU9F6KNJr2hxJMAOm+s2swtUxJK/I+DZAcIdCaOz8a+Ldvnvny79k3n3vRPzWYr8wBmBSxTMYXAtQiFkN9Ra2FdhzgVpD84zuqAv5rJZ1BYmC9JMAALIN8B+B1zAoN3C81MStvBPFDnjdIgy20KXkYJrGOAGvAPV0tBNiJ2UxnxlZHC7iONdverdubo5xtdVPWeBNAn3vNtjZeIo+X7K1rA9tto5GTWSxnC+u1RvlQDLk5LJoW+ZOlDiJyMwtVV7JW3W4Xi9VzixIBLZ3kPvjSw2Vtt5vWaje4rg3LsJaasOcu+94TYbXXkW/9yP2RntjGFLWw2PqER2eEdaccg3iReLFgPX3uI1G0bjJvnYR+E+v57wLbPClnPU+cu00S/ZECzjRdxxA7EaBc+8BaJT+G3I3QShqDth/tVY3uDVrTK2j6BKSvUodefkFRvwUeOQKAB8FRAKq4Td6gxrPF5GZxNs31BTSeQtWvf/Ur9vWvf90KMxX72Pd+v80srFqri3DttC3RlqtAYKmKpFL1caVxkphG/UIImT7RoWbu8AkSrIX6UtLERGjOdhZ3in0Hs6Mni3uXtuRQk+fkLmN5Un3r59DSOQkvIN3N2+hK3869+CoubdpOvevD9t4Pf59/Fv/iGy9Y7fwr1uu07Ep1aFv6nDnPTeubOSNcSv71ydtA8394ekiBJ0oRaaKbADDC7azXq5RPXwuQ+6wqc98AXgHsYQCKzsuKyEJSadfrQUmkR1/fn2zvnagLlFQC4GuEOVEqXmzSOpSvB4A01rDjICmyDwgmv7u+xa0UoNjX9nbJ34QWv4cYZ4+cpV5xgcQqta2/Y+TA9RjHX3b3SJ3OhzS/thMQ6Vk6IgskI6R+xhQVHTFcWm+a3Krc/ObrbgIuGPtDtKP345Q0tixqHFCMwZ1DgEOFa56O4KQ+mVQmZfqMHv6IPf/s79kXfus3rd+u2U/9mT9t3/3e91iR829+5cs2+NK/seNF8nZiFdcLkMQ61gVsWqZJ4Uuvj6bHYmq6r5L4KgC5BUoqjS3bw8r08/AVh1GuFHzXBDUtlYuJATi4fVkEhoB/fI08Prdp165dsxdwR77nr/x1Gyy/x7706mv2G9/4op1/6WU7kM7Z8mMfsvihR+1gKWWPrFTsYBk+tLfsMjFQtzjHOyk/fLiRAmPF9wHWLplOWKvVsmp115aWli2bzfg5rVYqPvV7Y6shA+1W12aK81aeycF31FAc5aOeZfGfskYLbIghAaDiA/nRaZSdXDVZPr1dCkT1KcslEUlxnT5NmcF1nC3k2eqCMZa054vi72oVVE3XwM0eUFf+RXCXW/FZz5LaU4ND4Ksvk3sH+rEPPHb3cvxtpQloHCSTfY0c0CxIJTUIaKs+kQSoicB0NxQqhjTZ9xtJweIo6Tgu4OS3WnAG7rLgppEHH/fG3XEt9Iz7ceX8m/bs7z9j7UbdfugHP2WPPPo4tYmmw7LMLx+27k7PamcuWf/VCzbebFoK96CUnUVY0v7RJ3WEqr8lDTi1qKHWGUtR8YiQv8ezh7ToM/NqTNDUBa0fkPCmbglJ2lJDlJU+l3j2qq2/fN4657att2M2u3jcCqtHrVLI2COnH7APf/C77eGHHrJmvWWXL5y31u6WNWs7uHPb/jXsMTGR2qPG3lEdBGs6kZNJ4i98ES/8M/2Y4mZdK9lwQtaEezXY1y0PSetN6OO2PhaRc1wUyhVtPYU6VPpWKJXJWzpfIE7DDSO+7A60qHAKhYULFs9g3XOkPC6Xfms/68e7JG3vJon+aAFHIJkAZZpUSdE3IdOAJpPGVWFfydcnuA2zpZ3uRLpd/UQRWKQFdcxHw2oLQNXKlM3lLZ/PAFpEA1envbtpb736ql09/5Y9+cS77KmnnrJyec52a21cr5Tl51ctv3zQmgj5229dtauvXLTumQ0bXdi19HrbCjWzfDeJdgeQ/kk1NG/w21w85ZJluwXOZ/0c4c/EOpErPJ5xY2DjDbT7uaptvXTJrjz3tm2e29QgAisUF+34g++xmCbEpft2eLFg3/voU/bB93/M0kdP2ub2hg2vvGEjyrC9sWHXah3bTXItQp4l3sHGkoP9yesDayvrogYTLereajW9BU0TGKXYtPiJumy18Egf661BtKonH6DppZsCjZ4Z7ZO+Fer2FHeprWPo3/xU/44G2o5RZop3hgBooC4Txa0kLUA5SKh7QVsSwLhTEv3RAo78rilSxaiSxGhvfpa2nyTty+IoXb9W2s61ZaAINK67Oa+0H0XvURJofB/OyE8PGjJUeCoVpiQovhnLt9/ZsUsXztlcqWRPPPqozZVnfQWbbKFgYyojhvbLrx6y2Iw+D5K21tWarX39jG1+7YyNL1aJ+bGcNdwDTQzVypz81sekNBQg2cTt6M4QsM+bdUocAzwd3q2Bm62OjZukbQT13JZtvrJmtVd3LVVN2kyi7K1iHQpQXDxGeRCGXtViuISzmZg9dPohO3jqNO5oz7prb9u4tWOtRs22eV5tTIxENnJEBfpSpji3fwLAgMXjPXilZmi1rqmhwHkMG8V7CW9Hayeoxe4WDTgRULxhIew6kO6H9G6XC/SPK1asobaylho0qy8j9LhGw3N8SwpztoIbrqE8fuwOSeR5jYTGBecPicJaBZMfkLsLHNB051w259tII40RTlWaNJ1XIL/VSMATJneHMvnQ+Mk6YPtRKDNMpXLlcuirxvJ/MwBEnZ/Sigpuh5roptVn0KqNnV1vUSsXcnbuzGu4aufR4h+wRx95xJ+ZzWhOC5VFfuO5gs2fftB25OYRqK4kZm2xk7XcWte2XzpvF373Obv6xnnbOr9u7StVrAeCt00pNoDmepr9knV2y7h47O/g2Kw1bPjmZdt44XU7/7UX7dpzb9r6mU3LNgpWrJes1M5bqouaSVEo/P3SsdPkSC4SAq7PhyC75XzWHn38CTt98pi11i/6YvGDbsuanR6WEWBya3KsLzILOG5vp1Ig8UxCKiyoWTqXLaBU0lZv4Iqy1dwmaX4JZQ+BzchSF4r+BDVhK8LYg8mNdCeLo3eHtCevNyhEYpRRr2NDkoZRZdJJj218NVa8hkjxXk9SkLKaPEpKY1o53yqJ9s/9H1GK2O3bCYimt2Kg/knbXbc2E6aqo8u5NKHAdFUl18NYuRRDrUCj1WIAZRwNpP6NNA/OZ7A2RKr+NQGYmwVgjd2qXbt8xRbm5+3EiRMExlgEvV8KQM+kovTu9NwS1itrhWTR2vU2Z7BjArs6T3ET2lertv3qVbvy9bft7DNn7dzvnbG3v37JLj6/Zl/+/Bn7TdJz37xoZ7/4sl39vdds6+WL1sQdSzUow4B8pSvWbaJARghnLI9lGlvbBpZbmrX4PLFUMo1mCI0zHcqgr699zyNH7SNPP2W5Ys4a9TpswOJ2B5bqdyij1nfro6hwCblJSY0naoCJAKThS3G5ahwTX7N54opcSV1B3q+ljlO9N5MtWkKfUJBEEqAnENyE8qMxf7oXXoTYSW6y6gnO+fb+SYpPY1jCor3Kb2hoiPLur2MrefHfbH3xD+VGfND+HZLoOwo40yQGRJkP2i8IarQfJadJA0JE0b4zjSflsWg5/HKtbybAjAHQWCtsYmm0QOCo1wREfazQ2Jt0Z0tFq1V3bf3amh09fMQeeOABrFVoURI5uGGwmmxj5WWrZOewN/jYCFULEDaKCavnsSqZtM0MM7aAFTrYnbNyt4K7tmCd/ry9eLZpn/38q/Ybv3vO3rxMLJNatkSvbLla1hZGuHBVtHePZxDQdwiA9R3+NP63ukiauGGzR5YRVpVTqYDc5q0Vw6IBjAMYk8eOHraFo8es1unYbKVix5ZnraK5n50GmpqtBpiqdXGklXywWBJGAQjVLA1NYcEbIknSem6JZNZalK/awDqTn14/5p2gsr76UFSXgEPzZvSxYsTTuRSAF5JcZJ9dqeRCfn+kfGoOK2/nDWHrQOGtAmbY13VqQcPCUE/6akUAjwCn87dPou8Y4ARhvDGJxPOIIuD4v2g/SlEFBdXp9/kIYLZywzTjE73sa5gJRNl40qdBa4ZnFu1bLqRsAQ29UCl7Z9/25obVajVbJYaZnZ2fAFXaWVaK5yLB/SEaPJew9PEjxA8cyxdtAHCGmi+TwD0gmK60k1bqFS3ZyuNKHLBGedW+tN6yX3xr015uJe1yLWa/e37dvrrdtrVkxZqpedydihWT8/jwedMn28eaRqBBmupbySStjvAljx2hwAO1M5AHtD7lmiFATwGMzmDbZip5O7x8xHqNrlUKJXvkxDFbKCWtnE1ZMV/AZUGQ1OQr4KA0pFAclVIs8FMNAbIkshpdXOUOLhm6BuDI7RsAfgXq4jnBdCxpHSxao9lmnzgO3sojiOrEWzOpB9+fbO+b9KxJEvmz2NcvWUf9noalTgevRcAJv++URN8xwJkGS0TT4KEuJykAJaIINJiZkHx3zwLJ4qTVzMx+r0McU2/ZsEU8wH1lfPOFmRlbmc375wHLBdwPhLSL8K2vbxAUZ21pcYUnaHiJNFvIk6b5onMJJLsI7shyD5+wKto/Xi4i5OpM5UIEPq4v0Wo1mh1+11JWbaXsy1d37TOvX7LfwZpszh4EKDP29Y2m/dLZS/Z8bWy72RVD1C0Tm8NC5nGNupbMoj+TPWsNW6a1BXq8J3FwlYeq38hsg9SjvEncuBz5SMwMiDtStlJe9JmlLRRAJjmwYmpgyyiG+WLZirmcFfSp8wyWmGdKG2u6hVYPVSNAF4sktaOvmTVbXeIbHMRx3GrNnm3tNG19o26Xr23Z7m7Tdqttu3pt085fuGw71RoAl74PQizSNgj7Xr3dL4W6xhqy9VZSfoZ9d8ZIk5eyH5HfQgru293RdwxwRC6Uk+QcEV3fRtZl8pN/YlsEoqiS1FwW7Stk92e5b0vsQmBbIuivlMsOmIWZWSwMQXdOH13lgkHXU7fVtnazZQsLSza/uOTBsN6ViKGB0eqYHp6tIyPb0MJ/R1YshSCmOkMr4cZkcWkG3Y41dW1sgEh2rT2btWcbNfv1N87Z+iCDwB60Ftaog+TX8iV7ibx+9vxlewbL08zhzslNU7N1vwuA9Al5njJASPX9/oOAeaZiI6yatKsaUOW+eHt2rG8p3q8mjIV5LFcxY5tra7a7uYViHrm1lJUpYnnKBWKzXJrgHzdQriwKRl6alI5WJZXVVN9WpzuyRpuAHHHSCkVVlM/2dtV2AE2t0bFqrQGYdm1ja9dq9SYunEDCgwCa2O9pUidhWsb9k+6WYtLzrneaOmBU7xF4iM9c9EPSfph7dLcp+vsdQC7gd0mR1VHSAMTroJm4aaLpmOfw4cN2HH//4IElO7QyZ8tzJSsXC94IoPHB6p2OI0weNMPm0TCM0cpmcp6QA9wm9S1xJcI3HmmNbKoD2dpO48IAvrLGrm3WLavhZ7gwnW7TuqmRnz9PTP/b25ft18+/aWeJA6ywbLnxMgF/mYymrVkoEhcV7Vm0+b9564p94+KWdUZZ8kR8prz1m5ZLYxEAx3qzaqXjxyyGO4mn58ApqNlYDSBYJQXL4FTfxLJcPm55rEqnTVzT6VpGfRtqUiZG8sYB4hnxoJBO4r5lrUhsV54p4+bN+CgBiY9/Q5PUBYxBKOO4kop9EoBMo0bCUKXoXHDvAu8jdy2i6f37JQcMrwlWRvsoDwAki+NAknLT/iQ/nieAFKAQ/b5Tiv5GJOm8RZIg3EDkUFojermukO+fUu/wuGdzZYLYUsZHrZbiHcsn2lZI9XAJOlRQG43X8pSLta0Y75I6VmC/wLaY6Foh2bU8FZ3SR5cGDd41QlORFRXcrQj6DR9e/Q15TVFBGvKJ4G6U2GbR9FlDoMZNSw+rxCtVhIw03rVSjNikMLSHV2fsqRPL9pHHDtv7Hjpoq0WEDLfEmaJxWD4shF0xFgFOpfQBVVytvr6g3EJosDT4/2MFpOzLlw6ApKLI4gjIpYdl0yc7lh4+ZhuJXWsSX/TabZtr57E+M57L57Fif2/rgj3T1OgqrFNTXzloGcaAmIWYSZ8KqSewhgfsQi9lv/3am/bqbtXaCGcmoSZWXLE+bib86CEoh0494sPtNW1HwBfFJMTjHNuCd4pi0gA2lkMr9sSJYSi0mvfFWzmuGuqiQkjMteZ3Eb5U4PNCJm6L5GuOh68U0zaT4jwunAZaaclftUc4NJAZ8Uar5sgHCjEH/KES0ReWAkxKGgERUyclb9XnV/wTLKEGIG0DP29P4bzu09fx+vEirqsWHylYb6TBqiR41RO4QZP2BZwh71VSdDsYpz35b8p+uyS6cXko5XGKQsAUQOPAQSi0vhh/dZakh0RJvckaL8a1BJAlKma2mLW5Utbmyxmbr+Rsfr5sczNyhTK2UCbQZn+pUiSV2C+EVFEq2vws2q2oddDCYEGfPKahJxOtrqE2KWopg1Zc5HrdtzhXtsXZkr9jlvfOAly9d6YYs5lSnPdk8eEzdphnH1uu2EMHF+zkctmIiQ3l63onSQUnqPQ4la1yCggalJlUjzFME2Z3d3ftheefw31J+CfPi7h3qraQxKZQ+b6I4bjAsxOWj7Xs3Dd+x4a9msVbA1uMz1liVCC8idtvAqTfJBBv2rwV6ktYJOIraxOf9KyZQNl0RlbGbbNM2WriQ3UToU3ZoRJxiJbgReHU23Vr4AYmVo/YyR/5M9aSNcrqMyHUDqiIa2iPZnuqHFhHmcONzXV76aUXrFTM2enTpyZN6jwjzrVs9YVmeU5y+DSgNEm9JsmnVgJVg0kxl3Vg9jrq5wqxjxSLvqMjR1Xf/lFfTiIpcMAX7l0khqpo9AVXqFVLkuMj0AUaWSP2gz2QrKkGtCfO8ldKibK4yyX3Wj/Fb/bVEa5vk2p6uJr7WwPKV+0BJEEaVZBMe93BCf5xrwNASXWlpvVIxYiic/unJw8RQ94WODzyBlJO/eb9ScP73VUhhxqXpM4wVUY+n5+Y+RI+ddFK+QKgEDBwYUrEEKWylYkrdI2uzZcQNlylOMH3ADdDrTaDYZLXU6Hy26lAdYiKnRqGs7yybEtLizyb+woFBLnAM3kPQa62hUKe9xRsnrhFi/YdWJq3Oa5N8QwZiusenLaqYQgd6VsdEsP1vsj9azQaCNxLAHpojzzyiOd9P5IQ6FOHqcEYu9Kyjee+ZiMCZwlnH950pZgQwh3ecgY3rFPDRgGmTFKCyu84ZYfdat3LuAlDnxLHHEt37d2rJZtNtCwxqGH99FU3sy3+HH//d1vlqaflO1rSO3H3J5VjfX3dXnjhBa+Thx9+2Hmv+vPmZiV4EVgiIQ68EAXeaFkm4iZiHfXj6IsUbWI/dURrzW31wPc0V8f5G+5UWRdmZ4idMq6ggjLW04AKrxMgXEmrccXfqd/6p3fyVztUFofJv6y7pJEzvMQ/uIVLWcarKaB0Ev2Wjdu4reiJMlZxMR+zpULcyng+s8m+zab7Nod3MsO2grtcwfzp2Gy6x+/BbdPxpcpNKPAcKXeB3BWbSjonbXCrpFmONybcGJilpObesX7ja8sNUsF98QwKrWkBYriGZjTRXGql0dAVVB5AwYpp2qBm8yEIepNmYkqjdQiwNRMxhYvYoZLaaL42Wk/DKzy/MFnAU4emUclatUWjZzV9X9+UTekSL6gXd1+SgxGRrI+SLKu+wOCtS6RbkY9iVkyhjkWAOnfoqDV7Ix8ftUUcsYsLOmjV7DiC9t2FGQBBORMN6+o7lIDGW988dkIjDjqWwNIcxo199CDAL6mHvkl5W9ZqtmzQj1kbcB189FEvt0ZMqHHiViTgiPdKKpOGEmmr45LIPTHYk4eI4vAWNqJ04DOxn1oaV5dn7fDBZSth5TTSIlDgl0CojfIVCX5Eqkl34XgvZzzd70KI8pDinW3LNC/a7HDTjhY6dnre7GRlaEeLCHxpaKfm4/bggvnxU2wfnPy+vn8XSRT+/gFRZG3ELGktH8WclpApPgijaFHTulBX+z1qYZFwK7TUcrT6ukDCP6SkTjtcIA8uQwXomf6ZPJ6VJDhNZnOWyRctJwec+zQYU8GfAkIuBIwxXocgAKRCMmNltQ6pBskCr0VnwgD9uUU9TeNJZRMpH9PA0edMbkk8QF8701oLMe6ZO/2I9SyHUOetAei7AGrQrdrSsG0fzKTsfbhMB7VKLuBoa44NrqCPyuad6sE/wPEni3F7dBmrqsltuHKh/ybmM00TlTmLHz9GoQQZCnkHGqDMZDXdlRPPoGgr2os13kkaoiJXVbOV9EGsGTT64ZVZb7ZPYzGVZ7E6Ild4XC2eKk03DATFyzOplKhn/n5JLtdY7iguWzI/aylSPFOysdalI6WI7xK5GZK2k5SdsXiuPPmtc7dPIueMCnBD8kK+M92JXLCdYeFatybDkOTGqWdezNb4Ic11SaL2E4DAx5MhwWr1UDgufGmRuU43CIUad2WVNFd/gLsiV01NwFpyt4+W1bhHtY7G0NwaI6Zq8LWgOa8leTOAqgh4ZwBallcpTtX05QH3aVYmN7yDgtBEid/SxBMKCgEr1+l4uhUp5/p8o1rlpBpKp05ZemaJMzmEVg0LPRvjbmXa2/YIz3kPfsXjS4oDAWUW0GMS5X+rPAuzZXv60KI9PUNwjrsRx0WLx7B2CGkcgRgQAC+deNDiuL1oKFdItyPV0QDgaJSAD1wlqYxRHUZlD3yg/ieyIZIl9TOAVkYyyVafbc/G5IqFGDUCgB7l90XWRu/h4J48hetkvfxLCrB54i3fM/l7UJCDRI54L2FXd1p2fmPHLqzX7PJWw9O5K1ukjck2pLNX9XubbTj31uXbJ1GQin3oZjctpMnJW1AEGiVVgOKcaD1oHfOPN8mFg0khCSQa/j2wy2vX7NUzZ+zVN960F199zZ5/8VV7/c2zdmVtwxotBLTXxYWrW4dAut5q2M7ujtWbdVvf2rTXzlywbzz/mr348iv2yquv2+tvvGEXLlyw7WrVhaGAD16RdaK0hMUEtnLVcE/Y6ts51+twQvuJ3LTFkesk4Mja3M7iSADSQimCVZVuWDlgcwdP2LiHrz3EaqEh+vjZ41HdZkc1O0nmnihm7XClYDFAlCBWyxdKxB4FW1yYtUdWynYcoOXamzbSiGd8ebVWxRUL4tIdfexdqO0wrlnf5LkdqRyyNqoTb9Tht3ilfW1dUUwC6FDv7E8JgJRXUIZjFBMH9OGsYcfmSyliyZKDgDs5ESCiW8MvLmPfm4wnx9X4IG0WwKYr7pdQvMmyddLLVovP2NVW3C7sjO1KM27XWim70ojb+frYLlRjdr5mIfHbj02252ucq98+hTdN0Q0g0W9pmqnk19wm+ceZZOpVCfzWd2bCdy9JE7cgJFkLzsH4MIJ2bJs7u7a2ueXCrg60KgH4bqPlHWsaDt5GIzebTev29FvjodTSpubBsVWrde9k072b2zu2BtjWNrasXq/5+4rZrM/IVOsySt4tzkjf8iGeGqu5VBSKB1GGG9ni5IIEScCknQUelUnplgRykqhQCXcTS9grFK1y8ChgI2AFwin40NdaZgpI4z1ctpYdQ+yX1OE6gwtaLtjswqLNz1esUMh5S9tc65pl8OOTk3FkgxFWB4vTiaes8sApXooYIsjqjL0dRcBRUlki4Khsoqi8Tg6gG0nn3fKo0UL9PvAxS1lz+HCZuPsIJNlKpfC+4J7xHm31jOs8F6sEGrb+9/5Iz6x3x1ZHKbXGeWuTWmNNWCvAn4JV+ynrxvWJlpA6SZLWHPD9wvVz+uzJ7ZLoBo5Iq0oDeUAdysEV+ECTpHBBwfit0vV5DZMkdyFKoSIQdFwUAaqjYec8UPFKtd7Aemi1Sa4DtNJGinlUqbomaHsCbbToEOsULYUr4PXR2h2ApNG66meJXD9NrKrV6t5SVMgh7NQIp6SQ1eaAm4jVyAImhOZuyAN0yiD+aD+Xo0JAQBsLqN+RppbgRXGCmnNbCHc8p4ldnB+lbOnkA1Qk+aFcsn7+SRGA1Y8DBH1+sLpjMfIua6jJYIN+262tWhaTg7bNEudkcFc1rk6xk1ouhxSsiDWLHz6CywbsiQuHnHPXdgJu8VJ8VB6V9LuKolEZSqWSW1DlO3I9IyApScLV/xEtkaW6iUgT1NSwI4BoEKimJs/hqh1YXnDg+CBK7pCFUjmk7uRSa0Ueo3yKS1W7LjPIxG1jxrsgtUimxoorNe9zAI+RF5TLuN+0FHnT5/k1HCph+j6qloriGGXQ9Gv1AilY0BJRt0ui68CBH86sJAKgz/zFKJTAIkFW/KGtPvSaoKJulfwblbdIakdPkRIwTKvKj3kHkmEJfUZQ13B/CpcjodmdWhkGX1XCprUElNIIelbD+4mRtJ/GuU4klV/yKm3ex+VDqCPhUIWqD0LC52CZlDOoP5IUq9Ck7XUuBNJptfbL8qhJ1OeQ8FwJlkCipCZcNbULSLKESoOJkCopDxIUDejUgjbpOMFpH1CtHrDUXJnzxAcAyN8D37uYwyEVq+VqFWyrYzCOcGvtAykINV3LwmiNNa20mRjCuzEP5j0NhK506KDFMlrrLaxO4/Edz/XysI1SRAKOQKJjKkcEdgcKJN45H2Rt/BCgIa/B80Dg2URJSk1JkNLg1hw8nyvmveNUc3067SaAQFBdDsgz1tDlSvmRZZRcAXYpPV1zv6SsqDp9MVzAIpDIcY1jnQMwJPg6JvAEoGj/+m8HXADW7ZJoSmRCQeICCQWmLnCHwtCSVjukLgKk2XO3Sh0C7lul3uRe9bz6l5GpWK2N5uO8eDVi4SN9+wj8QNYL4dF2yFZppE9vDNsca7HtsA0NBW4d0XQ5Kl8TlZTU4pXLqA8prDPmpM1+aZr4HcQmkJgjwYqsiIRNGlEgkiUTaHZ2dvy3NLaskANmIpBqJh/hIg6pzcwAxdJFsFZnLffgijVSVABCkiaItXHKm6g7WNQ2Zki8yQzi7sppOoOETF/Q6XieUQ5qNRoVcJOS3uxfgzerDz3gGjyOUtGiF/qnfEd5j0CjrVIEeJ1XvrWNQBNdK/BEJNA4g9gKPFHajzSyeraUtkVitXw67g0IahCaKRctDU/kITThUaPTC7MykTV1bquFR62q3wp5kzRWITQ0RPuyesH6uWUE3D6NwH9TSH1QWMcd/HdOInFjimIUAuGgglsqWKNtNeKNOi5Pra44gtij3rxl2iXOuFXarnG+EQ36axPD8GximJ16w1rEGsWZih08ctQOHyIdPuTjx44cPhi2aNPDh1dJBzimrX4fCNsjB+3QoUO2vLpsSweWbHFp3mY1ngr3o0xFZRFGr14qc//kxfY0DZqpwy5UkTC5+4hFUafn7Oysu2oSQAmiQCVALS0tuTDqnBbpc/dGTX8ojpiC54cOWTOJQgDUsSGAGuasM85YP5GxNlZUM0oEqCTuWQIro7ixQ1W1EIY2im0YB6DDPPWN+9xFyQDOyukT7hpSIorFc7VFl0ZAiZLAoaS81alTWRu5ajoXWWsnbaI0ocji+FZWTcl/TxIvVcIvslImaatLc7a6Mm8ruG1LC/M2vzDnz68Tv1aRKbnou8hFAze9gwzok5Wy7v6M+yTdK/EWwYZJXnVMTfQ8+4Yy6LyOT66Jrr9DEt0EHDFbuMO9IBYJwtDF5VDrUd/a/Q5CjvW5RWpz3a2Szmt6rkDSmmybWLFGq+3+u/xetXApPgmaUsNc0Jtyj9hPEXgqyYKo9dq3ihXYprleo5oLeQLoYsFHCcwosEYgilqRiHJNy8F0kqBF+zeT7pvA7rr7Fbk1yqP2ZV3kXkj4ZJ0ljJHrpnvVIKGPU7VaWEm07yjVtfKpFRsW5GXL98dttSICE1ZQafLcPuXSm/XJdy2xq0ptY0WqnNvFzR1qsfRRyZLDrCvL0sqCxVbm3HKLNPgz4UOj9kh5F+ijpHxq6JBcToH9ZtK9+zULu/AIZIBSAujLKwGgvYGUCCXPz8VHNlfOkYo2S12US3mUSYa6RlaQhw7ejOLcNjKmFXZkdTSGLAjmdM7vnrw+8Wi0Bl5fay3IaWO/p98awxbTODZZd61so2v0O2sDrP2A32rS1xrbfvw2SXQDcCQQcjkUcComUR+Id0jieyqGUSyhkbC3SkgTLisxx36Je2WKvZ/Ft7gZ8nXJQpJ4JsV79U5fYIGkIewaMKqkT5IT2pAEEm11j5qFOc571VjQwo/udtD8VIxGJCgWKlBRGuioasAhvOmfGiDCccTXmT4tJ151HHANjGsp3gg80sxqCJC1KRQKtrGxYdvb236PXETxL4qDSoWi5YhFUj150WbdVMx2Nbh1uWhzh+atI3eTCvZVWEakmJYrSrr37R15uBQKcvXODkLVhF8NeNVPFHBt8gBEfl3Mjj74gMVgzHAi6bDJ86+83wwYlUEKUQ0DmognwEsBRDFcVF6R4KEUxIQEOJTCKGNtqUfPq6zNRIuT2AVWiK3WT8Od7msNALZ6v9x/z51GhKAsqXRkTI00WF7xjpj3WyPyINMBSeHIomhHWy+b51GkfOt8dN1Nv2+TRDcAJyIxMZhtCVZ4mdwFn4MBS26VEgkKLybsl+SXIwwK3UBSSAIiz/aWMAFvH9LRUIHoN/dJJe4IMNnSMA25WyP8WAnDQFaBuMDnxOhewKVyOjOmkkRh2tJExyJy3uigCCGKWnqUR1kVCZxcHbljWvjvM5/5jP3cz/2cffGLX7S33nrLzwlc+iR7ngAn2wfkBMu1tNZ9RpjyCTty7IjHeF003VDAGWQoii+vRwmJQVAOmoefAFzqOOxybROJbGBuBwmuH2P5hsRwAOrIaeIbMKT+Ecmlc5LrVYcSVm3Fm+kkiyNrKeAor7pGVtRvha/Xm4d5zgSPTje7M9Gw/bGOTwDkKxJRCjV+aMQDhfOroyFWUgSq/1APah3Fw1F+eYg3Gtwnqd4kH2op07p3njzGUVAfGi7UAKCWMW8Q8HxFW12re6Prbp1EN+RSTYZatX+IEOobmFrRkh+eYtqiNeS/qmdai16LEWpalnlU0tzyIYHujQkWeuI8Nautz9fAr6BOvRFCPoZGXU84qRrwpBat0AQqJqsHnYTL4l+A9uNcpi+NAcZkSkNZECYty0SlqL5SVFBg5o0UHbsxuU4K/3iwmlj1AmUlamoeIHBvv/22g+Rv/a2/5QMkBViB5Utf+pID6G/8jb9hf/Nv/k37whe+wDm5oFIQMZshDkngmiRN/QpZyx49bs0U+eXNqjyNINC7Ev0y704DnC7WiHdigbzDkIof45ol+rPcAf/jVesmcHHyZYsTB7a5YkA0P5DSkKCTffFAik/dAdL0bU2ea7dwj4krSDqexb2V4tItyqeGNIkhyovfra1iQT0QilrbAvNVgXoJfAJRUdL1UolaQ1ojtAuUvZhNACTcbR/A2UchdHyOkPW7iFMPwHfDlxNQUtNA1a6DdZKm6YbrOOd8UnZkDSmGRim44pc88C9cHkQ+rBAquWNL0bTQY/Q8lfF2SRSWwD0bvo8jbSBBEHngJ+ZMSPs65xpDsUe24I0HW7tNX80E3Wga/oIPFm6YYra2e1/3Clsx404UZfLGa/WscCyYV4E2OBRiUwzgj9o7tlzO2JOPnLT5IkDjSq3zfDvy+fqUUVpX821U1unRwhoRLXD80i/9krtnWqDj0UcftaNHj3qcMJiA6hvf+Iatra35b404/uQnf9CefPRxixPEq1M3tlKyUXPbileu2mf/u//RTrfIXWvHxsW+1WMP2pndY/ZvGxv22gKuH0oh3SFv8FpDkH5sVLdPxnFHE9s2ThFQExgsPf2Unfgv/0+2M7PkLWk41JZtY9Vhswz8AMA1ee+ly5ftzJkztrm56Rq/raVrsZwPPfSQfehDHzIta6UY08s/sVI3C+bdkq/gST6amJE3Lly1OpVTqCy7MHsMPdQCIAII1+klUprufcijGfnEuSDm+husmfb9r6waW7UmyoqpBU/T0NVFoThX59XFsd3s2fkru9YE27G0lqZC3cBDufrkABkKsnldjkiiuynmzzy9FIATfVhqGiii6He0lebV8/tq+UBM17dqdunKFhJLcIWi02Qpv8BJGSM5gNhcf3R0/u7JGTUx4d6M6M/mOKXUXAuNnk6o74dLYsQ41tm11dmsPf3IAzafp6p4ebRw4X4UlU8CIzdLsYtXEMe11frIzzzzjP3sz/6sxwMf+9jH7Pu///u99UygkssjoETDcJ577jn7rd/6LXvz3FlbOXjIfvon/5w9UFmy4vycbeE2aKmp9PY1e+Zv/z2bffmsZQHEMNcg+H+3nd152P5t84q9sTy0VF/AQSFlM97i9GfQyj8Y69kwfcFGmW3bIHZ61w//mC3+pR+3jQwuF2UoUC+ZPhYSgdFHcDe3tuzZZ79mV69e8/xJISjPriTJq2LLAwdW7Mknn7KFhQXPv1xfTQUI9vreKeqgFnDOXlyzOttCZcFGBF86rv4UuTzedCw+CzBS1A4c25ty4H/fCRyRhm5FwNHnGlMT4CAKYHBkW42BXVrbBjg8U19ak5xw77DXchmKXC41cITWQfVZBqm9E/3l9x2/UYrFUI1iVtLav9G+AKOkPEvGbgaYSJm6XeLPfadbPUv7PtcDSychUJIAK3/SnCqPkt9zG9L1EUhc07LVb8UzErRnn33W/u7f/bs2Pz9vP/IjP2I/9VM/ZXNzc35OYJNARtZJwPrABz5gf+Ev/AV73/ve54L7s//wH9pWbccXA9EcICkRuUfHTz9oLWl38jruBf9fowpknFO4F3IwlDx/FKGPX6tPj6g00uixXMbmHjzhLZED61D58uWRnElxO7xPIL548ZLnU+WKkhov0lgZ7V+4cNFefPFFb+QQvwI/wjPuh6J79WzJTRQ7qSy+5XckU0q+HrgagyZyd/8E/+Mdy47rlhnvWE7j+qxh8cGWjbvXLMW2kGxaMdmyQqrpSfvFRMfyHM/zO5++cxLdMJFNBdWAzGj/ZlLFeqckgqo4ot3uW7PV8Z5+9yMTgEuCIWGVv+w+s7ZU50SI1cEaCfTdJv64VQm/ESaSH8cfl9uoD9uOsIKhNSnMgVmaLdnq0ozlUDhBe96aJFQiCYxaxrRVWbWV+/XzP//z/r5PfepT9oM/+IPXtbbOS0NH14skFAKvWt2WV1asgTt09s2zdg7r8973v88/79FHoDXrMokLdfWFlyyNho/1m9ZKLtulwYJd6resmUUH4rSnhnFiGcpHGY4TZ55M4HYmqDxioNiBVTv0A99ncd6lGZ/ZOEIIdOSvay7Ua7hm3/jmNx0kMzMzLqSzsxXeXbQcsY3qWGVR/gUaNXYsLMxfr/v9ZOBuSXcq0mniomoBj3ha8adcAjUYaDOpLwdZUG7S/EERhvoIT9FF0T5/J3lSfK09eROyXOq+UCdrJTW2UgJrjfbJ8c5KqWLlQtFm8SKW5masQsw1m8/aHGkWHlQKeasU8/6lgzl+L2TvnFaQrRssThAANV+qNUYaMOxLKJQkLKoECYcXlH86LsEbIiyarHarJGG636T79fzoHe84zvuVN2/5I4mJEgLk5K4oKlv0HFkaHZNQfeUrX/GWMy2o/vGPf9yvnxas69qUrSyPeKh4SM9YXFy0T/yJT9iDD52y5197yX71t37D1XEaRdPnfP7gQcsvL5q+2JYinoHV1sT1kEujrxYklMa8i3oYc6yNY9pRjcWoAxyz5QdOWKxcsG5fghKzDCpD8ZnKoU9tvAXoVV+yggLNgQMH7MEHT9uJkyft2LFjtrq66uVVnkWaEVqvR0rUN/dFep4eqWdrCJe2IucX4i7eqvXT5YYUZCj81v79kkA4wq0eN5qWQy4qHFvKpOwwiuJwsWyHCiVbyRXsALKxgoewksuzr5SzZUBzKJOzk7h1d0qiG4Aj8kJ5wfe07q1SRC5IEaej/ZuSrrnfxJ937AOT8G/q3HSSwMh4oowc4HdDUZl0vypbgqSPRclF+8hHPnK9v0Pnp68TaJR0TmC7brUQBI18+N7v+xO2eHjVfvPzn7Pzb71tBbRWs92xuNYwO3nMh9JoNDN2xxcT9HiuixZF8Uqj+gecuEaNLx0KJdduhHVZPnXKYmhO4KV2RRIX4RHgwFsXiyMrIsAIxFqVRuWQcPZ9TbSYu5sCk8qgpCZqXSt+TVXvfZOeqSW3XNHyW2ybsG5fOdNLozq4H5KOUcdmL523WiJja7i/l1s9u9IZ2lUs38VW19awfldh0Vp/bGsopmsA9upgZNc4pnSZ35fJz+2S6B3AiQQvEopoXxQVdLpw0Tnfcj07+6boOfeT+OMVrX8y5Q6a6LyOkZQnVUCYZYoFIU9s3DLdqTJUTpG/C5Lgq5Hg1VdfdeFT65han3Q+CN6kdVF5mfBI79C+BFUAkwunAY0SxHc/+S576rve4/OOvvjFL2EVRpbCfUAd28yxw9Z2F8XXiXGLIuDEe1g/8q/xVV42jiv+6eLqCjRySNOHD1qMd8mN1fdzdL3ao9SkrIUyRFH8VanMet5CPmXdQv41dEjWWSReRa7bhBXfIskiB/6Ibqi3qaTj7k6TvhVSQ0IHq1HNlmwNNXKm3rGX13ftte2qvb7TtFc2a/bixo69xLEX2Hpi/0WljS37JvHo13Z27Gvbt0+iIDG3oagwXkAEQynSsIotovP+HU4J6C2SKuN+E3/2fY432msLuW8MUiTQIW8cC6fuSCqTnqetgKEySYAUWAtEsjbRO/VbrW6yaHqXro/ORb91vwQ2g5vgUwMGPfv+T36fA+mVV161za2dMDIjnbLCgSVLYXni+OPIvjVi+hSFYAGPVUT8fQcp+yhEG6YAF8+ZPXrMYpU5rA9XJrOWBExCl0a2q+AxDe8BiiqHkhRBt9tx3qic4o/ALbcyqlcBy8/L4n1LBD8kDyTxSYH/NKks/k4BawImPz7Z3i/pbn36PjPCNR0SU/VQIwOUTJv61RKnXXik1OPNOudJ58gfx0f9FAZbU/Vvn0Tv4FAkBNMpomhfBVTB9yqBLE9SaBh4Z4oq535S9AzvkZY2vumc3uszOZU/kpYJ0lQENdCoff9OgqDnqGzaSvAjOnfunGtr9dVEVkak8kogBCIl7Uc8kfCJpMX9GGxR3DE3O2cPPHjKtne27ZXXX0OoOcH1CdylWU0J4L4Bvxu4ZRrHleaZCe6XuydXTfkjBzZKZqxFeZYeedhipRJgklBifbw1Ss9Ufwg8yAm4xFLkW+DQKG6NNxRF9Rg+Q1j18yq3+qOUb90fWLlX9yKV526SyO8liSdSItGx8TA8U+CJKKqdm993P5QYIBNtANQl5uxnLRcrWLwLL/md7McBVdrSI+RDHyFWGuX8d1rfVuW3Rm/cKYm+VdXybSFlctp6qGpC9UwR1odqu155qjAn3XeHClGFRfcJBPqtYTXSyOrbEBgicETXKwlIUWVH524maV5NkdAnRL7nIx8lXyl74eWXyVYYTTHKUbnLS1Yn/904rp2eLdCohVJYwP9SuRAH09cOZHXaWc4tLwC2LL9u1OYRybpp1Ljyrrypr+ny5cve0CH388qVq76vMkYKQTFQVP6IbrV/O4rqQaR8i9zKcEyHI9CoTiOu6ViUvhUaxeFRAiubVOrYMNGzgb7MncANJencQMcmqT9JPa4ZJLpkQF84uH0SfUcA51YkpgfmhxhDlRUlWcO7JXeFVKNQZH228HelrVdWVlxjSqCic0q6Zxo4ougZ0VaUSMUtKUtJHh976BGfo/PCiy/7qHDvv8lnbJZYRbFNF/PUIg7ySX6gRsGuFvfTCHDdr4aOjoJ/uXarSwrGOCoLg1D721Sd4VcKC6TYTM3i4oXiF5Xp/PnzdvHiRW/4EIAEHJVLzdVqZcsBZFnoqSLcUMZ7IdVLtL3OG/+7t/2DpmE8AocWvO8DGAECkMQFog77HYASAYuU4rxAk0SBxIkLYx3YeIcEfccBZz+N5BVLUuVIw2nrC4RPzt+JIo0bVa5+q4VJ20jwJFw6vx9oovtE0b62SurQUz703c4MYDh+6kFvFKju1rmfa3ErSweWLVEuWgdXrKcWDfI+UusZp9W5mZQSAC8a/dBq96x8eNViCxVeokE2weJonFZEep+EVXl/EPdQrWddLI4WOpHl0ZQHAUbumQClERDvevxxW15eJs9qQhZwpx4IqazT6U4koItusDiTurkVfavWRpTG087Cq1w/Zll4mWE/29cyvegZ9jMDTRLUVudIGJA0v9PsaxrH3dJ3FHAilk+bdB1zN04taRNhVQVJS+vwXdTxvsBR0u/I1RHdLDQ6Hp2LtqLpfd2fTqUND5qKMfveP/EJe/+HP+jnNKV8lE5ZCgEvrx6wDiYlLKYYgBDGUSGEAq7KBFA0RXzm6CGLzxZ5D0d5pq65scrl3oUVa44fP2GPPfaYHT5y2OYmrlhUPjVynDp1yt797nfbyQce8HyrMeK6m/stUgSamwEzvS9yUE3Y+q2CRy2LWpNaABIgtJ/yjmQpLyX1mWmLF8C7wjFdg8Lg2I05uzV9RwHnVhQJdFQhGrGgTuq7pej+CBQSqsg9k0aOaPo6CZcE+lYCoX0lXauJeCMCcy04fgoLcBoXSh9m0gInmqZuxCzLR48Q3wx9xLIGrfbZqpVNv1WdPtaOSteaDJWVZRtnCbg1NodKF/nmpjJHbtjRI0fsgx/8kL3//e93kDz99NP2gQ+8n2MftMexNGqSVkOBrJHcNO1HrYU3037H7pau14//3dv+QZImpHUSGWvpC3HJHPsk389am/12Iuvnlbpxfie1r60mtxEzjvJ3TtBdi5e0oNIfBk1k444UCav/e0fJ9JS9hMN1PanZVun6OQQ4akpWP0xEQWjCNWEgY0jTz5PKnOaV8iMQ6rLspHUJaUY425xLOEj0vczsyiFrke/xZLiJjmt481Bmh+MZXLbusGvJQs5SM0XrabyKRI/nau+6OOsHpOILa/VmDfevR2yVtJnZsp144LidPHXCDgGm+YV5S2mlVa1wSt7U50LusZAhzhHdL3jEFy2L5fxh66Og/XjwBETqd/EtefZiXqfbP//ms9O/1TIZZnkS12lmZyztvzU9Q4u6K/USOo/1xiXWNTqvjtPRZL5YfHz7JPKcixFRuhO5ULCV+ETCcSvyyuPiyAxPXndfJMbKfYmYHOVDlaOPEWlMnL4QrZVgkmnFODqphBMLEG5HUXPp/7+9M+uxLMvu+rrzEGNOkVNVdg3Z1dWNZbfbLlsGyxYYMRg3vAAPwAMPjBYIIfEd+AC8gMwDAiz5yQ+2LDHYAtG2Ggu37e52D9VdldVZlUNlZWRmZETcuNO59/L/rX3WjRM3bww5RA5VuTJX7HPO3WeP67/X2vvsgVnBVDJzni6//pr9rV/5G/ZTP/kVaSD9RoZFVHyaCs/wtHolk35iU5+BzUMUl0xq35hkyAZnrB+SxV9ptX19TVVCvLbctv6Ak8o4yFMtZP2UdS79OSudf81aeoXFa+OhTKoh02kWbdRR/nodW7dtK33pom91W5ksKXtkkMVXVLdIxcsJaR43HzOzrkChx7JNxqVMAJ1IYykt6sPQd6Iv5WuXJERlZ8xS+oYUnnlfCCLPMdji+T/ElPO9D2CVZ6U8smZDwFcifUayCpI5aSxv5kiPIY2D1ydAk5ZT556PvbCHpbxhfsE59uQvyYD7kwu5P1gNXX3YFfdsQR3DxqRni3q5qbppKT0cSeI8xu0518cqJxoldsaxvvJ/MEMHl8AMubDmicadpQBJMESGIsNOmBcPy57MxBFvMUgnjyRJN996VL96Fo/1B/eBl9IbPjFVHvkZ/7zP94zz6iyfYARLz2ngMZfYkoqVpTxkdx3fD0yhePAIFILnwiUv3Hr61cr60mZ1SiV/SzLNiLnTkdYRsFgKvbF01hpr6vSr0hlIYHXnZNRQWCvet+Fgq63KwFpvnrfmidN6vSrIqLHwhWFMik/Zy1RAY9l4AJ35YByxgamILkkDHHouVsBKltIFe2qSqQun3AiS+TeteB7XRyIPX+GojKoShnS8YzRgxKl40LhKk+9TQLDy4ynRO0E8pmHwoFKyplSUQa83sS/mZggfzc1y7QGLMVn7M1Q5spRBJjOTavW7rygeZypbnjHUjFlO4zmf+ZIGQ9TqZ5Z2q4dKoChcvPwa9t6FCnmcbcjzpp6loUhfeFuSTVxiF0hxaUH6hjljarH1DyH2eWYq46KJQqtdrzemky6jRYeYUn/u3JprLcBJ6gBeDE5gDLDM+dVXL1m7ndblh0Ana0FvABYJA6YmrRt7r/ERsJrJDBMQq1lFQiIQyR97NSMok/LAeczwbbXrPK6wnjQJyCwdxSp5VuQpW1iw8dKyDdpt25El0VG5bsk061R0LZN4R2Zot1pz7ul5V+VLH6ir3/qw/PUOYehTA5wQol3OfxBxvx9R2DAgmYImrsWuXdVy+7ZZw6H11EIxCyzaJ9pIGDHDRPOpcpkk01sy+ZQgk5gYTOBrPhMu0WgAJ5NJxTJtvvSfP3/Bf0P4UyuXUscH1J2dbZ/RvLZ2egqopEFS3hgNQ0NgrgI+1zbSZqy8reQ8XSasYNEriblJuZiaSznYAyRHNeOfB6KfSYlwrDxllDZ+YXCcOkHrUasYz3KVT1xY+t2qymNVjc5+zAxBGPpUAOcgYByNUjE4SOROgeMgalu5cdKq1ZOKaFnav+X9D9CSTAO5gk1F/R2bqA9S2pQp11G/Ql19P4qDPhbaIwk564nQOmgPPrAykoWG4DiUs+dO2oWLaB2ZFnzIk/0NCAAK88wYOj5z5rRrFig1EIh+DhrZ6IDMZ1ML1plUHjwSCPkwSP8B04lmAmwkzYNmQhNVXUNVsqbMRBZgkzMlfQYwzzOAkIJKZ9Na92/byf62XVTe32hW7I12xd5s1u112clvNst2uQHXpvym7t9sVO3zcuG36vP5C3ofhj7VGoeC5Ho+0e6Q/SiCuM7tbV0njUMHltEa/aIyYxR4gcVSMm8WbMcWbdOWcMt9W1BHmBMRFLtEU517MYv+WOabRuD0XPcMc6+urrqAb27KDFRMjOCdPHnCLl9+TVqI1ZxDde4FHDqyqtz2Qksa55ItLqnfozjQLAAARpjZ8hfwjAU0OuX0fRjOZqPQTAhnxxw4tImXjRjTzQHjLJMOAInTRinJ737u80b0WThqsa4G4lSrahdPLNjr51btrYur9varK4lfOS1esy+8umZfUiP1RVj3X7p40n/jej9+++IZZwhJ+UzSUas+U2u9KRXfk1sSOCqle7KiPrLx9rs2vv1NG6/L3bxqk+49mwyx0+oykxZtZ9C2e52m9QYCiwACuUBLuAFQbMvEDAVWx+JneaVtbwo4aCm0R6Wq9xQvALrEjqWvnpO5N5N2hZWAM5aJKNAAHsw1CdFQnocMvcrNxKOyOuOFhgQMoTVpQ/1A25z5IOiYFD3vYCkSDV6JjSfaMqOrA+vrX3fStR2BialM3dHETe2+ynYgbd6TlYA7UOPUV+PWl6Z3/7Y/d/N+7mcLOLnMIALYwrC32P5E5gsjLbpOtr/MmonMJElXQ0LnNjDbOGWbNrn3ke1c/Y6tf+cP7M63vma973/dRh9+xyab1/TKtgp1aE1ZOsKFBC4+JKZ+AgIehObp9jquydAY9XrJTp9ZlX0OwBhKVp+kMrLOzoZAs6bfTuh5CjOGh3WTO3MEeyzrnSFxZ+nX4nQEBge8LwWoGReEMevUP6J/RbnsA5ajgOggP0d5/1Gpq7A3e2O7ud2zK+v37HsffWzf/tE1+5P3P7RvvX/Vvv3BR/atK9fkfpiYa7//yL75wXX7U/k9jKEXDjhhitFnKDLPYviUg25pWBmFdrsGzkEzjyZqkXyqZD4kqbbZecxRg9tdaRN1DOmuZAqE/r7kqilBX5zIXJtsWbX7sfXWv2f969+wyda3pXGuWLV0TWC7bu0Wa1LK3kcBNA3ZenxoJK0srcb19fMCKPs5nD17xt76wpuKbGi1OpBm15m+vXrpnC0uNl3Q8dvvdx1svE9fCWGsqe/UXmiLF61db/kuOY2c65xILZzUMBUFPHbYHKtFHiu8TEAdyPTsSaP2mClcV39IaodwGbzwMlL4aVQw/4h7CEUDQb3wHnUEFRuOJ02Y1llt2Tr1E7alPult9Uc3ZEh/MmjY/cmS3Z0s2nrWtjujtq2L7+h6fdz0+7u6vp217GO5t7KFKX8i62GWoRcOONFaHbnVAjCwf08pciK0C0csMo7Pd4Y0/j+yfue+1SVUw83rVrr3A5vc+Z5MsisCzR0/CIozEdmGl6XKGRMmpTm6G3ds69r7Nrjxnky5j6V1+tJYSaghTDPHpxgBZBImwr+9fV+aRelQB/T0mSX7wtuvW71Rsl5/04ajTTuztmQXLp5W/4ajUJTWsrSgAMhKTigJZ1qE5kfFSzbL2cDaSuvi4JYtDG5be7Du3Bzes1p235oCCWtOxzJVOEdnzCjdwpLytSQAse9yrtFeOFK6Jw0xZS2Qw2PuueYZQ/kyp/3zwa6r3imS4Pdq3uYyWxXjQi8ccKCHBg/ZzDVO8Y30pYYnAov6BVIMIpljMrfu3bpuTQFnvPWBbb3/W3bvvd+0ze//lo1++L9sfP3PbNJZN871KTUWzBh1q61IWKvSPDu2/eENG1+9IbCt24Q5aUO0Rvq+wuAAI2m05oCH4WmOaOS3nR0BRf2Zc+dP2cpqS/2gujTNmr3zsz9un3vtnJW98yFtkJt/DDoww7pSZpslFtQBJtbTSCMPNgXgb9j4xh9advMPbXjzGza4+ae2c/Pb1vn4+7Z16wPrbq3bWKDhDFGrLFpXre+OBIvvUiP2tJ4pX+6Dn0eiipnM2RxKvKUoYSZ6MgvaJ306Cx56VtMzupBV3eP6czSyshbM2KK7Kk84+oAelwph8rUf3kh3IlqveaT3JGlpxIlDa8uVuq3f2bIbNyQcaqEGQ8bFFRUGu5NiKOV2tMjfR4C95X84crM8BZB//U1hktb0sTKPM+tbTXG+fnbVfvLtM9ZWP6Ppw68JHnuJfoxKTC6trqdKftlpf/PGDbt65X2viJXKXTtZvqq2iKkWgtpIYdF38OHaqmU+N0SmYlUdb1WGnzqm9PlHzqXTVnnly5a11iTULZUPk0YFTYHG+yjqS1y58kOryy87gw76EspxzdbXt+w7f/ZDO3P+gp27cNFWVhrWbJkNB/elHaVt2I4SO5QdMEkH32sIj+JVogfDrlUA/Ld/xxrjtGsNI3yk2XfyR6OUF6zUPGGNlQtWXT2rgjqp500bqGVmnlxN7218fN1H/8gLRHnTL2Py6LSPNZdUpgK3EmVjAXm7n9lmlwGLsvXoZ7npnOpTlen1Sd+S9yCKNH1zwhKQq5/ch15htx/kwUcq9UNV75ZVqE1GKhda1pTWxvfdjsr25m3VWtNkacuvNI7iZDNE4mP6j4fn4UYTmqdJxMiou3Pw8A/euURRv1hUbPFm3f2IX4ODMNESUWQiB43Mqu17tnH7ujrSPQlPz+pDmTR9VVtPXoZVGQJNq1bUf5AAsk8yBatyV9h9dfJ71moPbWlBAK5tqI/0sW3dS6ssHeR5AtAyaBsmUrLEG41ECAsLTfVjWvbKq2ftl/7yz9tPfPkNO3uuYVhQnFDNAVulcgJ7DG/zKc/nmxXqlwasUhZUJrfVYt4QfywABd+SCfeJzLY7VunctN6t92z7o3eljX5k1c071uxtWqO3rVY4BjWUsoJ7WFk/a0qzIHo2qu3YqNK1UXlHfbiuDSsduWwfLK6Ka9uWVbf9elDt2qDW1b36oXp3UpZbVt9W17iz19CLAxwqbE6lHbUiAyZ7ffMUlpCor8EG4Hdv3bBM/ZXFJt8zBpYNU6d+yDEiW/ds1GVi5o5QNJD67kqjqU1T57oiQSPwEpu+N5al31fUqretJBOK1pkFbXzkbEl1xJk0zEpmC1o284gWFKZBzrtDINyVi16V6dZWOEqmgMayBIDjnW79TvT+gtg3fay0Vcmrzny4LUmboPEUjKx09X9s0xaGt63V+9CqG9+x0a0/tNGN37fG3f9nK4N31Wik3Vzmle9zDR63aNSQ+P4AySrwfo+4MEdAtU6/hvNXYd0zM1p9oJL6Q2VxhdMgcjeug6EXBzgzVKy8hwXPLiXgjPtSJwN2eCjZ1t07aqkza6hlLzHrWeApL9SsuqQ+RJPdfYaSUpk/6kPYcEPulkzEHavLhGi3l6y9fM7aq5+z9snL1jr9pp08c8EWFhF4tnhNexcwEga7GYA5KxdQYUigSQBHRUzfP2kzRsASx1y2Bgf/Mnoo4JB9H9PIM8j8Svosg9JZvXHehqXTAt9JPWwnwZKZUpp0JDbrtmjX7MT4PVvpfdMWt75u9Y3/beU7vy9Nu+5hQY9S1s+MZGqWRi0HQGmCKxvX19HI1b0JBFxPfACB6U0w9+l5ddIWUDgmkvOHdrniR0ema+iFAY4vHxAzI9lnz4brpOu8QtMO+JIb5YzhVySqYMXMEELE0DAeJamyv4eS1J6ebavPNlDr1FFBftJdtE7lonVbr1t3QX2RxbcsW/2ijc++Y+Pz71j5lZ+zyut/QfznrfzqT6tf8xWrXvopW1D/pr58XkBoe2tH38H7ILFsWZ3YXnegPguVQauIOad86D+YEo5TG6mbqsS8Kl1REyBq0ialEqM88sD/HGBck3ceqyCsXQeKApquVULeulp1WWYH2nBFfZpT1iuvWbd83gb1V61Xe8W2s1N2p1Oz+500ybM4rBxDyuHuR14V3vKn8oW8kXCXH+l0kEmuqUvcJ0MTTvdTnTMvBFWNSc6eD759lkerX8RVaSO4NpKbyR3WBBj6VfjRezl7awR7Y5M/E3muyFTw80q+DRSyJVOG9TdppiKVmkDD13I+VlJQgIYPyHhXE83fOUTWE1c49ArhVad/ceWs9dVq9SSkWXVBtvCqTRYvW+XMV8xO/4TZ+Z+10qVftMrlv2LVt3/F7PJfNXv9LwkwvyAw/bgNWpcta3xOWv8V2dRr6hAvyAxMa3IYSaOM0TqkmVkD3R2OE1lWx5+001cReJQH1zxKXl330i0CjbSd0lQpCTTqZ5UFHPxDaKeaMBH9da/FUmbsM1i3roqp70PO6p+rJ9a2XvWkdesXrdN8zTpK73brLdtsft7u18W1z1unetnu7bBWJ30bAzxcAxjSfbicIEu8j2GYvrGldyV8ypODHMA4PznQQC4HAk5adCHzeyLgqDVhv/E08VX1rTTFVKOquD6SGS1miTUAmce+wDDuRZ6FF5by1oy/UZW06EG71/uBB1LFVpi6r1DqTTtx+rQ65Bf8eI6Tp8/KPFu0ldPnbPmVV231wuds+ewr1j5zXjhbSf0X9VE4v5JjODhZjCMfAQYgQeDY1PC3f/t37Gtf+wPrdvuubW7evGnvvvuuXbt2w1ZXT9rSwnJqEUnwOFWwd2wQUqXQTbgCpxwH71Lym5cFi9KWz9ioecL6NQFTzMfBcXNVSuesLa8pP+ffsNVzr9ni6VettSrNuHjKyq2TVmrRJ6JvQBIEY+UDzpjJnV8fnZSavJ4OpzxPR/b/IFWaMtVa6rfUKsbhxMwxHKiRHUqVjNSaMm8vsRqF6kR+4h5WO3sE9niKpxUcSF4j+kM56A+Lv9hxZWuLjrISqbJMozuRaTQCPvMWxWvTA+HiocgB4KzwCNYvUzi+CCq/xiRhYPGkOtHnzyx4R9gXT9FZ0FsRDLSbLj1X046K52m10bC2OvALJ076yNdWZ9vjWjp11gGGYJcEDuT69p279t57H9iVK1etSad/SdpFgsZCNlrqH/zgh/brv/5ffdtbTj1gUABAsWcb33IY6mX2AJtmMNJGy1wUTO4Pb93nU4kpDqMd9dnuWk+1XWqtWGP5lLVX1qy2fNrKSwKJ+mTVxpKVmwJuc0FCx73KrbXgqzP5qEq/LL78F9NymLlGCuTJZWWosmD3Hrbd9X2xPZjdsLjavUv17c90kf4lmfMLNIfcNNuC+tUvCpdDlhvqJ1ab6ugLIFujid2+37GuPHH4CVtxjXiX9oCku+Wi6mR4W+KRXKWvIu0iEI0P4C+fX/EgPjXkBVq8pqALNHObk55KbatuvTEoVZu+Tp3DsppLJ2W6rdknGx27fWs9HV0ve2dzq2M3Pv7E/sfv/p79p//8X+w3fuM37I//+BsOimSCpYao3W75Jn+XLl3ytTRs04QgslfbW2+95c/Yz4zvJIcL4kMSjVjjhO3ILOs3z1h5+YI05etWkXYpLaoRqKqPo/5bv7IgQVtwTdMQoBZOnrEladqFxbSnNIAmzaSvyM8jUb+TobRityvumWU9/8BZGvZluarHysCKnpWzHSuNZMI6c53uy7B+Lx3CHpcqenoi20HkQpij/Zl8APX3oUwFxAesdEcLhsZBYPn4yQexyxdP2U998ZS1FHV1opZXnQB0ETQNZmq+ydW7CL1PiZHPnc6Oj3JxREVve9tuXP9IYNj0zj0dKJYKdPsD+/0/+Lp997vft7NrZ+2rf/OrvnsMYYyGAzfXaKE5PrDXGzhA3njjDY+HDUD4DQ1UJPKAtsGFHktIJz2bDO7brY9+ZOUqG8G3reYATcOxPGNGHqVA2XgZ5mXEQMJEfSLX7konacAtapyDzLWUfoWlcqeb3pF5uj1QvjkiUvJBMboGcUpXxBVEffPsUT6AtmR+lVTnG32zD9c3ZI4tWEcvsDuqH1ql3zgsN310TeT5V5kgVyGvB9FXv/S6/IlePOAoJA83vvjyYU5mFsDR75+/cMq+IuA0VeB1VmEyWuD+qJCIf7eAMKvoe0AICfeYaZgoCMig3/WOvO94o/xR5PyG5tnYuGvLS0uuVQCNd0T1W6bKDJe4ARJhs08zz2EEjBYd4joEk+u4f2Tg2FBZ7Nr9jXtWY0N3adSROrZ02r0U6NdJw/pIH0wZ42KDipihQY+qSEXgkL79KP2mdD9l4JxoN+wsi/WsI481PwfU2svW0SNMtWpd+ZXmqQAcn0Hg0SlcZEO51T3gOYzeuCCtrUy+UMAhPOASlICj7KqyXOOoQC4LOGgcRBLg+IgccRcoWleoP+BMmNSqIqjEh3/whl2eSbtgTgEoSFawjSUE+AcANfWRuJ6oMgEa18EQp08DRH4jDOLgPcAaI2z45bmHo/skfErFIwJHKbRsMnTtyUloo0xPlBw2c+eYET9KBPAqS97wCDD+TwVN3OmQWe4Tz9JB6Ur+9ftTBs5JAWdttKUCF1fa8qT3F09w1JDeKfkWWcNBV8AhVQAs5Ig6z4HzYFYfoKWzr8if6MUGDmbYxM0nH74tD+3ccsPe+dIlW2kyVy19j4ih26AicPIN9KdxRNlxyzUDH2kCaCL/nYciwMXUGdJA2kLIAjQQVk0IWjzHX/iFis+LLu8V/RWvA2gQz4P9XmVPfe30exKWNMLnmk7+mSRBmdKhTiQ33stdhsMV+vR+lor5m6VkxqnEpen62dju73RtW9oa4RxJ07kp6KULPTngYKqtlGrWUIVuDiZ27c62DStMXFUAAjGiWa9JdgUc2QIKO0XK9zCkCiKuw+jn3j7Duy8IcPKCZmLmA8BRZlmGxQfDeimTyjb76S++YWsrZZOe8EqZregATpRThDhbbrP3hALzdgqRKt1LRVBCs78HIZQIWVE44xoXYMwCbpZ4HppszzuSAPQj5llXgst3nIpSktYqpbBmQ3ywtd2bj6NS0sySkVrDBhLiO5tbrnXKjEZW60oT0InYnyBw2gvWrDM7wGxdffgPbnSsx5csypThdclvWfJBH8c5Red1r5D8mngPo7/30ycesWSeOUWy1RpTmGKEAZcqySRIfabyy4dXyz5CB8UvESL3sxwU9/hN11QnsewC+VEohB3GdEMzhEu+PG+qfAQyBhcYzsaNvlnxnalfmSXsK4Y+9J6NhAxGS8IKdcrszVa8fxwKYHLECcspYrSR/OEeG6Fl0SQCVKnEbPYNuZtyZbqVt/x6MLxjgwy+J214x9mvR3fUuHBCxeEMhby8QBRJ3pv01MpKjIUeLIWuhAoTbLSPUBeFvgiIWY7fin7SdXrXmzfnuE8UTw+jAEaRA0RokkytKZxaccWv5wxCxKACfgJMDGDcunXLOMrj/ffft4+ufmj37rLmRh1iaZqptikkzrXxURL6kEQ8kf4BZhqVomcA57jA46H60u9tFdSOuKtrvjN2dd2TtlIjUlGftzKUK5ZZXy7T54SlgeD47QCGkIMXgiRS+pvU9tTcwxVQksCpTdU9GofNzHd6XZ/4CO2K84MUIIB5+0EOP6mwkl86lm4IKU6FDs+ByUHxBoWZFRxAgaOVhkMQXZMIKGgaRug484YDoz744AMHDMDheb/XF5hkotHa65+HI20EFQV3r57Z5cchB6eHwxLvgfWYRJvTsWocEX07Zguo9FQ7MoW5VsvABBxYrY6Ak77TWVWdYJmOcKnSskkVzn87iEXIwotBAMTLnC6rqmVPX0nX0jZBCF2/N/Qv1hIZ+cdv8Cwh3vtzgAeR4xrgIG67gBG7iQD7L87pLl0fRN5hzxnhhhCuAAmahI0LOXJwfX3dp+twMBRA4RrgABT8o4X4yMoBURy/eO78Of9+VFGHmd9hWn2GofVHaZNw4+7Dj0oJOHL1D5MyjlBkB57jJuo7gXO3LKd1P6koDapFocmZ61E1Z36D435/hh69dJ4nco2jylIhUVCDoYDja1wetqJysfcx2py9ndo165KffCgzgJO/liivsJwPI0COVkDAOF4DkGByMS0HYHAO6YcffujXnKDG72gbQMAWUxy1eP78eT8W/uLFi76PAUPflMfi0op/w1Gbo7QoNQBTjDnLoGBah6J79YBm+XGJ+GEOtCKPXJPm49Q4wJWdS5m4WR2puRyrMRIY4JLUUJktgLNqesZv45quYZWXrtkmmImfbM54EENey16whzDNPcrXh/IkMGEb5z9NNQAFs4f9fQTs8YgwYF9WkN9z7ZGrqv2DqNKGgNOwZiq4gQpDVikGld7hWw2M6UILyFPe0fsOAMIp0DTzcwwX8uoZJ8+5P3cRT/7lP4uhB8ok50wCxZGCmFcwZ3LeuHHDTS8YLQP4XVOI0Er0b/imxHQYtAmzD2KeG37D/0h2KpNKmbWQMe2klAYPGJYnXnialmmqC7RHoxN/Yt+bmoajpPJjGXtuBLH1DxuYwwAzKzVszBk0mUqboKXldOlhkFa9kHMiijDY73N+WCI/uUjIZdh54pvYV3iuh374shoM5pu7q4aEgRL2XfFBE/2e/7ovQz4c/bX3Dx+OJjWIIPb9eCKUqlBu39mxazfvKbNNtfK5bawKYlTDs11ilSIuBYuxk/ohD0s+HJ0XaKIEXEwkjwoaM5I0kDuyWgXjbGRvfu6SffGtVTuhKBujuxKWVGnMYE7D5hylnqnAmB5Dukh/HpEi9FnKmID5s1ThUBJkaKT3kwmkFsxb9NSPCPJWVuFgcnFkejBag7gJEwYQgAGOkTGYMAkDbcQ73POc8HiPewAxy2SvUWeR1i4oMJ3KFVW93gmQefz8Uz4jPMgHH1SmpJGdeChrNhqhjJliz8RUP0FaefNyovbzuuhXlmwH+bi7ZVc+eN8n0Z6V2YgmHFJHeVxep5KHmLCbO3JTWNStT/REZuTy++xwdE1lU1aYTfVNVtstlSNmZmYbOwP78MYn1i/VrSezrFRnRWzN+gOshZyUJx9pVH2idzk5grj2dgMepL//c5fkR/S1K7ubdRxE7JHsLbpAQGfq9p2ugHNXCQ3gYDszckOOVSlltezKhLIrJtfqWD0h4ECeYaKSS+Xx5R4BRNYH6hyfPnPSvvT2Bbu4YNYarftvAMbbHrCsygM0Q58FkPczSKf+Qh4mLZWaIip6HrlgFhjhxuxKtv3A+yUIaAg0acAN7cFpaBACyz0MFbWHg490IOTiTMIM+ABT/BZcvEdQCQ8NBRAcUPvkI56HSxyUOfep+5iHqwYJ4GCCkYd6lWlG0mbqR1F2eO3WVmxdGv/q1Vt2/eY1W1pu29raGaVHDadkQ/qQAHNKoIBS32oXhHuA40/FEjEHjsDMUzZKr8gsbwk4ywstq7IQSy9udHv2o+s302JEqbxxWaBlZZP85dEpXECjuleKktak0Uud/4PoH/7Ma3pXdDTgSM150osaZwY4Un3TinHgUEC0DBS6Lo8ROAgMBdFqNAWKJFhMhXnr8uft7Ysq1Mp9CYAKxkFAAamScoAIMgpDpLBc8DA5CFd5ccGRUPM8uCjQtPwwIKGvkkngPEwJlQNR7wZIEGQEOADCc8JHIKEoO8IlPO4JD4BwjTYiDOKPePDL+9wHF9Pmwl4IHyZNYe7F83DjmncYhWO6DoXMlBziBTrAgzBwoSTc8pa/25PG+ej+yN794Q+8v3b6zIqdOn1SeVc5cE6QN0gBnlweFEZyFAOaQNcsNiNsVvL6ZF48yDt7YlPHRMeknooavpYahRUBp6JyzZTeLZmpV69/IuBUrKui4ohD9oqr1FKfzyvbAZODR7KT+nzstXYw/aOfjCk37x8NOGgSF1I2NRBwPhFwrgs40oPWZ2fyHDi7phqZUwGJJ4wLPkFTDQrgpAKgTKW6ZYogdLSKmYTo1MlV+/IXztkrJ5KJgj+42OYlGCXCRQh88w4JCwKIwAAKOEwthJLwEf5oyQkfwUYgEUzAwTXPQ3jnEb/BIbSESx4gNNft27c9HWgnTKSIM8KM9+Mewj/vElaknevZdwgrgE2YMOnF5eQ2P6BXycrwr4sKzysSQoWlKFROYv1T82A1aW/AtjEo2Xc/XLcbN2+o7DLf1ndlddHaTWk9ljSpblJOU1kXKfVdUx1Nz/KZ+F2SA0AjdlNN9zUBkJkDU+A0pFkU6P1Oz65eu+laps+LVTWo0orE7ME55aDBVTp8SpDyEA3qfvSPvxKTPI8MHGIEOBRQU8DpOHB8yo0Kq8SqQ/yEup1qHBWtEj9BFT5h4EAMDPgpaHrCLv7ZYOgtO/0POrMXTjXs4qkFO3N2zZYW0S+7wCE1yCj4BniTrG9j8bAvoYNzwYO8USgwhIARFwDBhQMocPjlepbi9+I1XAQqQ8337qkfqd8BDrvjEGfxnSJFGPzG+1wDDAgwkR/CDw3Js1nmXfKBieqpVmNUrUtD1tQIyPWZ1RLIEv2lPHoVu3F8YjYY2a2Nrr338brHwenfbCa/sszOPph1ChFhz9+bB5yoaw7nwkw7FDjq47QruakmcA71w72tbbty9ZoNx1Xr6/1yvakA6WPRAKTwkSNvfHGVjpEDR4EfIqP/5GffPDpwyBCCiR06JjNlAUedv9A4DhxVUFSkO1ONg/nzOMDJCzMynBf2LnBUJmR6PFQFSlNQ8eoYQ/3ejtLds9WFmp06s+a29oKuSR/f5fo7HetsbiqJMo2kZdhYnTaH2cFwtMjskhmmVvQdEGCEEI6WOvKP8MGzz4KK1wgrhD84BDtDEMVcEw5ajLjxz/PwDxXDCyr+Fr/HM8KDIv0BVMJlMAD/g4wPrbpX/su02GqNO7rfETiazUWlRVpV5VxWw4kG7mztCOhbau0HtiUg1WqYeiVbXVmw1RML1pSpRl8Ckz/tD5GnSU4AaIxZn5L4UBqnrfJ34GDKSiAw1a5d+1gah0OHFaZAwzA737AifOLHRPOG3uNXwEeQz7/zzhsPB5xpx5rRB5lq7Dh5XS3LBOCoA1ZR4qJiSElsngenyjs+4EAjaRo6r5zCRXwIPB38bMQezskvpyyzqAvTvbdDB3vb12csNqp2aqVlZ1aW7MRS01baMrmEHAABSFK/SHHOCCr3cMpf4t0ymP97MEQao5UPCiHmWVFbEA5p4XmYcsW4Zgm/gIJ3Iw78B2igeH9vOPhnq16VT3+gllj1LW2zpfL96Na6+rb3bSRz3fdXUJ+hIllgsGWoNPV78k8QnFytaDjaZE2m2pnTqypzLANY4EGeSI+8zgIHgCRNA3iUXv9tPnBm+zggjY056K+s37+v+m5L6yRtkiECeT06uUwkbQOIiKuiwCMt+9FXLp+WH9FRBgcIKwFH6pstYJWwOxs7dvPWHbX0aCE9YygWCVfM/l0lEgZweI/fHhU4noIZKjwi1FEmraF/CAyCh4BUAU+ejpHUNIIEIZBULMU46HZsuVWxH3vrdXvtwlI6+VnP2dUfIDLen2JQlKrsYCgEsfgsXIjf8BO/F5nnAQzuwyXttOBQUTMg/PjnvQBSkcJvPOcdroOLcRepGHeisbQDoOMIR5WA8j+pL/jo1Hev/Miu37rnGoipo1gf1Ctf4dOrCp88eXxJe50/f0bAWXHgVECBnwqhcnWh3QWPv64bNAYfMl3bIMj8oDgQHweNyxN5o44YVcusrryfUv+P+Wc15p5JBvpKb6PVVpIUm2Q3Iy97s654k5wSf1V5YCBCMee/zqdzZ9vJB0k/lJVKT4AAQidqqEKllaGymCZeUUvuFaQQo+IgEjSvsh6aDnmd9FXZdYap60ovLhuQ0xnM1DpmE7WK5ZZazkVnrrNSUz0wmVh6r6tCrrcXBLQ8vOQ8kG7yRp4R4AS+VMjxvPhbCHnxd56FFiv2VaBZP9xH2fE8nkHcc13k8BsaJvzGM1xo9j3CingTs8c1gql4VaHeYOrdmkwtyagiT8uuKbu0D7VABJDEpXpLdSGgIQgqf9bk0GiyA5DsNv1nSJoGmOZUoFP8s3KG//QbYSBQuCrLvONOnRI29cxzf5b3XZrVktUFBI68bwlApX7HysOOVQfb1hx1rT3u7/JE9xOuOcp9aE3rW0vGXVPPDmLIa70vABzKKjAQ3O9l1peNO5TeY62H6wKvkNSqQz7UiJbQc/9NrUe0KI9MudbYy3spPU2F7gWfuymbntVUCcEqeOxetVlihIx3CuRxfjZpV5T3ljXl442ohB/zx8tVRZe+weTlrd+jzKn/gcyq/nBkPWlR9mqg0aWTzs43LlcSF99iK5czuqnxGy73QwHP/chl83b0VYYrFcUXHbTfRIAmTlLB7BZmueCzohaeVZ8VgaOqvuyUla4q/dqcCWlUVt+ycjBDbqr95p/+yG8OoxJ9FCUlIb9inW7P7t7jaIqxWqNWQr2DCL/KpbuFQqegldmHpWSqpfD2UCGs1LrOhr333sFBJftzwEzaVGBZT4Xat59/58fs0qn0CQwfTNihj8Qo0oNhPxmivKZl5nnYHY4Os/LpEyWUjj3pj0rSKtLYlQUbSh1/41sf2K17bGDO9xA+LySZ2FMXKlfy4jMOJKyLjKotybypSGpkf3m5e9mjM5J8pIY1NVz0c6KPQ59DNeVgdcASjRhtSPgsXqxKOzalmdZOrNipZmYNaZIiudz5RXJ3G/HdNEOZ7LSwOA+isycvpjfpAHZ6/UO5J9t7oJ4Wa+gzVSpzoFiTr6r3AOOjVggCFGvYvX9zXJS3dkQR7WSRvQJUUT5fSfVEwR2mAemjYYcXW9vPElFmZdWtCzfllbu7pN/8nj/hL2/pKXWXrGQy0gDQGPjgQXdgO72e5KlrO13JVXfovN2D+77EGlnb7uv3HnsV9Px5R793dL8jd0cqakeWj7+7k/YzYKSPZdquhQToIrsWdNDMMjJZYO+GoE0PZoi3dZPUXPpyegATsKST8gQbYTfDDh/i5geRDz/T03PyaJ4CKT6ipNa85nD9B69UpVxPVKm6TpV9AIVpeBjCPqVEWSWW9lGdAqRElImLYrqG9Jv7o2wxolRmqeFJrNY1Bw+CLfNeguIDC3NkzIXdf5M8SovwrCibvMcMgKFUDxN4MbC8VjHTGHJWnyuBBf+Y4IkFaU+Np1TCn/pSwbv+jsKQ558Pl/7VX+7BTEdRHUp1ICnHAIoDJ0CUC2qQA4mRFtxnQWppvGhpCZVGcJAqHaIoU4JTkRbYM5i7n2ECMF5CU7Dskj/3MgygqLfhZcx1DipI77rcKDBcX4kqGXLeI198E0ofWJ39vvBMLoMC8ig5A6aJk+xW9ZOAA+BkbDMDgKMJnQWgAFECUDB+0vcdjvywSdWXFRzGkJcFGoRBj8OY0RVGRbwQlHDcXfCEPQ6AdO02UV544YpQQg/LT4Ki9aNyQYRXrvK0S+meAklRFir+M0oOGjgvm3QdpDrPr7zsct6td97JXZeXBBqEnM1eXObEDA8nlomFqwqXgvLf+O7izxTKSDIGs59EhtknDTZQl4E9u33fbnnie41bRA6UpKHSHDc0VQKbrz+CXSOl3x1UpE1+6FMdxpD/RV2ly4PZPyLpqq9Usu1QTzarF4aSMRiwVHnozNoMPnw5K9v8c5fBg0dk77XNsgqK3uJYv3OM4Fjp2sN5evi6s6PWiokzkzEf6HqWlfSbgh2DzEbLeir4EwtmdT0rjbJ8L2kaCQYGEtFAUGl03PnWgpY9jGc1LSZLvHsY8e5sOEkI1WAV7ucRvx/GUAxBR5jBmayLvhrJilpxvm2U1A/2ferqNSnxkvX1+lBCmqkFTiz/ut8pq3QnAwlz3+u8XAMQE/WPEXYJtd5D3qR3nH1NjDj2RKhJs1R4xu+kSUxJKVUScNLsAVhVfprMDmHWQqbwFVomZcAp2hO2ts12VNg7qu+e7jkcjMV/BZ7o2WQndyW7zjtKa+9QhiR9FH4+MnIIk2EQil05JP26LteUaeYxUQEqJHZLLBe5AUsNM2FQlVCq6nofZvug+dw8gPl6zeTBItf2MFsS9X2SXzLbfCJhWa5yhXruSTA7mQRD2eQgVY4yx/zQi/KgVomWLBfgIseoVwjzPC4KKcR7s8/2I96nXPl+w3cW3om4I/zwF9dQhB3xHMSRnsgPrBgQeZ9RTLhVAaKi1r1MA6ZfmJNWZk5evanyXVD9t/z7Tbkhc6fZsInqXcWmZ5IHPStXMZMoUYCDLKVRWVW6rkk71kv6lkR8gAYTO5lijHsKyGI2neSemSGUSZ26rio+caZnjKWNFFe1rvKqK96cS0oDbHNZaZjyvN/nsMiHo//tb/2JF95hRMYAEIVMy+u7XMqNyoyWax6lWQMAdP7v0H7vPi5l2LtKW3vYtdq4b4OqOpZ6VslUsALOoCYt1Llj/+Krv2BrTb3AOZJjvg40ZDuj4lM40Gw5keaD0k35hEDA3BNGfHDkOsKMcPATw9H8FkIN8U4xvKAII1wo1dd8wh/vRxoiLqhcRZOwo0vFmso8S6o4W2fUXLT/870f2Hev3VZDtCj/0kajpptkNEhj/86ha76bSGMTPmnwvEqblKWpeBbxRPpxgzHzmE4TVMxP8Rq/hBtlA5CWFheV1oHve32c9K9+5WcScP7lr/33/NERyFsMXFW4Eh2ZwT24oigkcbw/h6IgnzSx7WqmsFuZgMO5/jlwqpmAIeCMW6rs/ob967/91+2VJb1QxpSSXpVgkDtPuigqCyK/0WAcRNGgRKMS73B9GHAw6VjCwAxphIMlBewzwHvckxbeifeh4vVB9RHpjvfhaVplOQyZvqTfWio7gNPLSmpgWva73/yOffOD69YtpeMAAU6MoI0cOAIMwHHtlMKPfIU7pbjP/aTfVT6Y+0F5fiJfuNGIxDuRfvKbKV1jo/U7PvqP//wX1aiK6Hv4UOEhzPeboVoSvt8whYKpD8xP8zlqUpVxPZ/x+4x4pr6KxG980WYnFjqeQZyvGSIYAhhCH0RlUXG0dvsxIIiKhqKyo8IPI+IjDLgo7FAIzOz1USjCCOJdnpFX0h3EZM94jks62HqK6ymrjHUxvfcpNWLG4RgIkOg4M1sA9sEBLBe5mGMqYXf9Xibb7qiXGogZZtgZ0xAzvSQTDbfaaPszBhgIhxG242TIJcJBoDI/jPEHaAAPezUH678SjP2qgj6Q5Vc+nzZjbiEMvggr5+I9la06c3LRpPJFCAuMwNLyx+4zuGgBmF1n4noeZwWBD3LhOgLhDy3DGTswa34IK7RN0DzA8CwW3R3GrDCFuUbTwZFGwgnwoI0iXp5Pmcot3HsaqW/XQ/M5fbAusJ6povR+AtMUSAU3rmHAietTv1S8/AYg3Qoa9Y+VITfVfvXXfs8zfBilgslbFdGsexilIevdCi/SUcN4FMrGaagTU60aphodTJlqDA6M6rJF+vdkqv2yvbose7yKjY0w1GQ2jGxze8s2NjYcMJQBEzQRIAQ4EzAOIg6RQvgR+mIeCSfuo+zjnjCjj0M8PMcP9/Eez7mOd4vEM8Jgx5yDqBg/wk6YvhivVbeV1WXv4zAoUBlJYPmw2Fqw//ZH37I/+sFVy+pLei+Zanv7OKpjAWkySmETR3DcBxWf62J6zQJEqJi3uCadXIe5Sj5Du7OylGPzgdhx0r/71V9OUuzTrYXawzj84cKgHWY8Pa7344Hs9XSdzeX0+/zfHpd9k2/VyX7F6dpHFQFRP6p2v4YQJrZggmM5dCxog2Nx2X4MFQWgKDiHEe/RzwkQ8S5pJU0hQLMUz/BL2vZjVpIGA+pgQE5e0cQQ8cCQolX8jPIxS3p3jwMEHY57vquwd7d/ZynIRsgRz9htBu71h+6yYC44fpv1A/NuaBzXMgqPe0yoajX/dMAcueNkkWucf/offs9vDqf52uJolAr/ceggoSsKUfEaU82nY6igGVWrjncHByoj2cjjNKpWzbbs3/zdv2YXFvR+aShBHVq5pI4v0nKMRFojvZE/F74cLI9DDwPSIjFc77vIoIEYzBlKI/G9pNq0/3vlqv3Pr/+JjVurSvf8wQGXk0lFwpXCe7qUJoXuR0XZeFT69//sLz4WEp4rKgpJ8bpYiDRUszQ7MwE/FO08vy/p6PT4oEE0H459YKHEfDfmqx0fQ8T4EPT4WuM4ab8WtliJ8wCxH0hegucxyKfdPF2Keh6Xpf+OkSEHjm6PyA/jd5Z59/iZ3W7Cjeuj0JOaE/eSEiHE8+XgKPzo73JglC9cO0aGPjUaB20TGmfWbIOL2gOQcD+rUV5qmCdDaXLn49hqjypnY1/lWR93j5WhXOMwin4EphWhI/hYTBjHx/Rpwo3rg+gB8BT4JT06UaxzZegorMKfLzuHcYr7aVACjif0COwZw30MnhfuE+AAybzrl/T0KQT5kfgx5Iy/81ZtPkmGHtJUSy89K5odSgwzzE2xwm9xjctwtLLrQ6ZuonmWBadJWU/Tegy2IWJWGl9y5E2/ypaN9xXU3lifHhF/MV9QPJv32yzN+j06qwxULmR8KJt+XCnZSJ1itDPb3PpRGfoNaaBMY5UHqeE5TCk+Oj26nBF1zC6YxzEDYR5P/ShTvnqZofh5LPK/uYI8AuP3MZn0HIFVc1NmK1YA4N9k8t+Yql4Ss6wBl+dFP+HCtGIAB2I3SmYLMCtgVK64QJQlHItVtmvCQ0/+AY4KEyEivmdEIch8T+HDJ8THyJhBcJxUr6h81WoMOIRYwGGpALLEpvZ1lZt/rhGxritTKwNwIF+WgXABvH14vmwVWXl/RH7SRKNM+cPRSEPKSThPix+dItGQC04uWEchwKO/fo2b7hOllY5MKczj4Dee6clujE+foqJmK+24qVg28yh+xw2v81+ZV/9Pgx+fZst69v7JxPIUqCg8kYkpePIpIZ9WYhZBnDwARVm8pOOloqzN0gsDnMhEMSMAJ/hx6KACepZEmgALM7I5sYDZy4AmJpk+j2l+kSnkYLZc4774/IXSOHBQgGW/yY6PQpRLsXBmC/BZEP0ZpvyzfIEJn6SpOL3/JR0PUc7B+YPk5vTilD4JL2ZE9KQ0DlQM93kiAMIsa2Y0FwcIYsbyS3ry9IAszJGNF85UCyqC5kkAByL4YhxzyuupEvkCLJwuzTHsTPvnWeyS86Ty/ZJ2Kep/Fjyz988NcEIISKCve8/NEe75zU93ltky29ryOxyCFPwwxLvEV6rk6SiE/6yJvMUaoFgz9DSIVZ/8Y5cgjvug/ElLkxPP2AX9ECrWxSw/SwqZgqFIU8gUv7ufnOURT2llaSH9Dw2ciHQePwkqJto5DzcyFwmHnlS8hEk4HDY1JQ87v35GNJu/uC/ycZGXs5jdaTgOMgQLELPS8nFpXl6Owo9LRfmBIsxpHLncTWnGf9Bzo3EgMhUVtsd9Sc+MisL6JAT3WRODLdEAB1iKFk5R9pxF3AcHPTfAKSZqlmYT/ZKOnxwkOVBcwAqfgovXLxohR0XLhby5eYapLtef57+F3AUX6bnSONA0kfsk+CU9O3Ic5WD6tFA0EO6KQuaKHM+L9NyZavNov+cv6XjJ9YzLk1zmDeYUQvYi0rTzX8xDACR3D+Kg51LjvKTnl15k0ECxo1ERPJhujNjG5ihFkMwCJui5Aw4Uid0v0cdF05goTzH3n9XPjGyCjni4cMWxHXswk4sO++NSStM9Bni+x+NzRfRj6M8EcKK/E64zdS/Wk7nXZmb/H5U8hErzkvGyAAAAAElFTkSuQmCC;" vertex="1" parent="1">
          <mxGeometry x="310" y="150" width="156" height="162.06" as="geometry" />
        </mxCell>
        <mxCell id="8nYDqPeVYNA1PBUkEucR-13" value="" style="shape=image;verticalLabelPosition=bottom;labelBackgroundColor=default;verticalAlign=top;aspect=fixed;imageAspect=0;image=data:image/png,iVBORw0KGgoAAAANSUhEUgAAAQkAAAC9CAYAAACgRIizAAAAAXNSR0IArs4c6QAAAARnQU1BAACxjwv8YQUAAAAJcEhZcwAADsMAAA7DAcdvqGQAAFpqSURBVHhe7X0HYFzXdeWZ3geDXgj2XkWJIimKalTvkm1JlrtjZx0ntuPE641L7GwcZze7m2TXdrKbuMWOHSVWl9WtRooSq0iKnWJF72UwmN73njcz5BAcDAASLAD/gb6G8+f3d99559533/u6cDichgYNGjQMA332U4MGDRoKQiMJDRo0FIVGEho0aCgKjSQ0aNBQFBpJaNCgoSg0ktCgQUNRaCShQYOGotBIQoMGDUWhkYQGDRqKQiMJDRo0FIVGEho0aCgKjSQ0aNBQFBpJaNCgoSg0ktCgQUNRaCShQYOGotBIQoMGDUWhkYQGDRqKQiMJDRo0FIVGEho0aCgKjSQ0aNBQFBpJaNCgoSguymzZ/sEQ4vF49psGDWfCZDLCZjPDaDJl12i4WLgoJNHe1g2/P5T9pkHDmfCUOFFa5obZYs6uOYVwNI7OfmloEsnsmpHhcZjhcVlhFvLRMDacd5JIp9NIxDKqga1CMplAc0sXgsEQ9DqdWq9BQz6SqRTKy0pQWVlWkCQ27W3Fuwc6EIiMXo3OqnLh1pXTMbXKnV2jYbQ4bySRkoJOxBOICOsn5ZMwGI1IJZMY8AWkFUhoJKGhIEgSJS7HGUqCDU5M1MNf/XIr9pzoQ2QMSqLCZcEfPbAM1yyqEzVhyK7VMBqcN5KIi3oIiEsRDMWyazRoGD3sNjOcLttpJJFIptDQ1o+v/XgzEokUDPrRNzKhWAKP3jQX9187CzXlzuxaDaPBeevdSCbTCI9BDmrQMBJi8STe2NEgtpXCWDWoXghl97EeNHQMisq94GG4CY3z2AWaFnmY/acGDecIuiBefxjPb2tTBMFKPxZYjQYcbvPhYHM//KFodq2G0eC8kQT5gT6kBg3jgUAwije2HkdI1MS5WNX7R7ux/0SfZptjgJZMpWFCwBuM4aktzdlvZ4/9TV7sbepDJJYJpmsYGeclcMlejWAwDL8/kl2jQcPYkB+4jEbjONHQgade3qpUBB2NscYkiFT2c+HsWqxduQB1dZXZNRqK4bwoCfqPiXiuSDRoODewp9xi1KHaHEONLPysOouF+3JxGRJyTM3dGC3Oi5IIhSLwDQRVFFqDhrNBvpJIJBIY6PPh4MGj2V8zMBr08Pb1oL2t44wMXoP8VlFTiRnTZyBJC8+LQZSVl2Lq9DqUlLiyazQUw3khiWAoigFfSAsOaThruBwWOJ1WqewGpEWZxph3EzzdfRUeQENjIza+uxnHTzRl12ZgNpmx8qorcPMtN8kxjKf1tGXGhVjUp4aRMe4kkYxGETh8HL739iPNUtSg4SxgtZikoo9sP329/Ti4/wDaRE3kgwSwcP58zF+yUKmKs4V5/lxYF86FwXj5ZmmOO0lEpNAGn3kFwceeBUQyatBwVmDTPxrLFJURD0eRiJ+e2avT6WFz2pHWC0Gcbfp/IgnLjWtQ8rEH4Jg3K7vy8sO4k4RfVMTAz59A4vEXRTNas2s1aBgjmBU5GneVSVXFSOBc4mLRBFBbDccnH4DnUx+G2enI/nB5YdxJIvTebvh++SQiW3aLZtTmAtAwwRFPwrhqOVxf/Dg8SxdmV15eGFeSSAv7B/cewOC72xHzBbJrNWiY2DDZrXBesQglN1+XXXN5YVxJIhKOIRCKIiLsq0HDZIJdVHGZR3M3zhkDA34EtCxLDZMQNrsZ5eUl2W+XF8atj5IEEQxoo+s0aJhsGBclEYvGEA5FkEiMawz0soDf74feYITVYjmn/vzJBk5aRJjMFzb4HYsnVBKg0WiAgd2nWZjMRrhLNHfjrBEORhGLxbQMy7OA1zsAsxCEzWod8xwJkxWcdSoUDsOg08HhtGfXng6dVGCd/M5szPGwO70hkywVF5LggDJOmGs0ZkiC59HL+VLppPwWQ1V1hVp/uWBcSCLgDyOhTZF/ViBJWG02IQlLdo0GzkAVDAbV2AyX6/Sp5kgOkVAUWzZtxradW+H3xYD0uSbtpaA3hXHdmutxzbVrVHkQVHZqfIiU0ZatW7Bhw0b5rQwffeguXLN2tSKOywHjQhJ+HwdzaT0aZwONJM4ESSISiaoKarefnpBHkvjFz/4dJzq60RsKIJmyQIdzdUlS8udHmcWKObVVePDD98FV4lYkQDWz4e0N+M0zzyFuLpVrssEcasL/+6d/gsvtuCyI4pxJIpng3BERpApktik5KFIwFD4/PR4U50bx580W04R1dTSSOBOU+3Q5jCYDLOZTg7BYxi2trfjyV7+H1fc+gIVXr4bdOT4jOVOpJI7s2IZNzz6Or37lc1i+fBks4gJGIxH8+teP4Y1tu/GZP/trBHxePP6P38eXP/0p3PPAHUJiGdUxmXHOJBEOhhGLZYI9+eDEM93d3Th+vBneAV927fjDYrKgpqYMM2bNgNvtUsR0zpB70YkyivV7oRMSkoNmf5CfqJjMJuidznEJNGokcSZCYlPJVFoqqeW06e8TiSR+85vHselAK2756KdRWlGV/eXcwNI1G3SwG3X47b/9CvaYF488/ADqp01T74d57ukX8O6uo/jwn/xnUTI6NB7Yi7f/7Sf4h3/4G8ycPWPSv2XsnEki6A+f8co+qoqmhgY8+/TzeGvbIRWYGy34Lg7TkAAeCYgdJ6khRMRvDFxNrXTglpuvx403XY/SMk/mx3OATgxU19+H/vd2IeX1Z6yI/yN5WM3QT58Ky5w5sJac+9TsGkmcCd+gn49aWmn7aSRBF+S/fud7qLn6Fsy7ahWs9nPrbWCx0tbI9WUWgyKKXmnY/s+3v4HPfOYR3LDuBpjMZmx8YyNeeu1dzLnpNsy/aiXC4ub89Ht/gY/etgKPfupRlFWWZw44SXHOJOHzBaR1PeVq0Gfsbu/AM48/jRfe2IyP//lfo7p+WvbX4cE2me9RsIlNlNuMJ10VThgSk//5YkmEh3SxyhZqaHr3/vfxq//zN/j6t76GG6VgzXkSdaxQSkTux79nH2JHjmDgf/8SqVhUFIWcLRyH7Za1cH7kDthmzoBVFr5s6FygkcSZyJGEw2GHKW+IdjgcxZ9/4y+w6J5HMWXufCnnsxtASHJgO2SRMi0VcrAY9crWaF0cV/bzf/oxqhwpPHjPbZg+fQb6hDhee+V1vPTObnzyz/9SzmtBV0szfvGtP8aPf/4DLF9xBYzGyTs3xVnrZfVQWZIFsGf3AWzff2LUBCEqD26zHlNdJkUQBI8dFVLoDCbQGUqcQRC8cKdJj9mVLlx784247ZGPo9vrRb8oABLVaEFS4N9w96JzWqBzWaFz22URo0wnkZYWLR/qWYh1XS7R7gsBkkM+QRDptJD3YL9Sj+cCh0mHWocRNQ6TUg+q/GR9JJ5CWyCOq++4B6+ufxObt7yrAvJlVVVYfMUSlLsM2PnW68q+aoQ8Ft96D373+ttobW4d1n4mA87JqqOhCCM+2W8ZMOjU2TOALm8UnvLi/clSViLz9Jgi5OCx5slKIYTecALdssRI7XmQMkUJCcV9ilCI0tJyxCIRxERZjAWRpmYE3t+DREfXyb7yMUOUR+jQB/C/txNJ8WE1nB+wIvqVyji7CmkW+VAlUrVC7Cbn0tK8grEUmgfj6AonlXItqajEwqtuQkdHEC2NLUL+OsyYPQu33nItXvr3f1B2RtzykUfx/LMvY/fOfUrlTFacE0nQy8gvLzJs0OdFPB5G3ezpMFsLy0EWFis6C8tlNqhuJlJ5SFwKkkOPLMF4Jg6RAwnFLf+rFDLxiETkPoxf5AKVrc2N4hLolQ85GpAQYs0tiMoS7+1F5MQJBPcdQKyzC+lRPJW0nDcVjyPS0IiQ7Bfv6ES8rx9hIYtUKCwn0FTF2YI9Gwk1MeXpUK+OHAjAZDJLuY/++VrE3qrtBlSLerCL+qTd8PC+aALtolT7okk1k3bujHo59sp1d+DQ0ePY8NYGNXWew+7AiqtW4MN334cNzzypiMruduPmT/0nvPHOFuzbsze79+TDOVlyooA/3tnVC18ohunz5xcsSJdU9HKp6CXKF2TQSIeYsE1fhIWVOkkO+fqEUecytY8RVinkQu+A3LH9LZSVuFBS4hmVHI11dSMx4ENo4zb4/uFf4fvVMwi9vxex9k6EDx5GmorkTDvNQO470dMn6uEw4m0dCKx/B77//S/w/fNjSLR1KqJJBoLZjTWMFRnxf+bDZ8XkK/psLveoVJ9VxRz0ojgNsBmlARG7oWkEpDHql4bIJ/YWl+Pl8xEbMI80YEvmTMfsBYvR4/Wh4fgJ1R1bLgrj9ltuxrbnH0d3S4tcTwqLVq1Be18UO3fsRY+U+2TEuTV3BWRfe1sber0DqJs5O7smA7dZJ8rhFDkYFTmk0SeF1SsyLyTMwALLr95OIZQKIQcGl2xCDiYp9EJvIu8XJWBJG1FeVgbrKAOACbnGyOFjiB09gXhXF2LHjiP4wuvw/eY5RBuboCsWiBLyS4VDCL+3CwO/eBzht7ch0deLeGsbQtt3Inq8IaMmNIwb2LPFFt3XPyAEkUnJHg50SUulorNhoVJlgJJ2E4wLOYh6GBByoL3lK1WC6rbMqlf7uGxmXL3mWgwMBvHO+o1IyL6clHf6jKm46/br8NK//BgRaQjsTjeWXHcTtm09hC0bt2ePNLlwViRBRo9H4+ozH8lEEk0tTejs60FlXb0UTMZFKJcHX8IHLxXdLAVMP3BQJJ5XloD4gxEhi3w2p9pgYXEfpxQco8+FyCGH4x98gDmzZ6OivEL5jyMh1tWjXIPI1t1ItHSobs10KqlUQXTnHgRefAODG94V8ujJtGq5Q8o1pCJhRD44isHXNiD4+kbE5N9Jr1fkjkhgOQ5n5IqLHxvv7kHSr028M26QYognEuge7FQqohBJiHmpil5KcpCGxSp2w8YoGBelKo2RIgdRqoxz5RojEkrORt1ib0pxZEll2syZKK+binaxg8bGBhjlvFabHQ999GFEuptxfN9uRMJBzF2+HPqySuzafwRHxB4mG86aJKJDAoQstMDgoHoZq9XlQaXHBY9IPSoHugkmIQfGMEgOA8LmPiEH9ljkHBYWuZJ6uX3YAoxADoqshF127dyJhQvnoLy8tGgLQzBukujtg15IItnQilR/JtGL63UmI1KJOKJ7DyL85rtCGOJniqSkclAQyZkUdyqyeQcim94TMmiFzmIS1XHKaFMdfUj29ss5epAKhka8Hg1ngu5koXInYQfigczzPsncGbthw5KxNYOq7Kz8cTE4ZWtCDoNib1GxlRw5sEeNSrVE2ZtRLSSH/PKy2m1Yvuoa6G02vPnm62odE6emz5qFDz98Lza/8ji83V2w2R1Ycv31aJQyf/PNt4Q4JlcQ86zdjWR+0y9gJetoa5eHbMGC+UvERTBKhTcqJmcQyi9+IHMdqB4GYxnXQu0nCwvZKe4IC6zMalRqo1jlIjkwjjHI44VieH/b+5gxfTpcrtGl6JqdNhjNZljmzYChvkYuQoe0qCCC9wG+j0FUQPxEszoXs+zUb9KSJH0+JDvE9xTpS4IguE2aQ5vNcu3L5sFQXgaTGJbRos0WPlbQrlj2hRQhYwD5IBHYpLbTbkrFbkgO3C1jGyllb/0RIQextZy10uDpfrhpa1kbJTkMhxlz58BTOwUHDp9AW1trJk1cru/BD98PU2wQLUcOIOj3Y+qcebBXynZHG3Bg/6Hs3pMDYyYJVgi6FYVw7FgDQsKis2bOEHIQv18Kh+zNysy4A9VDjltYLELkqpCpHiptJuULFoPyS8UAKB+pSNgL0i6KYKCrE6Ui94xmi7q+YmBQ01pXC/28WbA9cBtsd94I0/xZMAjBMCmMC41UZxaFwGUIWZEo1HppzRQ5yPa0QGN1NUxXLIHzY/fDtupKlWyld8sxR7geDaeDwXAGJ4eCjzHN8Rz8kzJhRacSYBCcdpMjh5DYhk9soy+SaYxyoKEzJ4I5EsyuVA1YEXIgaG9JvRF1c69ASfVMvP3GepVNzJwYjk797Kc/j4b3dqCz8QTScqjl190Cnb0Gr7z8GvzSmEwWjJ0k5AHFo6e/44DgQK8maXljkQSq6+sVOVA99Ak5DAg55Bc7yyZDDgZVyM5RkIMiHHFPBsQAuuWYg+JbclBOd2szFsyuRWm5++T4/5GQMJlhEuVhmTEDrhvWouRjH4LtxmtgKBV3RRTGaHpHWPkpefUiSU11NXA9eh9KP/Zh2BbMh3XObKCiHGkhFA1jhBiKIukh5Mwf+MwdcMElBF1tN6JcGhalVMU2mFvjFWKgbfjFNnKgRdC1sAs5sPu80m5SQfBiyDVGJJx+OZ6tqg728hq88/ZWdHX2qIzeYDCGG2+WBibgR+OePfD19qK8ug6Omqk43tSDbRu3ZY828TFmksgUVvafeWB6cU9nHxJpM3Q2t1IOXvEFKfVy4MlIECpHQuQhg0uMVRQDC4zkwD5tdpMG8gyALsLRPbtx7Q1r4JJWe6ywTKmFeb64B0IWjhuvhef3Pw7LVUuUKzEiqDjsdtjvvhllf/z7ME+bCv3s2bAvnAej6/KcwWg8wMbGaJDKbzzdVSNBRGIxURAl8NjMihwytiHKgd3noiqDed0VpBiqC3afsyEqF3tjjGs4KFUoCweWMfOyO5QhnLA0dlabA/ULFsMzdyHWb3hT3M+MirRazfi9P/4UOo/vR8OhA7JvAguvXCFux3T88mdPqjkxJgPGTBKs8/Eh7gajzd3tbdB7nLDU18ErymFopiTBwqp3MrtyZKmXKzRKR7oVPpGOctiT4IWbpFC2v/kGFi+YDcdZDNnluAuTFLS11COKwA5DeSlsy5dmfx0Bcm0GISbH2mvUV0NZKRzlJUox8bo1nB2i8ajYWPJkHIjIxCj0iAkJWKfXqbgRn/GAKIceqcg+aTjy2g5lGw4hh2qbUZSDEQ4GMvOONxS58iI5kGxIDkPtt3b6TNTMW4T/9+P/K5U/rF5oHApFsXLVSly5eCZCXS3obW+Ho6QEM1csh6m+Fv/xqycmhS2MmSSGQ0NjCyylFaifMy+7JgOeoNpmwDSXSQqLvRWZ9SOhX1qHVn9cdVvlNRBKiTCSzfRajzmNhqObUDOlXoyIL4UdfYGQ2BgkCx0/gciRY4geOwHfY8/C+/c/E4kxioCjSN54Szt6/vSvEHhni+oxCW7fhbDqLSkklzWMFnyP59BGRHVR+73wiBvH4HeL2AZjXPm2QTAIrlKvhRys9DNGAfJBTyih0rKpRvKdTcbNOHRgpseGFQvmYe2N9+HZp57OdsNmtvnQww+h/+h+7F3/OpLxOKbMmoPqefPxL7/+OXp7Jn5sYtxIYse776OvOwC3p0x954EZWKpzGpUPyDJnt1axykOp1xuKK3LwswdECi9nAywskoNKrhIlYhAV0dnUhOULl6FcDMcwynhEDuHGZkQPfYC4kIP/hd/B95PHEJPvkNZnNBVcbSPnTKViCL22EX3f+ltEDhxC4siRTCbmeZxDY7KDT39oGTAWlkjEYXPYERJyJznk8wOzK9kYMf2aWbk5WytWlow7dIu9MTU7Rw65Y5JsaGtM5WZglO5NdU0NVlx7LX780/+HwQE/TEYjwuEYptRV43pxeVPRQRw7sBcmswUzF1yB5Td+CD/8+x9kjzhxMaaaRXleKGg5OOhHa58XSZNVSKJEJafw4TJTkt2ZoyGHYCypRnuysPKTXQj6lUyQYaCThMMCi0UjOHHkMK655lrYbGNzNaItrarl9zOd+rFnENm+G8kgh7yLzM2bv2AkKEksRJGORZGMBhF45lV4H3sK0aPHEGvrQMKrEcV4IZFKoT8QRElZOR98dm2m8TiZei22wRhXsdwaIixuRY+QA90KJlexOz6fHHKZlw45Hu0356pwXpT6mXMxf/FqvP47UQ3JhFpPWrvuphvgTMfwwZZ3EPb74amsxsxlK7Flx0Hs27l7Qs8BOzaSkIfJWajyQf+wtbUV7ooSzJpRh2qnBW5WZqk8IwUlSQ7sAWHMQQU5pYWQ/07CmQ06kWw4MCffAEKRMPbt249rVq0Y07TrvN6kbxDpphYk9hxE/HijSrFWCTr0dcUY08wmDUeh42Q5Qw1OpWtzboko0vFEprWi9BQfNdHfj7gcM3XoGFKdnRwSW5QcNYwedCWjiQQsoiRYJlKPT5JDJvV6ZHJg4t2AuLH94q5wjBCHBeQ3RpyugOTAfAtmaw6NY9A+POJS33b/A/jxz/9JXIlecYv0SIgiqa6uxrVrV8FhTOLAjm2iZkyYN3smVt+0Dt/+7p8jGJq4o4PHRBJ0+Yf6/Rwxd+TQEdTU1WH2zGnCvhn1UAzssmKeA3srmA3HPPr8QBENIJd56ZIvQzMvqWgCA/04tG8rllyxtGhQqhBsZaUwuJyiGrLZktmuSpXzwF6Lqgo4H7gL1lXLZa0QQrZLlKRgnFILx+03wSoGAZtFCOWUsmLGJgd/iVMNS6kHRsfkn/9wvJGU518wT0LWJcVeHPKMmXBHVcnKbBd7o7IsBkUOUTZECZVklZ95mYtxZYYB6LON25kZn7melKjOgPJZC5G2lWPz5m2IRrKVXza/etXVmDO1Fh373xcV2Y2ashKsuekmDIR12LhhEwITNE1/1CTBJBJ2Tw1FKp1SJOFwuFFWWZldWxjMvAzHk4ogGHRid2aOHFgkOanHlGwawXBp2ZFYHF19fbDqkqgWcjqjtS8CVnhjbTV0spivWARDaRnSoYwq0EsrZblqGew3rYF15RWwLJwj1yXHzhltIinbe2BZtgDWa66C7brVMM2brfZVy2AY5qWLoJ81DYa6WuiczkkR3b4UkJJy46S0bpsVHrEP5taM1GORS8vOpWbT3hjLIGj4TMhitiYTqzKZl4UzfXkcKl7m6DBBK2Fx4rZHPo/nnv8turq65Dr0Uj/S8IirfeWShfAYU9ix/i317o6q6lo8+tk/xC9/+a840dB4xlSPEwGjJwkppEQBkoiEI3LzrSLDzXAMM3MxCywiLMwHTbeCbH5GWrawOQmCE8kwf6IQOeTYvMcXQHNbF9asulZFmceKpNEEfUkJrMuXwDR3Fgzl5TDNmArbNSvguu82lNy+DmlOLFKofgsZpOSeTdUV8Dx4N5x33AiLEIOxqlKlY9uvXwXrnFniK7m0ZKqzACcXLpiSLX+JZAx2Id787tGhyJCDNEZiJ7QzpmUzuUpWKeTIgcMAqFaLpWUzsMmRoyrFW+yW8TI5FAxiP0tXX4veSBz79n+AcDisTCUWT2HB4gVYsng+Du/ZjbaWZuUKr7zuBuVSv7NxC/r7vZmDTyCMmiT48OW/00DW7erukocHOEpKYRuSq5Cr1Cyw/kgm85IjPin1WCwMOp1My7abFDkUgjqOKjC2DEm0dPei+YMDWHvdmkxLP1aIS2AWt8FUXQXr1Uthv+tGOO+7He7774Rt7mxYZ8+GUZSAMFV2h9OhdzpU8pRt7hzYly2F5zOPwHbzWtjvu1n1j1uni5Lgm6eyboqGcwftj13WNivf6FW4XBjjypBDZswG1WoONPRTadmc8MikXONCoHLIHYcZw0O7Wmlz7MG44+H/hPUb30NjQ5MSs2xIrQ4Hrl59JRYtqMerv30avmBEKZgPff5r2LBxB45xeoIxzp52sTF6JaEK6XSj1+sNOHL4CJYuX4opU+uza7MFmi0wZl52hpKKHHLPmcSdGZhTPC2b51StgpAD02OZOBOQYwZ9g+g82oCF8+eqFuZswfEaNlEBzhvWwLZsMcz1dbDNmgW9cWQFQKVjlFbNtmAeTDVV6hhczPIcUrI/n4GG8QPdXU6173Sc+doE2lqm1c8oB1bqfDeW6RLsIasUW8ukZZ9Zviwv2huPw4aoS1o+5VoUKcYFK1biwPEO7D1wGFFRE3x/KOMp02fMxMqrr8C2d17Dzv2HVHLhtPmLkbKX4913t4nCEOU9gTAqklAGP8zD2vXeLpSKXC8RX/3Ug86MsegScshPy2aBsXFmFJlp2ewFGdoDwmPkjkMXpSub5ML0WCLJodxCEoZAEFVTZxSMk4wWpspy2IRo7MuWqMpurCiXQh4yeE2ugwsDZ3JRp5GS+iY3ZBHl4Fp+hToOZ9A2iN+sYexQdjYM2EoHgwFRrKfemqUaLimTgLgErNS9olbzA+Dc6mRatrixhdKyc7ZG82JjxJwJuiej0YBmixW3PfwRHDl2DMePH4cpe/ykHG/RosV45EMPYf3Tj4ubHlO2ctenPoMnXnoJm7dvn1CxiTOfWgHwRTuF8iOIV994CWa7GS53iYozcI7KNnnQ+VIvBxbWVKZlCzkU6wBRE+EKOTB/Pr/QCb/XK0sHlqxaAMeQV8CdD6T9URWQhD8k/46I41mYlE71mWs4W0RF3pMMCoGjQ/sH/NlvGfiEFNoCcfSJemCsIB80L2ZeVtlz81pm1g8FzUtNhOvPTIQ7xNxGxJLVa7F5xza8t3M7wuGICqayQamqrsTtt96EYNNRHNi2VTVunsoqXHvXR7FnbyP27Jo4c2KOiiQKwWAworWtE56KebCW1KIvpkOHkAP7n/OhCovk4DKJW5EpLJVbMEQyEuwazaTHnsqAG4rgoA8BXz+uuHKZ+l7oOOcC1bKIQRrsdpjq6+H+0sfh+fKnUfLFT8LzJ5+F486bYKqoEA1rUttpGF+YTRZlW0PBZx30+1RjxC7MViEHxriGugMMgjPzsl7sLTfas5C9qTlORO0yoMhh5WcLTvZ84wOfQld/BIcOHoJBXA4GXvk+05raGnzpS7+Hf/7e9xHmBETyt+6u+3D8WAM2vPE2+vsmRhBzVCTBWAQTRobi+ImjqJ05C3GLQ7kDlGy5MuOB2WNR6xQmF3KgX0g/vlClVj0Wobh6xwZzJsjmQ8r+JAb6+tDf3ollV12ZXTP+YO6EfdYM5X7YrxI3YtVVmWX1CljmzoZZCt9SPT6vmNNwCilxHVmRCtkI338x6POjP2VAr1RuurT5NsK07IxyOJWVW4gcVHem7N8bYd5E5oVPo3EthgOvd9maG3G4qRHvbHoXfn9Q9dBQEZktZly1ehVuunYR9m95G650BFNKnbj9wQ+jpbNPEcVEwFkrCaKvqxsWm038cuPJAmNQkskpTMtWuQ7s0hqGHBjYJDn0CJOrDDhhh2IFRkk/6O3CYH8jpkyZcmb8YAyIRjIvpR0KlVXK9SYjzKIkrAvmw7ZoAazz5sLGZfZM6EpLz5C3REzJ5eHoTcNI4AhQVv1CtsJKF/KHoTNZ5dmfesbsIWPvGDMv6VbkhgEUgpolm71sWXKgChmP0uJLi2cvW43ugTD279kHTtTL3AmqlbKKMvzhF38fbzz1U/g6m2EQC1985VXQ28uwd/8RtDW1ZI9y6WJEkmA8otBMVKygU6fPRNvBvQj0daub54zYjDuw14KZa8NlXvLhMcGFBVYoPXY4dLe1ItjTieVLFsPGbMc8Yxkt1BR07+9DbMcORIXkQnsOIvTi60js3g+0tiO8/h3Em5oRFbUS3bgZ8bY2RE40InzgEJJ+P1KdXYjt2o1EczN0Pb2IyPbB7TvVNPqJzVsQl/WhvfsR3rgJyZY2ecLnxMOXFUgEw5Uoq31CbIWtNFtvEaeKHMqEHJh5WSwtO5P6nxlRrGZlHydyyMeCq65BX1CHTVt2IRAIqeukAmeQddnypbj2yuXYtXkT+np64HA6sfyaa9Dp7cfTzzyt3idyKcPwne985y+z/y4IFbQUGTi0QvK7u8SDxg8+wKEP9iMeCUMfjQph9KC/uws9nZ0Fl+a2drS0dUh97EBnZwf6ujtl+5GX4wf24dC2d1GiT+CB++5G9VnKfaZix1j5BwdhrqpAev8HiG1+D0azUU0WE35vDwxTatSU+LGXX4duah0g15sk45vN6k1fiZZWGMs8MImpBTZsRqLfC315GVLdvbBWliMZCiHe1QujpwTGygo+rOzZz0QkElGTq3JE4eUOBv4s8ow5VDxfTfDfPp8PTz/7Gq659wFUlThVt7nTNHxWLu2TgXTOcxmIsacs4w6fL1hsdnRKIxb1ezFzai0qaVvplOp9Mcl1Tqmdgud/+yoqqmtQXlUtCqMC3WLXrY2NqK+rRU1dTfZIlx5GJIm4kATfOTAULDiL1Yzamjp0tjcgHhhEIhSAv78bg33iEgyzkBQGRXmEvT2IDYx+CXe3otSUxtrVK7Bi5QoVHDpbxEVBpCwW2OqqoYvH1NyJhun10EuFTgh56KXALJyWjt1U9XWwckq7SBSpkhJxrQxqPkOjGIGxxE0fA2k5lmn2dNWVZq+tQkrkJ8eGGMtK1fR2xaCRxCmwBeZ7U0gS+aCtefu8ePI/nse9H/8oKl02WBkgLEAOLAMqU+bTcPo55jqcT3LIgYohIvaPiB9VHgemz5iuGoe41B1Oq1hZVYmGI8fR1NiCciGKqtoalRjW2d6DY4ePYsWKZVKfLs2XRo/4VvFQkO/XLNz9SXBk3MCAH00NDfD7z9/QaLvVirq6OlQzE/IcEe/pQyoYgFHYnGM5OPU9KzNdkXhnN/RCfnYhASIyIIrD6VCuSdLuzEyAK62aXq7HUlMt6imCyKBfpWXHWlpgKytDjNOviRzmC35GSs3W3ip+Ch2dvSgpccEurmQ+SBLNTa34+he/ic9991uYNX+hItZ85HImSBBBIYj8aQ4vBOh+v/fWG0j3tOCBO69TLgaHMSSEqPQGnSK+zuYW/Lf//kMsXL0Wa2+9TVxmKzavfxvb3l6Pz3z8Htxx923Zo11aKEoS9BHDoeiofCaSRb5EPB+ghBzNJLWjAQlBHUuOORrw/rhtsTiIIgXmS4zBPjWSOIXhSIJgz8YzTz2Lvcc6cM9Dj6C6thaGrPpiAJLkwNT9iCz5CXwXAnFRk/3t7dj8/HOYW+vBF7/0WbjdTmVftJdINAErZ+c2mvDrf/01DnzQiKVrbsCSK1fAP+jDe2+/haYDu/B3P/wblIrbeqmhKElERWJHIzEhiwv70C8naCRxCsVIgjbYLb9/6UvfxLxlC7FsxUr1Ni1WQubUhC5iyorf148D725EfZkdDz38AJavWH6yMeP1RWMJ5U6azEb4Bnz42+//T0R1Zixbcz1sdjuOf3AYW998HV/6o0/gwY9+RDW257vBHQuKkkQkHENUXI3xar01nAmNJE6ho0tIwl2YJAiO+A2K+/vMk09hyztb0NfdW7Dn7UKjrLpMTV+37pabMWXatDPqiyKyUEzci0xQtrO5GS+9+Ao2vbsVg15xVYVAHG47ps2chr/+H99Tbw6bMCQRDIQv+e6ZiQ6NJE6hr98Lp8MBS5GJiFnhMmM3KOWVB3jRkWn5eU2F3VGuo8vBt38x4H7SdRV1xD+CuRV2h1URBjFhSMLrHURYGHC4/mcN5w6vzyfGY1FR/cv5OSel9R3wDQpJ2FU3aFFcss+JrJX95xBw9YCUNUnQNCTomgPHfZgtRphNhkwuiNV8VvOljDeKkkR//yBCwcn18tNLDYODg7CI0Vis1kvY+C8AkkkMBALiathgHokkJihIEg6OCRqGJAgqjVxjQcWhekaMBjUMnVmc7E41XeB3zFIjabjY0JSaSslmgm6xWacuBzBAy3FSXJijxOEDfAlQIBDBoD8E70AQfb0+eKUBDwyGVO9jNBxVPZHnCxpJXAogSVzmRJFMJTP+eva7hlNQxJFIqsQszlbPd32EQjEEghH4/WFFHgNev8pX8gtxMJYYDkUwXtP4F3c3+nwICYNpOH8YFIlNH3xEP3ySYzDgF5IArBYbjAWGik8GDIhrqdyNbHBy3CENDaf4Z9CThEvXJDfLGoO9dFn4ew7MM2HAdCQMSxLJcATejdsRamyDHDm7VsN4Y8BhBafOsYqspF9+uaLPZYNNWj5rTBTFpMvLSSMlCsBXWw57vx9mKWfVw3GhIPKMAdBMbCN7XlElthVLYJ09A/oR3lszLEnE+rzo/6sfIPzONtJ7du1FRK6/ayRpntuOOG1bWZdvfMr3zTtO/n75GLrdacg7Zn6h545V8Frz9hH0LV8AeyAEW3sPECkSJM6/voLHzSLfN83frug1ZTHacxD52+ZjpP0KQa65e/VSeLq9MHf2AkWGAUxMpJEcDML3wG2wb30flkG/Gmh4USG25nj0fpQ8+gAs06ZkVxZGcZL41v9CeP1mwHaRpTAroIpqifGxEhRLoKHqyVVYtszJ7PBj2m6uYGjcPEa+kfPY3DffwNV2iUylLmT4XJcbjJSfT8JrZdcV95fzn1ZxiRxzi1rrW7UMdr8ftuZOKbgilSN3X+qYcu3DtbaUsiS23HUT+c+P11NIsfB5cD/Oz8ljML2cU/Vx2yH3zgFuvL+CrSFPOVZfOJ5A963XwH2iGZbOPugKDCic8BgIwvuJe+HYsANmr1ds4CK7VGKTuvoalHzhE3DdcwuMfFvdMBiZJDZsAZwXcWJXMSCUlUA3ox46+Uz3DiB9pCHT2qhWPgtWHjFa/fxZQHU5dKwkrV1IHm1CWgokVeKEafmizKYDfqQPHpdKGclUHlYQjticNx3IvXWLh4vFkJRjpLv65IFkW/lchWFlczigW7kEulQSqa27M8eR69XJNehqK5Du9yHd3AEEQ5n9SBY6ucabVqlDpDbtQt/iOadIIiqVa6iPqIgqCcOKpUjLPfDVgekjjfIcxNDy3UASglyT7or50JV7oJdzq3sPhQGXXOfUWrU+3dmD9GF5fvkSk0Qql26YWg3dotnQeTzs/0bqeDNSrXJdPHbuWcv1JOW8hvmzoa8szazLhxBf6p2dmUowhFwKgvcn5EiSMB1tgFPUhEmdrwABTVRk79H74Tvg2LIL5qFld7EwGIJR1I37Cx9HiZTncBh2qDhjEuE3NyHR2HpxWU9uJL16OWz/SRjv0Q/DOK0OieMNSNN484cUq0prheuLn4bjc5+A7YY1MEqLFHl9E3QlLhjvWgfPt/4E1puvR8xmRHrrPoCvXeP06kwYmz8Xlq9+Dq6HHoD1xmthXbcWlltvQurWG6FLxpBuapftpMLlKrEoB11tHWx/+xdwyPbRl18TMhDS8YZg/vRDcHz+E9BL5UweOYF034DsJ+dJSCVOG1D62P/NXMfrGxF0WGCSim/yybXwHoYSH5FMo+QH34ftw/dAv2g+koeOI328KXP/+aQVECL73EdQ8vufhuu2G5B4b7+UXwv09VWwPXIfrI88iITcQ3rDe/Kssi0HzzEgJPbgLXD85y/C8cDdsKy6EuabroVxyUIk29rl3sUGckk9ch6DEKDrjz4Hx6cegfWmtbLI81Kfa2FauADRn/6Gw3ZHRxKEkGBwVj0M/QMwyzM08LZHu+9EgdxjZOEcmFs7YAiJnVwKJChElfL6YJbGw7ps4bBxkglB1+apU2GurJQKlka6zIPUnJlSIQv775wLMSVyNylGHS9zI+WiCjLAePWyogExvlGcKiAZCCDwzmbEHnsS/s1b1QxYhkc+BNTUye+ny2BOOuNKJ6BnBR0t5BLSnIOCS44EhgN/phuzbrVSOOlEXM27aagsz7RERe4n7nDC/ODNMM6aJupDVNVwoCK7Yg5cD94tz3kKopu2wvfLxxB8b5d6haH99z4OMHmnwD0aomHE39+Nvt88fXIZePkVUS4kiOxGGi5dsEFq78HgW1vRv3NPduWZuLRJghW3ygPTzHoYRSWkg0HonU54Fs/LbnA6kuI+pOieKOjU+zjNVy2F0WpRcorTmo8Inx/Jl99A4L//PeLf/FuR3QOwuh0w5KuWPJxTXeD9FanoqpUPxmBYfRWErRDvENdHCNAgbpGuvrpgxc0hLe6Wfs1q6JfIs7IWiSmJ+jCIEtLXVSO1aw/iv3kByZ88hdhPn4Dvqd+KEluf2W6oGySIivqJvPIG8D//L/CjxzLLvz5/aQS6NYwMqjWrNHWHjyK1fkt25ZkYkSRScpyENGkXY0nTF583S3zlWkRa2+HfuRvJwUGkq6WC1Jadvr1RB53ZrOaJSAz41JRyaXEzsFQqSX0lkm43oq1tckPZimU1ImnSq33zZ1bUucU1uWMdLH/1bZT9969DL1IsvON9JAIDSGW355LTFAzipbMyLWnQZYJ6+ZCCSAljq310QwiB+8nvUSGLqPyWoEeSPb7anoe1C8EJKVIKxt/dhnSnEMWMeqRFWaWi8dO3dZwig9C+A0gJKerWrUFqwUyk8npOeBW5/TjIyFAlKk0qdvREkxBRp5R5EsmGBiR//Szib7yLBG0gu6QVWciz5n4ueVa33wLzN74C859+DoYHbhUJE0VCNlHbZ89RbOEzyX8q6llx/yHbTehlyD3yngtudzEWqTcpfxChHfvRt2lb9gpPB0t8WESkNQqKoYVTiYuyBAaDSMyaLmqiEtHmVoR270WCU89VlCK5cglCoixObZ8EX9uapCHTbRgYkJtLwy5KIr1qWSZ2dOBQxq0QhMRNCGX35T1G0kIeIuF14kubly+D7sbrgZVXKgLgsUKREIInzyX7JuNqP1XvZV/OhhRKJxGQlj6RJSJWlKBQUFC2zewj95QLgAp4DG4TNxkQkU91D7lzyG/cPjJ3CiCkGGvvgO+l1xFtbIZtWj30U2sQlMp88npkX7985hA9eBiR4w0wz50N25VXQO9yqvUcSMVrzO3Hf1tKS2AwmxDyejHoH5Tjyr3EIvD39cIv33Pbqu1lfdCQISWdqCvzgnmw3n4z7HwX6qqlCORtO5qF1x1IxRVRp+Q5ROW4pz2HSbHQLqIiGvmO0YwdFN7uYixJVd7hwCBS7V3KRoaiKEkkpGbF5SApaxr6Gh1MMwovumodkpYCLHWOS0wqu2HaVBjKS9WEsnzPpp49CmLwejHO+KD4xPLgT+4j18tpzNS19/Yj4R0Qv3oOnNetUhPbhkROU50QnOosLhWG+/EzKZ8qcBOUY25+DwP/9Ev0/vTfhCAG1ZT6kPPHs4ogt0+ODORr5lnF4ogJCeWcAL2s52SouWvkJ/fLgd+pPBhroQHljn3y+PJpuHIx0tLKp2IxmK5ahlRpmaidEuhFTSTL3GqS4tyx+ZarHDizd/DdLaK8/DAsXwqdPIfMeeS5CpnlzhOT8o1znk95HmkhSbbi6jp5LwMhxISo+Uq63PZxOQeJmC1+MhBEUFof7y/+A97HnsLAaxuE8E6prdEs6lzyqbhWVEqhbSb6kil3WpjYiZRrrmzPZkmaxU6rULAe5ha45TwF9h1uIUUzLX64rueiJEHo7TppuQwoWWoU2WsquHjkN/sMAwyO7E7jgLQYv6G+AqYpNcqNMM+YDseqFTDV1mTml5w9S/lTwyEuyiN8+Djg8cBYP0VNkZ/o7FatfjEk/QEENm1F8FePY+Dnj0Hn7VdvEDfUViqlkc6LA6SEcKKBkPLXDTXye0jMPRZWQ3zZMieEcJKBcHbrAgjH5UKlYJgf4RcdFM7LkxBD0klttF0pqkanh6m8DO4P3QPzzGlIMZ126hTV06O6iIdBWNyT0HvvI+3g28hqM6pnKMyiYrp6lDvCwCVnDE8PBGAsLYfznlvguOUGRdJUZ/mB1jTdqEgE4W074fvFb+D71dMYfPltys/sFhrOB4xuHTzLCtfD3OJaaISpcviq7RWiPyaK9mA0sxwSRbxf7P5gW5uaOWsoRiQJo0sMdaoBjqlGWKsNBRfHNCMcJAn3iIcbPaIJmFcsgbGmXLkYkT0HENq6C5Hd+5EUVWCeWgfT3GmUBAV7CeJNbYgeOKxe3iqeAKLHhDBGA8Y1ptfDftMalNywWr3uj2+WSrECKxWSPZe0pPT5Qy2tSAsh2O68GdY1K2G/7TpY5syQ60oi0tKOWG+fbFv4uVivvgJmdr0uXQwrCXBK3SkSkkqos1lFxSxUX8M7diO8ay9ie+X++/phFPI01cn2w7yblEh19yH0zlawy1gvxHJGvESgs5kQlmOm+r2wLV4Ix43XwbZ2JZz33YbSL30GjofvFVfFLrd95jMmWZvnzIL92pWwrlwB27Wr5Z7ERbNYck9JwzhCJ22ipUKv6luhephb7NPls6qwzR0Whfi2GMJWiws77J7M4irHu0kjNhxpQaO4s0MxYq1mw5uKSkULiSSRz+GWRECkrHyOG6SyWBcvgN7tRvjAQfT/6j/Q+z9/hIFfP45kU7O4HXZYrloqtV9a47zT6lULLJLf50O8pQ3x/gGkGLvYf1D9rirh0Mvka8fYMgoJpIUU7LevQ+l3/jMqv/8tJJ1O+PcclIomD0/OxcCogvjPKfrnUgk5Rb/tlnUo+9PPo+K7XwOmT0NASC229wNAlARn2D4FkYtyfXxNgfuzH4X9jnVwPXQ/PF/8FCyrlytyIenpLWZYFsyCqaoKcXGb+n74c3X/ff/wM4Tk2AZxO0wM4BZSiPIMeI86u1MRZXjbLhXIVR0pcp+n9VSYjYhu2YXQ9l1CJCa4H7oPld/5E5QIOcAkBNLUimS3V9ScSXbNsAx7kBLRGFIWIbHbboLn21+B5xt/gNJvfBGlX/6MSt7iNYzYxathTNCxg01sNR4oXheTocxnPuhm9iUTeFVU6TuOUrRWzoCvds7JpctZgwZfEh0dndk9TqFoMpXvtXcQOtgkrbG0Qinxx4Piv/gKL/7DYvh942gUUmGtVy6F3mQWBfEeonsOIS3ynS+TtThtSMpnvLcXMakwTCpSBiwV2CayOi0+dmj3AaT4ghyRyonuXviee1mOZVA5F9ETDaoCUy7rWGFkV73493zBTpxDbAdDohyiCHb0ICrKxffvTyDR3CIbSeueVQX8TIlkix9tRFLOl5LrNDO1VSpP5OBhDD79IqIHhSTY65JTElJLdVJ/S65eDH97txBrSFQO3Y0o525D/NARUUB87ZsOBqmAziuXIC0kFdq+E+G3t4lqiCLZ2Y+0uFD6Mo9KlIoe+kAFEBUriCEYZ01XlT2876C4XG1IDwakvoraoPKRe4oePoa4qCpdNkFOzRouzzUq98cuZIPNBoPsnxTi8294F/7Hn5Vj+E8RHZUbn3VVJRKiYuJ9A0j45T5kScmz0wkhB8Vd41vYqaBGNQ2blHVy9nQYeB5/UEg0q6YmE6QFTy9ZAJ0oXF1YGo58oh4l0lKMqUhaGjophoio5QL1kEu4PYVoR0oa7eyOArYlW6RO76uZiqqSarjtDpRXlMpShhKPGza7FQ63DbPm12PO3NOzL4umZTd//b/BJ4aiKxG5eZGQZjIRW0b2PFAyS0ur/HAxPl2BGXqU/GbFY4tPAxVXIQP5t0X0GpUHKxRbxjw3QAU0T24r4FOhsgiIm+G0SKssS4GCVcqEGXSsRHI9nDQlze/c3yLkxXEQeVCta24Ak1xrTNwak/iB+oYWufZYtsJnwGAiX/6jkHe9jA+oHAu5x9O2V8c+8/5Obk+w4spvQ6GeM5+dHE8nz0k9R64TYi38nLPlcgakXIrlZQyBuuZIDNHbr4dJlJ9eyFPHY08iqHskiT76AHQbt0PX33+SpC8EaAU6nQE/EnWdmrtCytSMqTPqcNf9t2H2vFlqG99AP5qaTyBhSuPOu05//8eZVp8PuTf5T93kxVpU6jGNlC0ev9Pw+V0Mfei26ncxavU7Ky0rNf+tlmzF4Ce/C4Gctt9p28pCQxfFoqspgY5jV1j587Y/uZ+s53Zqe/mnWsfZnoVUctd82vbqGrLnyGtlVUsty2nb8ue8bU+uzxLSGdsTBe7v5PZc5Hnm73NyGz5nh9ynGG/mu+yjvg/3nLPlcsZSePvhFoXcZxaFtpvIS+ae1EcWhbc7X8tJ5P2zrNyj1MNoUFRJNP3xd+B7S5SEO9PHrmGcIS38SSVxohlpkYOXJUS1RO9ZB1OrKAnOXyJu0WSCqmB9QaQ//zDwutQnKglRmRcMQhRhUcW/kM/UvIySuGLFItx02/Woq69TmxRTEkVJov0n/wr/3kMqSKjhPECefKS+Fibx4w0c4DVC9+ykhTyH0MxpKI1EkZAKlJxk7oaCuKXB5YtgFbfSwIGFeSryfEMcQCTSOvyv3bthrJovbrNpfEiCg6T8LR2IBoJyP8W9Eg1nD28oBJtIeqvxzDjB5YTeQABlLhfEyTldIk8i9EUicElZm/W8ywsHTmWXTsbxZ9//e1GrTGbSjw9JEHxbEmfs1XD+4GV+gs0GKyd7uYzR090Dp8ut3lQ/Wd8/0tnZjdJST9GXD50PsIcpHo3im//lL5DslwZfVMVYSKK4RCCjM4KtLedvkWesWs5Cv11OiyCZSCDNzLdCv0+CJZWUsmZvWIHfzufCHsEEn+tZQvMjNGjQUBQaSWjQoKEoNJLQoEFDUWgkoUGDhqLQSEKDhssQnC8kEokhEo6oJRqNDduTqZGEBg2XIQ7uO4qNb7yL9a+/rZaNb27BBwdOZH89HRpJaNBwmSLYfAgDezeoJbDvHcSbD2d/OR0aSWjQcBliXlkUd83uxkPzmtVy99xmLKrpzv56OjSS0KDhMoTNlIbDIos1szitSdjN2ekEhkAjCQ0aLlPos1M2p+Rf6SJUcFmSBCdjOetlko4r0HBhQBu6GKDZOh22k/Y7EDGiL2RGf3bxyhKIFh5TUnyAVyCsukomA3KFk06lEApHMeDtx+DAIPr6++Dr92HAPwB/cFBtk49ydwXKKyrg9rhRKkuJxwNXSUlmkE5u3MU5wOsdgNVmg+0yf+tVT28fbDa7PAcrDJxzdIKjEBm0tXfBI7Zjzk7kw/s0cAa1IaCNjjeSyTRefOElPPfjV+AocaHEYcTMkjA81ky3ZyAURdhWgisf/PAYR4FOApIgc6ZSaQRDYbQ0NaFLCqqhtQntHa3o6exBt3zv7+5HX18v+gZ7s3udwpSKqaiqrUFplQdVVWWoln9PmzYDM6bPQE1tLSorK2HKzeZ0FtBIIoOJThK5Fpq2FotGEfT74fMH4PMNIhQMqN+6OvvIAGpbk8kMq5S52WJUc6M6XU643C7YZZ27pFTWZSYeHq9h8zxWrzSGP/zWD9DZ3ZOZFFlNfZZBOBSDp9KDT33lQ5cPSfChxGIxePv60dLahkNHDmPTxndwYv8xnGg/oV5IQ5jlz2K0wFRkPodoLIpIKoJkdmrqUinExQuXYPmqK7FixdWYO2+uIouzGQKskUQGE5EkcsTAl0gFhBQGfT509/Siva0FHS0taBS7a2tpQ19nr9yTHlGpiIPeQSSSCTU9gEnIgffqlJa9uq4atfU1qCgrwcw5CzClbgoqKitEuZbAbrer/c+VMPSiWpqOHcMTjz2HrrZ+OV72B0E8nBAbLsfDf3A/Vq2+Ors2g0lJEqlkCoFAAEcPH8Zbb76B1199E4eOH1K/lVvLodfp5aFnZthWf6qw+ZmViPL00rmgTna2KL6tnG/jIhKJBMLxMCLyR/Z/8P6P4K577xTiWKzcERboaKGRRAYTkSQ4Tb3P60NjcyP27t6D3Tt2Y+f7O9HQdFy5Gwa92Jj8ufROWC02ZXdiZGpf9Wa3RDzz9jQ5Dt/DFkhydrJMdVw0dzFWr1mNq69ZhUULF6G2rg4Oh039di4gUaTElvtEVUSlbvNqMmdMw2G3ora6AmbO0ZqHSUcSiUQSrY0NeOG55/HkM8+isakBDr1DjC/zgEkEBr0BJe4KGE0i90T2mYzDK4BwJKiMwe/vl4caUgXKAs6xeiKVQF9EZKTgq1/5Ezzy0Y9i2vTpo2Z+jSQymEgkQZeC9eJYQyOefeIpPPvbp9DZ1QGL/DlMDlGUVljNdmlAylUDZLcO/2o7EkUsHkUyEcPAoLgBjEeI3QTDQQRTQaVeVyxfiUcefRQ337IO1VXVMBhH3wgVA4mMxMWGUBwbuW4TLAUmP5o0JEGGZMDnhd++iH/+yT9h//t74TA4YDZnCICFpRdyKC+rhd3myrB6FjnZWAhDK3o8EYVvsB/+QL/6nv97T6QHy5dciW9/5zu4Zs01MJgy11QMGklkMBFIIqc4uzq68cMf/BCPP/Pv0AU5ObpNNTxsgBx2N0pKKmAxnapsY7EvIhQJoLevTRq8TN2L8T0yyRCWXrkMX/nSV3HnPXeq9UlxW8YLnOJuUpMEXYe+/n7849/9CC/+7kX4+gdgSZtV4XAxiWLwlFRKYToUUeTWnw1YqOrlvsL8weCgYv8ckmnhfZFyDrsTf/SVL+BDj3wEJRXlRYlCI4kMLnWSoL0EBv147dWX8Rd//Vfqjfb2tB0G+aNNVZTWwC4EQaLQSwt9LvalnN1UEpFoGAMDPScVbEwfR2lFKe6583784Vf/EBXl5eNGFMVIYtg3eBHxWEL595cyqCCajx/Hf/nm17HxjbcRGQzDqDMqZqfkKyutRomrXPmEJ+MQZ1mABPdVMQ3xN81mEZhyjlCY0eu0Wk8flC3AnoN75eLSmDt7DmxOJ0s/c4AhiEQi4vaYxOW5gFOsX4IIhcJC5pnnQIO9lMAyb21pw69+9WulUmO+GORKYdKZUFpShVJPlRCcE0aj6ZwIgsjZJ4nHKPZqkOfBaf34FjZdWodIMIrGoyfwwcHDuGr1KrjdzoJqZKzgOY1GOSffpzIEE5okWBStDQ349ne/jX079iMeicOgE26XB8zK6y4pV+zOmMN4z/h9siDl2GZRKjmiUOvlXBx+e7zxBCD+4+LFS2DO5lUMhUYSGVyqJMHyPH7sBB577N/wzNNPIdAbgMVgUXbmcVfC6fRIA2RVtjDeUPEzg7Tu0sCJaakgJ59MNBpBR1sbThw7jpVrVsHhOPfX+U9KkmB9a2lrx3/9r9/Bzq3vQ5eQm2Q0WW6WCsLtKoNd2J3q4XyC52OfN8mCZMSYBZmdRjQwMABvn1euxaO6SQsZv0YSGVyKJMGybTjRiCeffBLPP/db+HrFNTRkCKGitBZ2h1s1EOPdAOWDDQ4VCu2LRq+IQh5PIp5Aa3OLuD1hLF9xpRDJubmrxUji/N3deQSjy53tXfjpP/4E767fDENS/MJsQamosqv0ghBEDjQSl7QobneZSMRT+RZscRqPN+D5F36LvXv2XrSUXA1jBytNb08PXn3lZbzy4kvwdvdnCIJl7SgVBVGaJYgLQ2gWs1XZl9NekiUOo+qKf/KZJ/HuxncVWZwvTEirZbDv1ZdewXOPPw270X6SIOhiZAjCNWaCYNcTu0+5JGU5G1BJkCxyXaoGg0EFMvfv24sXnn8OfrnuC2VUGs4NtIf169/Ciy88j87WDtiMNqUgHFJJaWNnA9pVzsZUV+cYYTHbUCIutMPGAKkoWFEYwYAfv/71r9DY1KQaz/OBCUcS4XAYu9/fhf/4j8fOiOy6HCVjIgi6Uiw41ltmS7qcDpSVlcAji50vyxUk4hnSUG/4HgWYf0FDyl0D1UTA68fGDRuwddNmNlFqvYZLF6yATY3NeOmVV3Dk0FFFEATJ3+0uH7WCoNtJ2+FCKc9X/NO+uDDgSPcqZ4OjBYnC46mUa8gM1nKb3diyaRM2b9qiUsDPRyM0qpgET3wpLFJ8OHL4MH71r/+C7du2w2lxZtfz5ddWYfgyVYAjgSzO+7JYLfLA3aiZUonpM+owc+40zF44C/XT6+ApdakcC8o6pTLEB2Sh60bhLxuE4Xn8RDKTTaei0hxUFvDh5pvXKf8xd0/hSFSdg754bt3luARDIfW8OQ4m10NwsZaklN0TTzyBt99aj1AgBJPepEhfqQhRiiOBZc6F5eoucaKyqhxTptVg4RXzMENsbNqselRViyKQhoi9F7QPNniJeGpU8ZhMQNOIUCgzIFGX0mEwMIhly69ATU3NGfcz0qKOIZ/DxSTOyJPgeAcaOKOpNGy++cdwifjSfn8ATz71BP7qe3+p0qvzUVFWpxJZiqmITOGRapgAY8X8ZXOw9Kp5qK+vEQVSOOW119uH97cfxL7tH2DA5x+19mIWnXegW4zfp75Hk1G4q9z44d/9PVauWavWEf1er6ocPD8rx+WKnt5e8fOdikAv9mv+Wjva8LWv/Qn2vbdXubMq5uTwoKI880q8YlCKU67fKvdRU1+Bq9Yuw5IFcxRh5CpkDnRFB4WEjh1uwo4tu8Wt6UEyJcpWiGLotkPBAGZHd5PUz8wb2Hsjvfjbv/3fuPfee4e15eGQlEaQGZcmDjZj8qGc2mQ+1Z17kiRYgXjRDcebEez3Z15Hdonh8NEj+M3Tj2OD+Ipl1rLsWvr+RtRWzZAbPDMRJAfeH0H3Yc7C6bj7vnWoratS60ORsOplKASXw6lG6XV29GHD61tw+NCxUcvD/v5ODPgzI0v5bKlc7nrwXnz2k59S6zRcmti0fSt+9oufoLO5Q5GE3eoSZVkFq0j9YqAtpaRRrRSVcP2tq7By1TKlQvu8mezcQqDL4bQ7xAaj2Lrlfbz5/CYYTKycmdZ9OPC4oYgf3T2t8i2thgZ8/OOfwH133Sd1oSaz0VnCIIpiyqxp8JS7lbI5SRKU0wd3HERAWsvzMZ59PLB95w785onH0XyiCbmxGERF+ZSMiijSV80CjEXimL1gGh75xH3iEzrgDwVhMhiEeTnK7sx9qaoG/IPqeZS4S8Q1CGO9EMXOLfuzWxSH19sFrxp+npGfZOeZs+bgL77zrcwGGi5JvLr+Dbzw7PPo6+lVwUG3s0yl84/UusfCcUydXYd1d16LuXOmwzfoUz1aHpdbkUEhJREKh2QJi9IgWThx8NAJ/PtPnoHRrIe+yEBBRUhily3tR+UzIYQRwpobrsOH7rsfs2fMzG519qCKWHLNUjjczox4pg826AsieAkTBBGLxBCPJFTySg6Ugjar42QPx3DgTVdUefDQx+5FWpeSyuuDzWyBU5QCCULJqryFoPSqKC1TE4WQIIyy3XU3XI0Vq5eoYb8jwSbERfIieMxINIJDzQfUdw2XJqwOG5pONEuFj6mMR2pv2ljOJoZDIpbAlJm1uPbGqzFjep2q+B5pWGg/tKN828ottDvaX7lsY7WYpdHyY9HCmbj/k7cpdZws8pJf7s9Wvry0Wj4Nqk60N7aq2I5RGqNzBYcexGIc+Zyd2E5JF39IfV7K8Eur3ie+Kx9QPnIPfTioGEtKh3sfvkUUhF1uPKUkntXKxBi9uu9gMIje/v6TS9+AV/y+uPqdI0XtolzoL9rsNixZvgDzls1Wgd1iYBA1P5DKnPxoLILmjg7Vimi49BALR9HW0qxaeNqUzeqUMndmfx0eNiGXxUvmYPrMOmUnDptNkUNOofb7Bk6zLy6BYEBVQsYrWMlt4tYGwkFcecUizJk/Tcl+ZbvDQogiG4NjI9nZ2Qlvbx+S4hWMB+TSFBRJUD3QL7+U4QuI/zXQi2A8M8sPwUL0uDPzQwwHEgAjtouWzxUJOBNBYXing0PHMwRB5qVLwSHfTrv91CIuCAvQ5/epY7DAOdpPRB7KKkqwcNEsMYCR1QsXFmYOPOZA0CtHyZaAhksKHT096PX3IZ7MKEUmMY0Ui6AbO21WHWbNny52xUYhfVI9qImPhCDi8snf8m2MlTAoLi/ti2RiEWWbkIbJIkpg1XVXKKVbTE0Q7BLNpYQHYn509ndjMDsT1nghY+VyM8X8+UsB3n4fevr6pHLlPzSd+PlSgEVUBKPNVAJLV8xTjG2WhYWRIwi2GLltqCxyC6Ps3J4DuXIKSxU8zymkUzelBjVTq1UspxgYTGVrRHBfY9KI5pZWOaamJC5F0E2IpWIn7Yw9LSONy2BrP31GPUrL3SLTk0IqmQaIapFxLxIF3QrG0fJtjA0ViYR2mCMKl9Ol1ASPV1FTprqEhwP3pUvET4IjUnt7vBjwnjlX67lAkQQfhF1k9KWMQVESgcEgjPKXAx+OSmyRv+HAbex2C6bU1yAQCqiKnitAxhk4NR19u6HT13E/Fhq7k6LRKBKyPffLTFJjgsvtxDQpyIT4bcVgNGQGgBGiK2BIGdSUZowDabj0wGxefULKSf5Gi5IyNyqrpEJLhaU6YANDxahmMJNGiNPVcfLbXGXOgcFMjiQmsZCcaF+0N07PwC7UKTNqYLVZTzZSw4G9LyQy1o1+cTcGBr3ZX8YHGZIQ2exws0VW6y5JcP7AoD8zAi8fmRGew184/TqH2w6X3YFIJHpyWwYRc5Fldn+SMMLyObRASBTRRFzJQP6m+rtlvU5sqKLCI+vG5jboZcfezuwMRBouOTS3NCMV4ZsoTiV0FQO7wytry+B02dX3jPLQK4KgimCGMMuadsZ1bJxIIDkwiY42HBW1kQMbMm4zZWotbHarUrrFwJgJSYK22tPVpYhiPJEhCTKYKAmPGP1oMgovBnp6utDV1aHmAgwnpELLEkkWzm3IBwmQ+Ql8gEQuqSUSjamC4xIUsqDk84svp0hDlMNQsKBzhRuXliEt7O90DZ+XkQ9ORsPrjaaiiMsfp9TjPIMaLj00NZxAIOpXLkdcCCA9ApczZmAVN4IjgfNB9eAX9RuShofuBsmC3ZS0LwbEc7bEuqemOmS0K9twOLLxME+pJ0sYavWwiIYiiMSFhHQJdHS3ixoaPi9jtGA9MZkNSqWflkzFyO7xg8cQj/Im1LaXDJ5/9QX8bv3r2W8Z0SOcDYPPoaaJG47xqSRmzp6Kz/z+R9DT14uqikpVMH1er3zvUYRAicekqdwx2Ldd6i452bfdKw/dKkbAGY75nEgqMSnorrZe/OxHj8M+DFmwBdDROzInENVn5srM4X98978p/1PDpYUf/vAf0NDZgHgqAWvSAV3UJK1/WuwoE74bCgYtFy2fj1vvWAtPGWNPabhdbqVMO7q7MOj3q+0qyspU3I/2xKn0GbfgFAHMZqaCZU9HaYlHVU6SCNHS2oMXnngNba0dBWMTtEXGQzg9ga5E6qyBDRnwwJ334fZ1p0+LPxZQKNidDsxicF7qT8Hp66LhyIgS50KDM/tG8/x/pQaCITx0wyfhKLMPm3hClp4+sx6f/cJD6O3vQ2V5hSKJgcEBdPX0KrfDImxNomAQiL/lwP5rflc5FeIjMvDEgskpkMbjrfjNv7w4LEmwi7RuWg3uf+Ru3HX/7UIsp67f6bj46ccazgRfUpNzIf2BIB7759/g1Wd/Bzvd8QJggzp/6VzceudalJUzJ+YUSXQKSfiyJOE+mXJ+yr5sNgYvbYokOJFMdWW1si/aJAmlqbkTLz/7JtpbOlVlHQrW0eBgGJ/58kdx94N3weFyKTVisRhhKTAGY9QgkYmbk0NBkpgo4HTmD1z/scwDlPpWSE3wodfUVeILX/6YCn6WSAGysOgftna0SyGeigTTP2T3aD4YpCRRMDGGEemcX+kPhvH+9kN46enXhyWJaDiGRUvn4xNfeBg33Hpddq2GiYJgIIyf/P0v8NSvn4PNPbxrWVldhrvvX4fa+ir5llYKkS5GT3+vyofIgUSRc3tzoG3RxqgqmHhFe+3u7VEN1K69B7Hh5c3o6/YWJAkSgr/Lj+//45/huttugNN9fpRp4eZ3goDqYfbC6aqngA+3EOgzhgZDqu+YFT1HJJR1nPaLKiKHuBCA1+c7bYnGY3DY7cr1IMj6kVhUEUBHe5fKsx8OzOM3GnRyntP9VQ0TAyZxMexCDlZX8ZHFrQ2d0mBlFAMHS7ERYSyhoqxCGqVTFXcwEDjDvgLBIBtuuMXdHYrOpi7EorFhVbLwEaKDMThLy8UOzz3LcjhMaJJgRb96zVVKwg3DEcq/ioircmDvcVXRWVAsRJJFuacU5WXlSlkMB7og7PYk4ysVkc1vCAwGRAa2q66tYnDKOcqqz23AjYaLA5NU9PLKMjX3Q7HsWjZQnV390oAwQ1enYla0L7PYW2WWKAqpXDZQjEN43B5lmzwO4xFuUSIDg4M4sq8Bg16SyJn7ErTtspllaqAiz3W+MKFJgtJt4YKZ0LHeDhNDYaGRjXe+u0eRA9Nl6XawMLg/C2lqbR3qamqV0nCJJKQsLJPKPb1+KirLy08GMOlnkpBCwQgOHDoqMnCgaG8QWwBOMFJZcfqwdg0TAyzbuqm1mDJ1ilKFw8FsNeHIoWPSaHSIfWRmI2ODQpthsJuKgvbEyk/74uJxu1UDRZvLdXnSRWFmMb8fPtSIUDgix8ieZAgYj0jGk5gyoxpuj2t4tTEOmOBKwoAFSxdJa+0Y9iGxoFgA/X0DagQn+5OZGEWiYKEwDuGwO1RvRnVFJWoqq1FTVY2q8gpVqLnsTEaf2TtBwmht7sTBXYflnMMTBKcoq6qrwPQ5U0/OcqVh4qF++hTU1dUhFhh+QB9tr6/HK2r1GHq6vSrGwDdwkSxoOwyKVwoh1FRVZexLluqKKkUU+QRBBcLuz46OPuzYtFcFMPXD9KpwH3bPXn39VepdGcOpjfHAhCYJdlVWVFdi4dXzVBdRrp95KNgisB96++bd2Lv3sMqMY0GGpRCoDvjAWfnJ+ow/cOg4g5RUGixoP10UOTYJpelEK/bsOICAP1QwmJRDIpLAzJn1mL9olhjR8NtpuLRRWZ0heocnkyw1HNiyH/+gEe+LbXByIioKf9CvbIf2RZeWdkX74kJboytLcmCDFYlFlMsQCAXx2gsb0dXBhLvMKxoKgeeLBxK4ft11sA55d+d4Y2KThDxADou95c51MKVNIr+GIQnZjkTB4fCbNuzAgT1H1eQzHPrNfAeqBBZmoSUXv5BiwYljzdiycRcahChGkndsAWbOm4lZc2dk12iYiGA35dxF0zF/6Sw1fHw40B6CwRAO7T2C97bsRW/PQGbcTzqpKn4hG+M6kgPNi8PRvf0BrH91Ew4fPCrEMvxUdiQINlALls/BvPmzRVGfv3gEUXSOy4kCvu7svXfeh3dgQCmGQux7kii8fnR39SIeTyiC4UQwSmnoZE8pGJKCepO4HEJlwcl330AQh/efkMLfg6aGNjWoizJyOERFms6aOw2333ezuEMLsms1TFRYrOI++APYu/PQsPKfIFGEQ1H0C0Hw5Uwcd2ET1aAT2yKUPaWSSpXy37Qxit9QIIrmxg7s2r4fu7YdyCQHDkMQBBOomF/xyS8/gsXLFqpcoPOJSUESlFvxdAzHDzeIGxActpUnUSjGDzARqgX9A4NIJ9PQp4UkUjp5+OzCkkIURZKIpjDQNyikIO7FrkPY9s5u9Iq/yf2LEQQLMB1L4/6Hb8cNd6xVmWsaJjbsDr5DVo/Gow3oaOmRxmV495H2waB4V2cv2tu6wAnd2fikxM7Y9rC7nkskFIPfG0Bbcxf27zksBLEXRw82qiBooUYuB9oXX/w0Z95s/N6XP62UTrHtxwMTOpkqH0F/CH/3lz/C5vXbxIWIKTYeCVQELLySUhcq6yrUzMZmu1kKk7kVUbQ1tWJAJCALxijHG4588hH2R3DVNcvw+a9+GsuvXpZdq2Giw+cdwPoX1+MH3/sZdHY2NiMP/qLdMG3b6rCgqrZc7MwDh9sqasQAX68PXW09Yl9+NUjMYhs5l4axDY46rq6pxB/+l89h3Z03Zn85v5g0JEEc3nsA//j9f8HuXfthcjG3YfQMy4Jij0QO3NNkKc7qQ0GjSA2m8N0ffRPX374GZtlfw+RBW2s7fvXTf8crT7wJo4UDBTPqdLSIqTFRp6obA+NsfEYLxtE4KvSm29fiG9//Wnbt+cf5dWYuMOYvW4w7PnkLpi+Yilgw886L0YKBIIvVfHIxyzJaA+B5GEwK+yL447/8PVy9dqlGEJMQU+rr8NkvfBLzls5Uc1oyrDAWG6NN5NvYaAlC2Vf2PEuvXIo/+vofqH9fKEwqkiBuv+tWPPTpBzBlRi3CgyMPJR8PkCB6j/XhT7/zeay75xa4PCXZXzRMNrBL9Lt/8w1UVJcqd3UsJHG2YNJUJBjF6utW4g++/ntwuot3x443JkXgMh+UcEyAKa0qQXtzB9oOd8AyQu792YJ5GZFAFLH+GP7sf3wRtz14BzxlHvFXtbyIyQqqS4fLgdXXXo3jR0+gs6lb9VSMJl51NmA6OM9514O34TN/8HFMm1mvbPxCYtKRBGG2mFFVU4X6adVIpKI4caRFMX6x5KexgjGMVCKNabOn4A+/+fu4+d6b4Ckt1QhikoMVlj0dJWUlWLB0PiKJCNobOxHyh1W3ZbGer7EiNBhGeW0pHv7UA3jwo/ehfuYUcH7VC41JFbgcimAgiIZjjdi8cSd+9+Lv0LynDbZym3qd2VgCTvmgL8o8iPKKMqy773rccNu1WLBkPpzSupztMTVMXJw41oBd2/bjjRffwuF9R1TLb7Iaz7pBYmPGl/wwSHnr3Wux9rY1WL5yOaqqKs+bWhkJk5okCPZYcNzGju07sW/zYRw+8gFOfNCoIs0MHLHPe6SHr14XH2HylQE1U6uwYOE8LFu+VL3nccbs6dmtNFyu8Pn8+GDfYex5bw8O7DqIo0ca4ev3q254dpUWeglvDnRZmZfDuEMikkTl1DIsWD4Pixctwurrl4t9zYDNcWFjEEMx6UkiB2ZSdnX14+Du/fhg91E0Nzahu7sPfT39KgGLzM3Eqnwwu87usqGs0oOaygo1GnD24llYvHwhps2YBou4NRo05MAX43A06ME9R9F0vBWdXZ1ob25XwwFIBmokadbEdEIebJzYy+ER16W6qgplZRWYt2wGFl21AIsWLZDfzu+YjNHisiGJfIRCETSfOIGGEy1oOtGG/k4vwrKOE8kwDZtxBRYgZ0B2lzkwZWYd5syZIcQwFW5PiUjJC+8Xapg4iEZi6OnuxfHjJ3B0/zF0t/chIrYVDUeRVEPI9SoHx2q3iD05UDe1BjPEvuql4amrq8we5dLBZUkSQ8GuLE63H5aCjMei6j0ZlIoej6toDr0GDaMB4wwcCkDy4HteOH8l3/3JeSSpJC51aCShQYOGoph0yVQaNGgYX2gkoUGDhqLQSEKDBg1FoZGEBg0aikIjCQ0aNBSFRhIaNGgoCo0kNGjQUBQaSWjQoKEoNJLQoEFDUWgkoUGDhqLQSEKDBg1FoZGEBg0aikIjCQ0aNBSFRhIaNGgoCo0kNGjQUBQaSWjQoKEoNJLQoEFDUWgkoUGDhqLQSEKDBg1FoZGEBg0aigD4/ynAPrXE/2ZPAAAAAElFTkSuQmCC;" vertex="1" parent="1">
          <mxGeometry x="490" y="409.7" width="235" height="167.6" as="geometry" />
        </mxCell>
        <mxCell id="8nYDqPeVYNA1PBUkEucR-14" value="" style="shape=image;verticalLabelPosition=bottom;labelBackgroundColor=default;verticalAlign=top;aspect=fixed;imageAspect=0;image=data:image/png,iVBORw0KGgoAAAANSUhEUgAAAJ8AAACnCAYAAAAPMo4gAAAAAXNSR0IArs4c6QAAAARnQU1BAACxjwv8YQUAAAAJcEhZcwAADsMAAA7DAcdvqGQAACLvSURBVHhe7Z0HdFVVusc/6YSQAAlJAEFq6L1Lk+5QFJjmOHZnZi3F8c04KqiDYnvz1MGGztOZcezl2UZFAaUX6QSlCaEk9N6bVN/+fWTHS4bcewn33nOS7P9aZ917zz1ln73/+2v72/tcsmvP7h/EwcEDlMj5dHCIORz5HDyDI5+DZ3Dkc/AMjnwOnsGRz8EzOPI5eAZHPgfP4Mjn4Bkc+Rw8gyOfg2dw5HPwDI58Dp7Bkc/BMzjyOXgGRz4Hz+DI5+AZHPkcPIMjn4NncORz8AyOfA6ewZHPwTM48jl4Bkc+B8/gyOfgGRz5HDyDI5+DZ3Dkc/AMjnwOnsGRz8EzOPI5eAZHPgfPUOzId8kll5x3c4g9is3KpD/88IN8//33cvTIUTnzwxmBbpeUKCElzFa6dGklYKlSpfQ3G79Llix59mQDzneILIoN+TZt2iRTJk+WlStWyslTJ5VcZUqXkTJly0pCQkWJj68oFSrESbly5aRKUpJUqlRJEhMTpXz58hJXPk7Kx5VXkkJQzoWMjpAXh2JBPiTe02PGyNtvvS0HDhzI2Xt+IPWSk5OlcuXKSr6qVatK9erV5dKaNSUtLdVs1SS5arKSs0JcBSld5qzUdGS8cBR58kEMpN4dw++QFcuXS9kyZc3OnD/zIJBAp0+f1u3MmTNy8uRJlXjx8fGSkpIidevWlbr16kqtWrWkjvl+aY0akpKaqlLSETF8FAvy7d69W0bcc69Mnz79HJsuEOyzyPsfsIQ6deqUkpHPskZlQ8BGjRpJw8ZmS0+XBg3SpWatmvof14G8DudHsbH5Jk6cKO+9865kZ2eflWiQKUeqQRDIdPz4cd0s+fjEzrNkDSRlXjJyjdS0NGnerJk0btJEWrduJekNG0o1o6bLlC2Te7zDjyg25INwmatXS1ZWtiHLCUMao1bPnJbj30M44wUfPSr79+2Xffv3GxvxmBw+fER27dyp+w8dOiQHDx5UguEBo4L5DCQj4B6Ql8969epJIyMNW7duIx07dpT6Deqr2nYk/BG+Jl+gBMrbYAVpwPNJMCv1kILfG+LgnNiQzE5Dvr1798jWrVtl8+bNsmP7Dtm2bZvs2LHD7N+r50HEMmXKnKO2KduJExD8lDotDRo0UCnYv39/ad2mte5zJPQp+WhISIFnykYjImkw6GlowiFsNDxSJhKNmFeKWZJSDsh47Ngx2W+k4o7t21V1r1+/XrLWZ+knDg3HYOfZmKGFlYaUsX79+tLKqON+/fpLu/btJCkpqViT0Ffkg3QQjQadPWu2LFgwX9UdDViyREklXlyFClI1OVmqVa8uDdIbSIsWLdQD5ZhowpIRopwyNt5RQ8Zdu3bJpo2bZPXqVbJq1SpZkrFENm7cqMdbaWiJyHkQlN+1a9eWZs2by9VXXSXtO3bQsE2kOlFhgi/IR4Mg2datWyefffqZId4sbUQaNy9oUCsB4yvGS8uWLeX666+X9h06qJSKFSyprGTct2+frF+3XpYvXyYL5i+QmTNnqsSLi4v7j8A0HQzUqFHDSMD2cs01v5Q2bdtqHcTyGbyG5+SDTHiLE8ZPkP977z1ZuXKlGvg0BP+BQOlhgaSwNhcG/Z/u/pOxp9pEXQLmB0suHJTt27arJJw3b558+sknsmfPHqlgJDYqGVgSYheyDxJe0bOn3HTTTVK7Tu1iIwU9JR/kQrr97cUXlXwY8TRioLoKBhrISoqBgwbKn0eN0pEJrxuOslOufXv3GWm+VmYaSf7FuM8lMzPzP0jIcXS+8kZCIsWv+dU10rdvX5XuRV0Klrx3xL2jc77HFBAsOytbh70+/eRTlXZIsXCJBziODQl4+PBhqXVZLWlovEo/SA3KFVchTqobqYZd2q1bd/2+yZgTeM88q5XufCLttm7ZIvPnzTf/b9NnqVKlSs7ViiY8IZ8Sz3iMzz7zjEyYMFHOmIq3dtGFwhIQ8pUtW0Y6duqknrCfgBfMeHHzFs2lS9cuxsGobOzDdTryYh0TNoBXveq772T1qtXqiFx66aVaN0URMScflUz87IWxLxjn4tPcfQUhXiCs/dTG2H1paWm+tJkoHyRs07aNdDB2KmXOyMjQZ7edz5Jww4YNxmacr89Rr349VcNFDTEnHz37jTfekHfffkdVDSrnYonH+ZZsDPg3adpUv18oaHirDs/n8EQCXAsSkinTuXNnadiokXr5qGL2247I5zHjvMydM8d01h3SqHFjX9izkURMyUelMrj/8ksvy17jAVLZkWpYGosgMAb95ZdffsGql3LgnRJfXLFihQaOt27bqqMZBLox/gmbIIEgZiRQrnw5HYLr0aOHdsqFCxfmEp/y2LpZunSpRgEaGwJWTUnRfUUBMfN2qcgtm7fIk088IZ8adUtDRop4AIlAvA3j/qHRD2ncLFxvEeI++OdR8tJLL+VKlrxlQyLiAODQEFNsa67fuEljDZPQiZDiBQ3zcC9U8Cf//rc88T9PaASAcWD22/IQbMf+G/P003J5l8t1X2FHzMh32nikr7/+hox+6CGtWKvSIgkaHyP99uHD5dpfXxuWhKIcjKi0b9tOUlNTc/b+CBrfEgAy41kTyyM8Akip+smAARoewZZj3BYUJExCeZFyjz/6mMwx6hYpS/lsR6Bzcd/nXxgrgwYNipgE9goxUbtUIHbN66+/piMXeH/RAPdB9ZIW38FIJ1RwKNCwlOmtN9/KV1VzDNdmQwJCCjoQG6MYCxYskPfefVfeefttdRTizP8JhoT2OS15QgGSV6tWTbp172Yk4XH5zni9kM0S0DolH3/0kTmuukrewkzAmJCPsdCJEybK66+9rg0XbmMUBEgm5mYQ1qhZs2au1MoP/I86Xb58uYY/aGj2UUakF9/zbhYcw/GQFqIjeRctXCTvvvOuLFyw0Eiq45KUVEVJGi5JuH7FihV11CYhIVFHSg4Zlcv5xgqUkqXOjnGPGzdOqlZNkabGuSqsBIw6+Wig7cZo//ijjzWNPdoxOBriyNEjOnjfonlzJUcoYLNh9CcmJKgXSgpUTaNOk5KTlMhW+lgy8kx8Bv4G3JvOBRFJvZo4YYJMmzbNMEpUHVeMr5grxYKBa0Kw5s2bSbW0NFmzZo1x0Pbmnssn/4//4gtNqmjWrJlKxcKGqNt8VOTs2bPlvhEjNagai0o6cuSIDB02VEaOvE9S01K1DKFAg7JBNCXW6TNy4uQJ/Y00ZehvQ3a2qujVq1ebjrRCOxWJqCdPnM1khnx5yYUjwehNenq6XHf99dK3X1+pSeDYED5UuSzJpxsCP/vMsyoFbTkB5cITf/Kpp8y1r9P94TyrXxB1yUcIYdJXk2TcZ59FXeVaqOd56rRKhMsuuyxnb3Ao4QyBKJ9Kl5Jn5/PilSPJmMWGRMSL7tmrlwwaPFi6de0mdevUldPmPCWt+YRskMI+J52Na0ASpm5+s2SJjuMisdgfDurWqye169SRdWvXaoAeaBkN2ZCAnxsVjKTHEy9MKjiq5KOCkHYfGQMZ1REtRyMvaHDCFXXq1pFWrVtfVINASrsFqlk6Uo1La2hm8qCBA6Vrt65qO+KA0OGQvnQCe2/KxPNv375dO+MeUy9VU6pqQmkobcA98aoJoK9ds1ZjjxZcHwISviK4TsKqJb7fEXXJl5WVZQzwd3TsNVa9kspHAlWpXEVatGyp4ZdowJKS50KSdercSXr37q3zNwjHQERULlKRYyiX/SSksiQjw0jVeEmrlqZkDgbuQ5yvrulQEBCb0pKMayIF582dq5OXIGphIGBUyUdsj+xeJB+VYW2VWIDGggCkKSEBow3uh2SERIxE9OnTx0ihBhqbI0CM2rXkox5Q6eT5EaY5fvyEznJj+CwYabhHDUPAOkYFE4ZBigaSmg6OPcr4NjFLjvczoko+evz8efM0Vy9W9p4FDYx6Sk9voASMhaNjAQlRhdiIqGMkFsQg2xl1bAlTqmQplY7Lli1V5yXVSE9Iw//5QQlYo4bxymuY85apeRFIQOaY7Nu3V21TQjZ+RtTIR2VQ0VOmTNUxy1BqJdLg/hj+CQkJ0rpVa7XHYi0JICGhpSZGFbZv314djF27dmqnUMKUOOvYUE6cCcaTsQHJ+wvVWXAwqlRJ0roNJDSdjhEbvHUyu2NlZxcEUSUf6oYMXkIE0Y7vnQ9ahgMHVQ2Rnu4VID12Z6tWreQyQ5r9+w9oUimkgzSWOFu2bNEZcYnmWALkqOb8wPHYlqVLlzlnJQYA6cmaTqtWTU0AjvUjoko+7JwvPv9CezRqKNagMYjP1Tfqr3nz5gUqA89ht4sBBIRkhH6aNmuqvxmKwyGBZPb6SEUISICbY4NJQJ6PpToOHjygtiNSzpYVh2vL5s0qdfHKYy31w0FUycc466SvvtIeHawXRwuUAbuzbLmy0q5dOzXowwXnEjIhrobjomETpm+WLaMkslLmQhuV65JQ2qxpM4mLryDZWVnaQSwB2QhPbdywUcdv8Vy5X36gQyFRGR5ct3ad/uYajKrs2btHVXLHTh1V5fuNgFGXfARWme3vBfksjh09Jp06dVJVpg0TAqgtxmhJ/5owfryxW6eY52CbLLNnf61jwDgQJS4poWv3lSr949TIcMH8DoLCSUnJOnKCxEPKQWquBek3G42BucCQX37l5p4EwUlK/dqUDSJzHY7nObZt3aqExAHJ7xpeIarkO3zosEydOlWHpLwiH+Wg93fo2EGHuIJJEUBjEkO7664/ytw5c7XjIIWIVxIo/27lSvUyF8yfr3Nzl3zzjRwxRIw3niUksBIxHKAm69Suo6MndvQiUAJyb7QHqhWHiX3nA2XGSyaBgQQOJZ9xZjgeqb1n9x7Nc4TEfpJ+USUfjc4EcGJPXnldVDYN0PnyzmEPwBNDe2bM0xqqQGpwjt0gF+ERYnSkvkOaxYszZMa06RrmwFaDKJA8nIaGbCyplmzOg9yBBOT8jcYuRIUSPA4WOuFYbETIumjRonPsP/axMBKZMn7yfqNKvhPHT2gU/9tvv/XE2wU0CvYa47E4HeGQD7KO+2ycqlaIwDV4HsAnBLRk5D8kHwFfRi1mzJhhfh9RI98uCBQKSkBjEsRXiNd0eeKB7IPAhEwgJenzSG725wc6CgTMWJKhixpRPsqLV41jg/3I8JtfEDXyAZYgW7N2jcz5+mvPyIfdgzocNmyYVnwotUhjcTzrMq81Bjw2E6MUOB92s2O21j7jOxuNvN8Qhw6XsXix5vJBhnCkIMRhri4cZ91opCvXZ+P+K1d+p4sMEbAOBuKarB/95cQvcyU1ZcT+RvrheCFBw+kU0UZUyQeYn4vHa9VArIEUY0LRkKFDNIAbDiALUqZnr55K2l9c80sZPHiwdO3eTVU3Dbxr5y4dXbDH08iWhJATB2La1Gk6dNa2TVt1SkI1OHVEHuGuXbtlubErlTjGduOa3AtCQh5su/xA0Jpx5i1bNsuypctyOz2d8MiRw+pBY0N60RZ5EVXyUXnYRswIQyrwO5bA5kTVDL9juLRq1VobJhzQMKg3bDddDNxIm8tqXyaNGzWW9h3ayxVXXKHLc7Rp01pVLA4VcTVLQiWNuQZkYUZcplGbTPqBNJAgGDiG4bMNG7LVyaEcXAsptiYzU+1DAsfcKz8wmlSpcmX10G1SA2U6sP+AeThRzzdckyCaiDr5UFN4jfRcKjBWgHgMQT0w6s/Sq2cvlTwXChrdSgg+IS/PQOMiRZEg/a+8UiXrvr17jZpeq+SisfX4HCJCmpkzZsqVP/lJWPE24oDly5ZTrzpv6ITAdNeuXYMmIbCf/6kDa/Kwj/seNvuwR/0g/aIuiuhhSA2kQKxApbNi/KgHR2l2SUGIFw4gGfYTS2C89PeXdVYZw2ioeohC43IM6pQhxp8OHab/Qchg4P9efXobsl6pREeNcy3swu+M7YczhKQNBiTogIEDVGoj/QAkxoalI+BVhypHtBHVu9PTIB9JjrES8TQuY573P/CA9OrdO6h6iiQgxtChQ+WTzz6V7lf0yF3UEkAcCIgavf2225UMwRqeuoJ0Q429SfAYorGP6+AMffD++xoD5Hd+4D/q4eohQ7Qz2n0QEHuSIHooEyDaiLrDgc2CrfH17LN2X7AKuxjQOEhXVO3I++7TuRLcK1akBzQmkm/gwIGmExzRjBNralAWOgIxz9Onz0i3bt2Clo3/CD6zNjQTrzBfICzXIAiOasb5CNa5IDwToKZOmaIEtucj9RISE3Tie7ip/NFA1MnHw7L6e8bijNylwSINSzzCGuZ5pF///jEnngX3pMNhl5kfOnnKOg0AAhAPTE9vqPl+wcpI3UFAgtgkZ1jbDylL7K9f/35KdnvtvGA/9h5Lk9ARbMQByct9mR0XKnQTTURd6fOQvJ2nZatWueojkuB6VCbEu/ueu9UBoIIjfZ8LARIQwv3+v+6UX117rY4wUB7KBYFQxy+MHaudMZj65TiCz1de2V9JaNU414CMM6bP0N/5gXtWrlJZbVKIZ9Us0g5n5uuv5+jMu/zIG23EhHwJxiinl9NjI0kKroUqx/P8zW9/YwzsgZ4Tz4KGpsFH3jdSV6MiUEy5bEPjgHz4/gch7S7+79O3r777je/22bD9WNuFkYtgQHo2bdZMHa9A2w/Ssw7gps2bii75QGlDOlYQaNGyRUgv7UJgG4KV3THOgR+IZwFZ6BiPPPaoSkLrdUIIpNgHH3ygaVDBpB/PQ6yyQ04mtCUr6lRjiJmZIc9nvUImN9H57fl0jCVLligBvaqzmJCPh0MtYiBbeyMSoCLxpvv06e2bIaO8QDKTSX3nnXeqB0wZreQhAM9ruSwh8gP/D776KiUy17PPCYlZtSAUIF2LFi01sdR2flQ3ozDLli0PKT2jhZiRD5I0b9FCEislagVGAjQKlZhSNcWXxLOgw1173a819mjjnRAHIpAjCAmCSS+es0H9+jprjePss9LhmJyFJxwMkJ0oAHOMAzs/ZSBFjKSIYPePFmJ2RyqAjFtm+dMAkSAL18SOWbV6VUjp4SUoGw7DrbfeqlKGZ7d2FmGPlctX5P4+Hzi+rFGzxC0Dh+hQ5az+xYQhiJQfOD8xMUE9bN5dYs9HIrIQJguze1F/MSMfD8fcVGZxMTBvPbeLAVIP8pHBwYQcL3pvuEDa9+nXVzWAfXbKiypmLT5rD+YHCERcrkJ8hXM6LqSbY7zWYOQDJU1dsaQa48KBticxw8zM1eoQBesA0UBMW4u3cnfo1FHn0UZC9VJZVCBzRCZNmnROo/gNlI2YWvfu3XNVL+RjRObbpUuVhMFA52WYsnq16ueoXrxeUv1DdTzqinOxva3dyD42pKcmHcQYMSUfD4zdQ1YxlRYp6UfDTZ0yVedChJIAXgKCoDqtjWYbn2RUUrSCEYi6Y8itdevWelyg6kRyhpJcnF+pciWpZ2xHrmPPp/547cKu3f/5qrFoI+Z6igdnaInx3kh4vrbCSX3/8ssv5USOVPEjKGt6w/ScXz8CMjJjLRh5AB2LbJRAycd36jHUWC8gvILjQpqY7fjsQ3Ns3bI1Yo5guIg5+ai0BunpSsBI2n6MInz15VdKwmASxEtADpa9BZY87EMN87qDUB2R/2sZ1YvzkRck7YZ6bshbs2atc8jHOWQ5b9p0NicxlvCklZB+Pa7ooVMHrf1xMaABqURGDcaN+1yJGEoKeAGek2cn1y6w8akD8vbCIR+JpkirvEByhXpmzk+umqyv4+f+/OYcJOfGjZvU/owlPCEfD81wW69evdT7C+XphQOkH3bPtGlTNXnVi9BBOED6kOZuy0fjQ4SjR4PH6gDnEGphwXPOs2TF7iNdKxyJj62N9KUT2POpO2bJETmIZaf1TD8xPNS7bx+dUQZsRRQUVBpxL+bY8lqtrPXrw2qMWIOGZriMjgIgFGWnE4bT8Jyflpp2zrNBPiaYhzqfOkZqona5X6DTsWPnTp2td7HtcCHwrHV4cKLuZOuSmxYJ6WcbZNasWap+CejGsieHg3Km8Yf9dJiOTpydT3tKR37CfbFLSfOMSE5giYI0tZOZQgGiMcGc+weSj7QrrmH3xQKeigbIQsYGS3lRgZF4cK6DVCHjY8b06RFxaCIJgr19+/WTsS+MlVEPPij//Ze/aOYLHTGc5y9hno9RisBORT3iNIQLbM6KAc4e12KkhZUNmCccK3iulxh24gXHqIJIuPpUpKrfjRvlrbfeyl3B3U/AbuPVC9ffcL1O6cT+DbeMHMeyaIFE5ZmtGg8H5PhVrlQpV3JyPp4uq12dOh27cIvnrUIFMPuL10dhB0ZCUlGZ2EG8iOWtN98MmbTpBZCApEhhg1HecIFkr2IkV2CMFKlH0mk44BzIX9E4LRb2/vuMGRBLTeGLFkFS3XDjDTr8FInQC6CR2D768CNdE9qP9l9BgMTrd2V/NVV4JoLTkGnEyBFh283Ud1zc2UWNAut6d87E9FjVky/IR4WSqXvb7berFxYJ9QsgH3j5f1/StwF5mTIeKVBXjM8+//xz8q/XXpVXXv2XTJoyWUeMwpVaSNuKxm5EOwSCCfC8vyRW8I0uolKZZ3rVVVcpaSKlfvHkGL4aO3aszJk7J2LE9hI8F4FiTJUBAwboFMlwOxWSjvpF8vFpJR9EJM4XaEtGG74yhFAHtw2/XRfMgXyRUL80ChVLuvpTTzypw29FATyX3S6UMKjbCsbeDJR8XIeOeeaHYko+KpHo++iHH1bnA7c/UgREnWdkZMjDo0fryqLsK65A4pUoZUwSUwWB9YvNGEvN4CvyAR4e73f48OFy8tRZjy4SBATEt0i8fOD+B2TTRu9mbXkNDdcYc8TIzZw93sB35LO4+dZb5IpePSOeaQEBWc6WZW9ZdKc4EhDylSpVOtfbtRsSMZb14UvyoX6JgT3++OO6zGxgTCsSgIAsnn3nHb/X+Q/FDdQlgW3GmKlr7GuI17BRQw3bRLKugyHqy2UUFFQK6+M1adxExo8fr/EnPNdIgawO0sdZQJGxVcaXkQTFAZCL9xCzDvTBQ4ekvLGvBw0aJDfccIOOG8dK+kX9Zc8XCzyyN157XUaNGqWVkjc2dbFg/WNeFT/6kYelQ/sOOs8kVj3fgufy4p50NjJZ6Ngk9gaGXmIB30o+C1QCry1lnsbiRYu0wiIpoZCAzJudN3eeruZJABdPO9qNwPVpdBI4+cTRImMllnYXZaAzY+J4Ad9LPkBjECgeOWKEfD7uc62wSKtICEDk/7bbb5Of/uxnGvKJFgEZFiPhYfmy5bJ37x7j1Z/SUBA2GNndLG9B0qeVRNHuCF6hUJAPQEBm1v/prrs0XILEiqSEoIGRPkha1n256eabdHkJSB7JxifJgZdfM9lpTeaa3LgaRMMRYsFxVp1nfi2TvKvXqK5E5FkvNJjsd/he7QaCBEgahfeMsbxrJFUU17EqnVn8a9fwWv4ymi2CRLxYAnJ9kgDGjBkjr/zjn2pGoN7pRHwyukNYifAPUyHZVmdmajxy/4H9GpPjWI6LtNT3CoWKfID8vwbpDXSYzC42GQ0Ckg84f9583Zdi7olaLGijcx5ke+7Z5+TNN97QTgSJAstt781+zArCS0wF4NX1LGG7avVqHZk5coRJPmfft0bnK2iZ/IBCRz6ATVTz0pq6xCyqOJIEBFzLJiR8s2SJ3oOB+JTUlAuWgpCDmWksBvnaq6+q9ApFmEAicj/KQVho/vz5up7yciOZWeH+e7OfvMB4Q0QbhopkPUQbhZJ8VDCZz5CQ1w9ADhoqkrAEwCbjHjgIhCWQvOFKQY7Bkx77/PNG4r2pZSxIrNISEYlI4igScEnGEn1VFq8WW7NmrXGYvtdj4gy5C3IPL1AoyQdQOSSfEhTl5chWAkYSloB8MscBWxCbjH1MwkGK5ScFOYYyjfnrGPnoww/198WWj3Lw3JCMTyQq2ToscYsdnGEISflQzbwX2BIxkg5TJFFoyQeoWJJQlYBZhoDbcggYYc1jG51wDMuJESLZtm2rBmarJlc9JzDNsZQBe/TRRx7VRXzsvkgikIgAZwYbkQ6yaOFCff/bFlMGpDTS2o8ELNTkA5aADBcx8XnL1i26j8aJJGxjA6Y8EiahgVldNDkpSSpXqaJEwGNdvHixPPXkUzJ58iR9ITTnRbo8gbBlY8NMQCLiMOGUZa7OlEqVEnVhSb+h0MT5QgGpNGvmLLWvUEGEL6LZ4MQD8UjxOnkfWqOGjdSL3bhpk66WxWrxqFqrtmMNJB1xQTZWJL13xAhdG5Fy+wVFhnwAqTN37lwZ+9zzmjgKAWn8aIEGtoFpvFIkD1MY2Y8UhHReEC8QlmyDBg+Wh0Y/pB3ELyq48AaJzgO8wa5dusg9994rnTp3VjJGs6dDLEgG8QBE5Lcd/vOaeIByIKF5ixGmgh/KZFGkyAeIe/Fa0vvuv09fTQr57BBWtGAlnCWcnxqYsiCRCRNlZflr/ZoiRz5ABTNGOuqhB2XIkCFKQGzC4grq4+ixoxpzjHZHvBAUSfIBejzrn9z/wP3y29/9TlVjpFPyCwuoixPHT8juXbvVJvWLZC6y5AMY1oRA/vDHP8gI4+2RIo4E9IvBHStANuy+/QcO6KdfUKTJByAaDsCNN98kL/7tb5ouXxwJiLpljNipXQ9AvIuleN//8ANd0R31wz4lYfHioW9QbMgHsPmI9L/97js6WQYVpBPTiwH7GPUhXd4Ox/kBxYp8ALVD8PnhRx+Rv44ZowPw7ItmPNBrIOF55hrVq+tMNb+YHMWOfMAOO/38Fz9XKdjKqGGkIiQscrageRwkPEkQvHL2fK9R8ArFknwWEI6XEf79H3/XV5LGVYjThvKTUX6xoDOVKllKGjVurJ3MTxK+WJMPQDQm7vzXH/8gzz73nL4hCBsQEhZ2KUj5WeY2JS1Frr76Kk0989MzFXvyAVQw6Nmzp/zzlVfk5ltukZTUVA3JFGYSUm6G1jp06CA9e/XKfU6/oEhltUQCDEWhmqZPny4vjn1B13Jhni1eop/GRUMBoiHVWxqz4rHHHpMmTZv4zqly5MsHEG3njh3y8ccfm+3f+j5fpKBNlfIzkHiUlVdl3X3P3XL1kCG+tGMd+YIAAqJ6FyxYoPMwWFKDuRzs9ysJ1c4zRGOOya2/uVWuu+46KWXK6kfTwZEvTDAZaMrkyTJh/ASdsMP6xTZvzy+AYHQWJlbdeNON8qtrrw06yclrOPKFCUhGZsjadWuVhDNnzNQ5Eiz0gxTEsPcS2HgQLz09XW659RbNXCbF329ORiAc+S4QqFqkHm/nnjVrpr7hkjkjOCWkbUVj8lIoME6NqmV1et5q1KVrVy2HXyWehSNfAWFJyITyBfMXyNy5c3R5DesZly2T82ahKPEQYuFUIO14FcKAgQNl2LCh+hp7+7/f4ch3kYBgEIDXzH/7zTeydOlSWbhwkXy3cqWSA7sQKYTavlj7EEKhRkmNImyCiu3eo4f07t1b2rVvp4kDflazeeHIFyFALAjBnN4N2RtkxUpWulqrhGRCO68Thah2lpu1EYMR0pKN69qxZ0YpWMOvTds20qVLFx02I0exMJHOwpEvwoBgbCcNWVjvmFghE7izsrJ12bXs7Gz1nAnZoKJVNecD1HdSUpJOiGeptkaNGknjxk2Mmq2rIzCsRgAKg4o9Hxz5oohcIhr1i+Q6fOiwIdxB2bV7t07mOXTwoK4JvW/ffv3O23+wFeMrVpTkqslSKbGSLtqdmpomiZUSJTEhQUMnxO1AYSWdhSNfDGGlHGqUJFbIBjFRp6dOntKEBtQwEg87UW1Fcw7TQTm3sJMtLxz5fIDzqd6iRrTzwWW1+AAQLe9WHODI5+AZHPkcPIMjn4NncORz8AyOfA6ewZHPwTM48jl4Bkc+B8/gyOfgGRz5HDyDI5+DZ3Dkc/AMjnwOnsGRz8EzOPI5eAZHPgfP4Mjn4Bkc+Rw8gyOfg2dw5HPwDI58Dh5B5P8B6H+ufC27vB4AAAAASUVORK5CYII=;" vertex="1" parent="1">
          <mxGeometry x="120" y="410" width="159" height="167" as="geometry" />
        </mxCell>
        <mxCell id="8nYDqPeVYNA1PBUkEucR-15" value="" style="endArrow=classic;html=1;rounded=0;strokeWidth=4;exitX=0.25;exitY=1;exitDx=0;exitDy=0;entryX=0.702;entryY=-0.029;entryDx=0;entryDy=0;entryPerimeter=0;" edge="1" parent="1" source="8nYDqPeVYNA1PBUkEucR-10" target="8nYDqPeVYNA1PBUkEucR-14">
          <mxGeometry width="50" height="50" relative="1" as="geometry">
            <mxPoint x="390" y="400" as="sourcePoint" />
            <mxPoint x="440" y="350" as="targetPoint" />
          </mxGeometry>
        </mxCell>
        <mxCell id="8nYDqPeVYNA1PBUkEucR-16" value="" style="endArrow=classic;html=1;rounded=0;strokeWidth=4;exitX=0.668;exitY=1.009;exitDx=0;exitDy=0;entryX=0.25;entryY=0;entryDx=0;entryDy=0;exitPerimeter=0;" edge="1" parent="1" source="8nYDqPeVYNA1PBUkEucR-10" target="8nYDqPeVYNA1PBUkEucR-13">
          <mxGeometry width="50" height="50" relative="1" as="geometry">
            <mxPoint x="449.5" y="349.99999999999994" as="sourcePoint" />
            <mxPoint x="300" y="447.94" as="targetPoint" />
          </mxGeometry>
        </mxCell>
      </root>
    </mxGraphModel>
  </diagram>
</mxfile>
